<svg width="48" height="52" viewBox="0 0 48 52" fill="none" xmlns="http://www.w3.org/2000/svg">
<path d="M23.9995 0.817037C20.7309 0.697802 18.1997 2.95615 15.4589 4.37518C11.731 6.58497 7.89227 8.62354 4.23866 10.9479C1.84889 12.8903 0.750899 16.0159 1.00186 19.0342C1.01577 24.3857 0.974133 29.7385 1.02288 35.0892C1.33234 38.329 3.57891 41.0786 6.46978 42.434C11.1106 45.0975 15.7242 47.8105 20.3819 50.4429C23.3429 51.7931 26.8481 51.2252 29.4674 49.3985C34.0946 46.7108 38.7504 44.0706 43.3594 41.3529C46.0107 39.4652 47.2693 36.145 46.9972 32.9638C46.9833 27.6122 47.025 22.2595 46.9762 16.9088C46.6664 13.6692 44.4202 10.919 41.5291 9.56421C36.8882 6.90124 32.2738 4.19003 27.6162 1.55733C26.4889 1.03367 25.2366 0.82049 23.9996 0.816935L23.9995 0.817037ZM21.0851 14.2934H26.9148V37.7056H21.0851V14.2934ZM28.4211 19.3892H34.2479V37.7056H28.4211V19.3892ZM13.7502 28.9442H19.5789V37.7056H13.7502V28.9441V28.9442Z" fill="#73A580"/>
</svg>
