<svg width="45" height="48" viewBox="0 0 45 48" fill="none" xmlns="http://www.w3.org/2000/svg">
<path d="M22.4998 0L12.6921 5.88462L22.4998 11.7692V7.84615C32.2192 7.84615 40.1536 15.7806 40.1536 25.5C40.1536 35.2194 32.2192 43.1538 22.4998 43.1538C12.7804 43.1538 4.84593 35.2194 4.84593 25.5C4.84593 20.6883 6.57797 16.5358 9.74977 13.362L6.99185 10.606C3.10016 14.4958 0.922852 19.7193 0.922852 25.5C0.922852 37.3575 10.6423 47.0769 22.4998 47.0769C34.3573 47.0769 44.0767 37.3575 44.0767 25.5C44.0767 13.6425 34.3573 3.92308 22.4998 3.92308V0ZM18.3923 12.8736L14.838 14.5899L19.8027 24.3976C19.6523 24.7464 19.5691 25.1204 19.5575 25.5V25.6236L13.2433 31.9338L16.0659 34.7585L22.3801 28.4443H22.4998C23.2801 28.4443 24.0285 28.1343 24.5803 27.5825C25.1321 27.0307 25.4421 26.2823 25.4421 25.502C25.4421 24.1485 24.5417 23.0245 23.2962 22.6813L18.3923 12.8736Z" fill="#73A580"/>
</svg>
