<svg width="22" height="23" viewBox="0 0 22 23" fill="none" xmlns="http://www.w3.org/2000/svg">
<path d="M11 0C8.82441 0 6.69767 0.671428 4.88873 1.92938C3.07979 3.18733 1.66989 4.9753 0.83733 7.06719C0.00476615 9.15908 -0.213071 11.4609 0.211367 13.6817C0.635804 15.9024 1.68345 17.9423 3.22183 19.5434C4.76021 21.1444 6.72022 22.2348 8.85401 22.6765C10.9878 23.1182 13.1995 22.8915 15.2095 22.025C17.2195 21.1585 18.9375 19.6912 20.1462 17.8085C21.3549 15.9259 22 13.7125 22 11.4482C22 8.41198 20.8411 5.50007 18.7782 3.35311C16.7153 1.20615 13.9174 0 11 0V0ZM11 20.9884C9.18701 20.9884 7.41473 20.4289 5.90728 19.3806C4.39983 18.3323 3.22491 16.8424 2.53111 15.0991C1.83731 13.3559 1.65578 11.4377 2.00947 9.58704C2.36317 7.73642 3.23621 6.03652 4.51819 4.7023C5.80017 3.36808 7.43352 2.45946 9.21168 2.09135C10.9898 1.72324 12.8329 1.91217 14.5079 2.63424C16.1829 3.35632 17.6146 4.57911 18.6218 6.14799C19.6291 7.71687 20.1667 9.56137 20.1667 11.4482C20.1667 13.9785 19.2009 16.405 17.4818 18.1942C15.7627 19.9833 13.4312 20.9884 11 20.9884Z" fill="#73A580"/>
<path d="M16.0321 10.6179C7.25046 5.54251 7.49796 5.46619 6.86546 5.8478C6.23296 6.2294 6.41629 6.11492 6.41629 16.218C6.41629 16.471 6.51287 16.7136 6.68478 16.8925C6.85668 17.0715 7.08984 17.172 7.33296 17.172C7.67212 17.172 7.06712 17.4582 16.0321 12.2779C16.1732 12.1947 16.2905 12.074 16.3722 11.9282C16.4538 11.7824 16.4968 11.6166 16.4968 11.4479C16.4968 11.2791 16.4538 11.1134 16.3722 10.9676C16.2905 10.8218 16.1732 10.7011 16.0321 10.6179ZM8.24962 14.5961V8.29962L13.6946 11.4479L8.24962 14.5961Z" fill="#73A580"/>
</svg>
