<svg width="22" height="28" viewBox="0 0 22 28" fill="none" xmlns="http://www.w3.org/2000/svg">
<path d="M16.0307 0C19.7847 0 21.875 2.4083 21.875 6.53489V20.5112C21.875 24.7054 19.7847 27.0596 16.0307 27.0596H5.84549C2.15104 27.0596 0 24.7054 0 20.5112V6.53489C0 2.4083 2.15104 0 5.84549 0H16.0307ZM6.17361 18.5899C5.80903 18.5493 5.4566 18.7388 5.26215 19.0905C5.06771 19.4288 5.06771 19.8753 5.26215 20.227C5.4566 20.5653 5.80903 20.7682 6.17361 20.7141H15.7014C16.1863 20.66 16.5521 20.1986 16.5521 19.6588C16.5521 19.1041 16.1863 18.644 15.7014 18.5899H6.17361ZM15.7014 12.419H6.17361C5.64983 12.419 5.22569 12.8939 5.22569 13.4757C5.22569 14.0574 5.64983 14.531 6.17361 14.531H15.7014C16.224 14.531 16.6493 14.0574 16.6493 13.4757C16.6493 12.8939 16.224 12.419 15.7014 12.419ZM9.80608 6.29135H6.17361V6.30488C5.64983 6.30488 5.22569 6.77842 5.22569 7.3602C5.22569 7.94198 5.64983 8.41553 6.17361 8.41553H9.80608C10.3299 8.41553 10.7552 7.94198 10.7552 7.34532C10.7552 6.76489 10.3299 6.29135 9.80608 6.29135Z" fill="#73A580"/>
</svg>
