<svg xmlns="http://www.w3.org/2000/svg" xmlns:xlink="http://www.w3.org/1999/xlink" viewBox="0 0 308.53 93.81"><defs><style>.cls-1{fill:#082058;}.cls-2{fill:url(#Degradado_sin_nombre_22);}.cls-3{fill:#73a580;fill-rule:evenodd;}.cls-4{fill:#333;}</style><radialGradient id="Degradado_sin_nombre_22" cx="34.99" cy="28.96" r="30.85" gradientUnits="userSpaceOnUse"><stop offset="0" stop-color="#56599d"/><stop offset="0.97" stop-color="#082058"/></radialGradient></defs><title>CL_logo-bipys-svg_2022</title><g id="Capa_2" data-name="Capa 2"><g id="Capa_13" data-name="Capa 13"><path class="cls-1" d="M132.77,41.94a16.26,16.26,0,0,1-1.45,6.88,15.5,15.5,0,0,1-4.13,5.5,19.38,19.38,0,0,1-6.64,3.57,28.85,28.85,0,0,1-9.07,1.29H83.23V54.41a2.36,2.36,0,0,1,2-2.51l.48-.09a1.71,1.71,0,0,0,.53-.08l.69-.16,2.43-.4V8.66L87,8.26l-.69-.16A1.71,1.71,0,0,0,85.73,8l-.48-.09a2.36,2.36,0,0,1-2-2.51V.65h26.31a38.87,38.87,0,0,1,9.79,1,18.12,18.12,0,0,1,6.72,3.16,12.05,12.05,0,0,1,3.81,4.94,16.42,16.42,0,0,1,1.21,6.39,13.31,13.31,0,0,1-.56,4,11.66,11.66,0,0,1-1.95,3.56,17.89,17.89,0,0,1-3.24,2.92,21.28,21.28,0,0,1-4.61,2.26Q132.77,31.57,132.77,41.94ZM109,26q5.58,0,8.42-2t2.83-6.47q0-4.53-2.59-6.48t-8.09-1.94h-9.31V26Zm13,15.7a9.57,9.57,0,0,0-.65-3.4,6.4,6.4,0,0,0-1.86-2.59,10.37,10.37,0,0,0-3.32-1.62,18.41,18.41,0,0,0-4.94-.56h-11V50.68h11.09a15.13,15.13,0,0,0,5.1-.73A8.56,8.56,0,0,0,119.66,48a7.07,7.07,0,0,0,1.78-2.83A9.63,9.63,0,0,0,122,41.69Z"/><path class="cls-1" d="M156.09,8a1.75,1.75,0,0,0-.53.08l-.69.16-2.34.4V51.17l2.34.4.69.16a1.75,1.75,0,0,0,.53.08l.48.09a2.36,2.36,0,0,1,2,2.51v4.77H135.44V54.41a2.36,2.36,0,0,1,2-2.51l.48-.09,1.22-.24,2.43-.4V8.66l-2.43-.4-.69-.16A1.71,1.71,0,0,0,138,8l-.48-.09a2.36,2.36,0,0,1-2-2.51V.65H158.6V5.42a2.36,2.36,0,0,1-2,2.51Z"/><path class="cls-1" d="M208.79,19.27a20.55,20.55,0,0,1-1.45,7.85,16.69,16.69,0,0,1-4.21,6.07,20.33,20.33,0,0,1-7.13,4,31.16,31.16,0,0,1-10,1.38h-7.2V51.17l2.43.4.68.16a1.75,1.75,0,0,0,.53.08l.49.09a2.36,2.36,0,0,1,2,2.51v4.77H161.84V54.41a2.36,2.36,0,0,1,2-2.51l.49-.09,1.21-.24,2.43-.4V8.66l-2.43-.4-.69-.16a1.69,1.69,0,0,0-.52-.08l-.49-.09a2.36,2.36,0,0,1-2-2.51V.65H186A34.26,34.26,0,0,1,196.24,2a20,20,0,0,1,7,3.89,15.43,15.43,0,0,1,4.13,5.83A20.44,20.44,0,0,1,208.79,19.27Zm-10.93,0a11.79,11.79,0,0,0-.73-4.21A8.8,8.8,0,0,0,195,11.82a9.42,9.42,0,0,0-3.64-2A16.68,16.68,0,0,0,186,9.07h-7.2V30H186a17,17,0,0,0,5.27-.73A10.22,10.22,0,0,0,195,27.2a7.79,7.79,0,0,0,2.18-3.4A12.73,12.73,0,0,0,197.86,19.27Z"/><path class="cls-1" d="M267.49,5.42a2.36,2.36,0,0,1-2,2.51L265,8a1.75,1.75,0,0,0-.53.08l-.69.16-2.34.4L244.9,36.43V51.17l2.35.4.69.16a1.65,1.65,0,0,0,.52.08l.49.09a2.36,2.36,0,0,1,2,2.51v4.77H227.82V54.41a2.36,2.36,0,0,1,2-2.51,1.62,1.62,0,0,0,.57-.09l1.21-.24,2.35-.4V36.43L217.45,8.66,215,8.26l-.69-.16a1.75,1.75,0,0,0-.53-.08l-.48-.09a2.36,2.36,0,0,1-2-2.51V.65h21.86V5.42a2.36,2.36,0,0,1-2,2.51l-.33.09-.81.24-1.13.24,7.77,14.17c.43.76,1,1.83,1.62,3.24.27.59.5,1.16.69,1.7s.36,1,.53,1.37a27.67,27.67,0,0,1,1.21-3.07c.65-1.41,1.19-2.48,1.62-3.24L250,8.5l-1.21-.24-.41-.16a.66.66,0,0,0-.32-.08.86.86,0,0,0-.41-.09,2.36,2.36,0,0,1-2-2.51V.65h21.86Z"/><path class="cls-1" d="M308.53,40.88a20.63,20.63,0,0,1-1.37,7.37,16.64,16.64,0,0,1-4,6.07,18,18,0,0,1-6.39,4,23.54,23.54,0,0,1-8.59,1.46H287a52.46,52.46,0,0,1-16.76-3.08V41.69h4.62a1.72,1.72,0,0,1,1.86,1.46q.24,1.05.73,6.72,3.39,1.05,11.09,1.05a10.83,10.83,0,0,0,7.2-2.18,7.91,7.91,0,0,0,2.51-6.32,6.25,6.25,0,0,0-1.13-3.8A7.94,7.94,0,0,0,294,36.19a23,23,0,0,0-4.29-1.7L288,34l-3.16-1a51.37,51.37,0,0,1-4.94-1.94,17.07,17.07,0,0,1-4.37-3,11.7,11.7,0,0,1-3-4.53,17.76,17.76,0,0,1-1.22-6.72,15.06,15.06,0,0,1,1.3-6.23,14.91,14.91,0,0,1,3.72-5.43,20.13,20.13,0,0,1,6-3.72A21.51,21.51,0,0,1,290.48,0a44.66,44.66,0,0,1,16.76,3.32v15h-4.62a1.81,1.81,0,0,1-1.86-1.54c-.16-.76-.4-2.94-.73-6.56q-2.91-1.29-9.47-1.29a14.25,14.25,0,0,0-3.88.48,8.15,8.15,0,0,0-2.84,1.54,6.58,6.58,0,0,0-1.78,2.35,7,7,0,0,0-.57,3,5.14,5.14,0,0,0,1.22,3.4,9.24,9.24,0,0,0,3,2.35,33.38,33.38,0,0,0,4.38,1.78c.53.16,2.18.7,4.93,1.62,1.14.38,2.78,1,4.94,2a14.65,14.65,0,0,1,4.37,2.91,12.22,12.22,0,0,1,3.08,4.29A14.4,14.4,0,0,1,308.53,40.88Z"/><path class="cls-2" d="M7,56.32H6.65a5.36,5.36,0,0,1-5.5-4.54L1,51.48v-45l.15-.3A5.28,5.28,0,0,1,6.67,1.61H25a3.57,3.57,0,0,1,2.57,1L30,4.86C31.58,6.41,33.27,8,34.89,9.64a2.5,2.5,0,0,0,2,.8H60c1.27,0,2.55,0,3.82,0a5.28,5.28,0,0,1,5,4l.22.85V51.44l-.07.18c-.08.22-.16.44-.23.67A7.41,7.41,0,0,1,67.9,54c-1,1.54-2.62,2.29-4.92,2.29Z"/><path class="cls-1" d="M14.51,2.6H25a2.6,2.6,0,0,1,1.88.72c2.42,2.34,4.89,4.64,7.27,7a3.46,3.46,0,0,0,2.66,1.1H60l3.8,0a4.23,4.23,0,0,1,4,3.24c.07.24.13.49.19.73V51.25a11.22,11.22,0,0,1-.91,2.23A4.44,4.44,0,0,1,63,55.32H6.68a4.35,4.35,0,0,1-4.57-3.84A1.2,1.2,0,0,0,2,51.25V6.67a1.2,1.2,0,0,0,.11-.23A4.3,4.3,0,0,1,6.68,2.61h7.83m0-2H6.67A6.26,6.26,0,0,0,.2,5.8h0L0,6.22V51.71l.2.41h0a6.35,6.35,0,0,0,6.43,5.2H63a6.43,6.43,0,0,0,5.77-2.74,8.32,8.32,0,0,0,.87-2c.08-.21.14-.42.22-.62l.14-.36V15.18l-.06-.25-.11-.42-.08-.31a6.27,6.27,0,0,0-5.9-4.74L60,9.43H56.45l-.08,2v-2H36.85a1.52,1.52,0,0,1-1.26-.51c-1.63-1.63-3.32-3.25-5-4.8L28.29,1.88A4.5,4.5,0,0,0,25,.6H14.51Z"/><path class="cls-3" d="M30.6,15.87c.86.24.5.49,1.25.22,0,0,1.64-.17,1.93.27.12.19.24.16.3.34-.92-.11-.36-.47-1.67-.06,0,0-1.5,0-1.68-.46a1.12,1.12,0,0,1-.41-.2.35.35,0,0,1,.28-.11"/><path class="cls-3" d="M30.4,13.85c.05.12.05.29.18.32s0-.11,0-.18.17-.06.11-.17S30.37,13.79,30.4,13.85Z"/><path class="cls-3" d="M29.41,15.53l0,0a2.58,2.58,0,0,0,.42.1c.12,0,0,.14.23.21l0,0a1.67,1.67,0,0,1-.38-.06c-.06-.1-.1-.11-.22-.15A.37.37,0,0,0,29.41,15.53Z"/><path class="cls-3" d="M27.36,13.72c-.11.3,0,.14,0,.32l1,.21h0a7.54,7.54,0,0,1,.94.93c.05.07.17,0,.22.25.68.14,1.24,0,1.8.37.07,0,.62.28.72,0-1.71-.37-.61-.75-2-1.11a1.11,1.11,0,0,1-.64-.67.43.43,0,0,0,0-.07c-.06-.07-.14-.07-.14-.17-.24-.1-.22.3-.89-.06C28.29,13.68,27.4,13.61,27.36,13.72Z"/><path class="cls-3" d="M17.83,7.58v0s0,0,0,0Z"/><path class="cls-3" d="M18.3,9.75c.05,0,.91-.56,1-.55s0,.05.16.08c.34,1.83.38.75.66,1.34,2.34.22.53.27,1.45.82l.14,0h0a1.28,1.28,0,0,0,.55.77c0,.12-.09.2-.24.15-.08.58-.54,1.13-.35,1.76,0,.08-.09,0-.07.15A6.32,6.32,0,0,0,22,15.4a.29.29,0,0,1,.36.26c.38-.06.7-.18,1.08-.25a.28.28,0,0,0,0,.13c.12,0,.19,0,.21-.13s-.07,0-.06-.07a2,2,0,0,0,.35-.21,3.25,3.25,0,0,0,.2-.6c.14-.4.91-.43,1.28-.39,0,0,.13,0,.22,0,.16.39-.37.57-.47.9,0,.06.11,0,.1.05s-.13,0-.11.08-.1.37-.18.49a.29.29,0,0,1,0-.23c-.07,0-.09.12-.15.17a1.34,1.34,0,0,1-.22.93,2.12,2.12,0,0,1-.21.27c.1,0,.23,0,.28.07a3.71,3.71,0,0,1,1.16-.07c.16-.13.31,0,.51,0,.06.21.35.19.4.41-.08.06-.06.2,0,.3-.34.31-.18,1.05-.46,1.37a1.76,1.76,0,0,0,.67,1.1c-.07,0,0,0-.05.08a.39.39,0,0,0,.19,0c.05-.07-.09-.07,0-.1a.55.55,0,0,1,.13.17,1.79,1.79,0,0,0,.93-.39,1.27,1.27,0,0,1,1.17.84c.16,0,0-.25,0-.34.28-.06.29-.41.63-.43a.7.7,0,0,1,.4-.77.89.89,0,0,0,.26,0s0-.13.06-.17a1,1,0,0,0,1-.43c.09.08.19-.17.39-.06,0,.07.05.07,0,.15s-.24.19-.41.23a.64.64,0,0,1-.11.86c.05.14.18.2.17.35H32a.58.58,0,0,0,.12-.37.85.85,0,0,1-.21-.4c.1-.3.61-.18.74-.45-.18,0-.1-.29,0-.28s.07.25.14.34c.34,0,.69,0,.64.45.3.1.63-.08,1,0,.21.45.79.2,1.14.05-.08,0-.23,0-.24-.05.22,0,.71-.1,1,0,0,.09-.19,0-.28.05.07.1.19.16.2.32.08,0,.06-.08.14-.06s.44.13.61.3a.57.57,0,0,1,0,.32c.07,0,.08,0,.14.09a.24.24,0,0,1,.18-.05c.35.22.78.36.84.86a.81.81,0,0,1,.59.48c.13-.11.4,0,.54,0a2.08,2.08,0,0,1,2.17.8s-.05-.08,0-.09c.36.19.18.92.49,1.17,0-.08-.05-.12,0-.13s.07.06.09.1-.06.06-.07.11c.38-.08.3.57,0,.52-.05.22-.28.27-.4.43.13,0-.06.1,0,.17s.1-.23.24-.26.08,0,.08,0-.08.09-.06.2c.07-.07.1-.17.21-.2.27.18.66,0,.93.13-.07.35-.21.62-.53.69.19,0,0,.13.06.19.22-.27.59-.75,1-.73a.55.55,0,0,1,.4.22c.26,0,.36.12.54.15,0,.07,0,.1,0,.17s.1-.14.26-.1.17.25.21.41-.2.23-.11.3a.4.4,0,0,1,.26-.26c0,.09-.07.11-.09.17s.12-.11.2-.15.14,0,.21-.06c.27.17.55.15.79.28,1.11-.23,1.45.54,2,1,.19.09.54,0,.75.11a2.15,2.15,0,0,1-.63,2.6c-.51.23-.56.93-1,1.2,0-.05,0-.13,0-.17s-.12,0-.11.13.06,0,.06,0-.09.1-.17.11A12.47,12.47,0,0,1,46.61,33c-.45.41-.37,1.25-.93,1.48,0,.21-.19.24-.14.52-.25.07-.49.18-.53.4a9.63,9.63,0,0,0-1.16.07c0,.06.1.08,0,.1s-.3,0-.37.17.1,0,.07.09c-.56-.15-1,.4-1.43.71,0,0,0-.11,0-.09a3.91,3.91,0,0,0-.16.9s.08,0,.08,0,0,.1-.07.1,0-.06-.06,0-.07.26-.09.41c-.67.24-.71,1.1-1.36,1.35,0-.05.06-.16.19-.13,0-.24.3-.25.31-.53-.07,0-.1.08-.19.08s-.08-.07-.08-.15a.58.58,0,0,1-.36.56c0,.13-.13.15-.13.28s.07,0,.06,0l-.2.26c-.41.65-.84,1.31-1.61,1.31-.23-.21-.71-.09-.88-.36,0,.1-.06.12-.06.24s.46.14.53.41c0,.11-.13.12-.12.25s.21.12.27.23c-.21,1.09-1.41,1.46-2.35,1.44.07,0,0,.14,0,.21s.11,0,.11,0a4.24,4.24,0,0,0-.18.5s.09,0,.1.07c-.21.47-.84.23-1.1.22-.09.21.07.31,0,.58.05.07.23,0,.21.13.16,0,.15-.17.28-.2s.07.15.05.29-.13.06-.18.1a.67.67,0,0,1-.06-.15c-.1,0-.26,0-.25.14s.2,0,.22.07c-.29.09-.38.33-.32.68-.11,0-.15.16-.14.23a.71.71,0,0,0-.65.58c.08.29.43.26.66.36,0,.51-.39.49-.56.76.07.45-.25.46-.43.64,0,.41.13.43.26.65-.14,0-.29-.07-.32.12.17,0,.42-.11.34.22a2.24,2.24,0,0,0,1,.39c-.27.2-.66.14-.92.38-.12,0-.15-.07-.26-.1s.08.08,0,.11-.17-.11-.24-.18-.17.23-.24.08.06,0,.07,0-.26,0-.4-.06c0-.1.16,0,.16-.12a.24.24,0,0,1-.26,0c-.08,0,.06.13-.05.11s-.13-.12-.21-.15,0,.06,0,.08-.21-.14-.26-.18.14-.12.23-.16c-.12.05-.11-.07-.22,0s0-.05,0-.11-.08,0-.13,0,0-.06,0-.16-.07.06-.11,0,0-.12-.06-.16.09-.06.1-.14-.11-.07-.13-.14a.45.45,0,0,1-.18.18c0-.12,0-.15-.05-.31s.05.09.11,0-.12,0-.09-.12.08,0,.07-.06-.24-.09-.38-.19c0-.06,0-.14,0-.19-.23.06-.1-.29-.18-.42.1,0,.08-.07.12-.17.17.06.16.33.31.4,0-.14-.15-.2-.09-.35s-.08,0-.09,0,.1-.18.13-.38a1,1,0,0,1-.41-.06c-.08,0,.08.1,0,.14s-.11,0-.08-.12a.67.67,0,0,1,.25-.22c0-.11-.12,0-.11-.09a.29.29,0,0,1,.16-.07,1.12,1.12,0,0,1,.07-.43c-.11,0-.13,0-.09-.1s0,.09-.09.07a.57.57,0,0,0,.1-.25c0,.12.08,0,.13,0s.13.12.15.24,0,0-.07,0a.44.44,0,0,1,0,.28.12.12,0,0,0,.11,0c0-.12-.07-.43,0-.45s-.07,0-.06-.1,0-.23,0-.37c.17-.15,0-.42.1-.57-.18,0,0-.15-.08-.22s-.07.24-.25.19c.09.17,0,.34.06.52-.06,0,0,.13-.07.16s-.2,0-.22,0a3,3,0,0,0,0-.61h.13a1.25,1.25,0,0,1-.09-.86c.29-.4-.19-.84-.13-1.27.05,0,.13,0,.18,0a1.57,1.57,0,0,1,0-.23,10.76,10.76,0,0,0,.52-1.6A11.08,11.08,0,0,0,32,39.42s.06-.06.11-.07-.05-.15,0-.14c0-.18-.09-.33-.13-.51a2.19,2.19,0,0,0,.2-1,2.79,2.79,0,0,0,.15-1.15,4,4,0,0,1,.06-.83c0-.09-.09,0-.1-.06v-.16a.16.16,0,0,1,.12,0,3.78,3.78,0,0,0,.06-.47h0a7.76,7.76,0,0,0-.16-1.78c-.18-.08-.29-.22-.46-.31-.65-.75-2-.81-2.39-1.83.06,0,.05,0,.08,0a3.73,3.73,0,0,0-.73-1.18c.07,0,0-.1,0-.17-.37-.54-.6-1.2-.94-1.77-.14-.31-.58-.34-.71-.67a.1.1,0,0,0,.13-.06c0-.13-.1-.18-.17-.26s.06,0,.05-.11c-.36-.53.54-.64.6-1.11,0-.08-.12,0-.11-.11s-.07.12-.17.11-.18-.13-.25-.22c.15-.16,0-.41,0-.62.18,0,.21-.18.18-.3a.47.47,0,0,0,.2-.56c.16-.14.52-.08.57-.34,0-.06-.09,0-.07-.11s.17,0,.22-.06c-.18-.31.17-.42.4-.45,0-.26.23-.33.31-.54-.09.06-.15-.05-.06-.09-.07,0-.11,0-.13-.06a.68.68,0,0,0,0-.69s.1,0,.13,0c0-.21-.13-.27,0-.43a2,2,0,0,1-.48-.75c.13,0,.06-.08.11-.15s-.1,0-.13,0-.2-.24-.36-.3-.09.1-.19.09a.31.31,0,0,0,0,.17c-.13,0-.15.15-.32.13,0,.2.16.22.18.39-.16,0-.23.2-.43.1.05-.09,0-.17,0-.28s0,.09-.08.11c-.18-.18-.44-.48-.75-.28-.08-.07-.05-.25-.19-.26s.1.1,0,.15a.19.19,0,0,1-.17-.11.22.22,0,0,0,.09-.17.89.89,0,0,0-.42-.28c0-.14-.12-.29-.24-.26s.12.05.11.13a.2.2,0,0,1-.11.11c-.17-.13-.39-.29-.18-.56,0-.05-.1,0-.09-.09h.09a11.54,11.54,0,0,0-.73-1c.06-.07.09.07.15,0s-.12-.14,0-.2a.31.31,0,0,1-.19,0c0,.07,0,.09-.07.11-.37.06-.41-.2-.75-.17,0-.11-.18-.12-.25-.2h-.15c-.62-.07-.69-.68-1-1-.12,0-.15-.12-.27,0s0,0,0-.09-.05,0-.13,0c-.18.18-.67.49-.93.19a2.93,2.93,0,0,1-1.48-1,1.16,1.16,0,0,1-.95-1.14l.15-.06c0-.08-.05-.06,0-.13.45-.54-.18-1.38-.15-1.89a2.13,2.13,0,0,1-.3-.3c0-.15.15-.2.18-.35s-.15-.09-.1-.25c-.19,0-.05-.23,0-.35s-.13,0-.15-.06,0-.22,0-.37-.09.09-.15,0,.08-.13.17-.15a1.74,1.74,0,0,1,.17-.83c-.09,0-.08-.1-.08-.15"/><path class="cls-3" d="M21.68,11.46h0Z"/><path class="cls-4" d="M18.25,86.24a3.85,3.85,0,0,1-.35,1.63,3.64,3.64,0,0,1-1,1.31,4.63,4.63,0,0,1-1.58.85,6.74,6.74,0,0,1-2.16.31H6.46V89.2a.55.55,0,0,1,.48-.59l.11,0,.13,0a.62.62,0,0,1,.16,0l.58-.1V78.32l-.58-.1-.16,0a.32.32,0,0,0-.13,0l-.11,0a.57.57,0,0,1-.48-.6V76.41h6.26a9.6,9.6,0,0,1,2.33.25,4.18,4.18,0,0,1,1.6.76,2.84,2.84,0,0,1,.9,1.17,4,4,0,0,1,.29,1.52,3.16,3.16,0,0,1-.13,1,2.74,2.74,0,0,1-.47.84,4.12,4.12,0,0,1-.77.7,5.52,5.52,0,0,1-1.09.54C17.29,83.56,18.25,84.59,18.25,86.24Zm-5.67-3.8a3.47,3.47,0,0,0,2-.48,1.75,1.75,0,0,0,.67-1.54,1.81,1.81,0,0,0-.62-1.54,3.13,3.13,0,0,0-1.92-.46H10.5v4Zm3.1,3.74a2.32,2.32,0,0,0-.15-.81,1.49,1.49,0,0,0-.44-.62,2.53,2.53,0,0,0-.79-.38,4.28,4.28,0,0,0-1.18-.14H10.5v4.09h2.64a3.47,3.47,0,0,0,1.21-.18,2,2,0,0,0,.78-.46,1.72,1.72,0,0,0,.42-.67A2.3,2.3,0,0,0,15.68,86.18Z"/><path class="cls-4" d="M28.18,89.18v1.14H25.91a1.1,1.1,0,0,1-.54-.1c-.13,0-.22-.19-.29-.42l-.21-.69a5.73,5.73,0,0,1-.73.59,5.64,5.64,0,0,1-.75.43,4.58,4.58,0,0,1-.81.25,5.2,5.2,0,0,1-1,.09,3.53,3.53,0,0,1-1.16-.17,2.72,2.72,0,0,1-.91-.5A2.37,2.37,0,0,1,19,89a3,3,0,0,1-.21-1.15A2.35,2.35,0,0,1,19,86.68a2.58,2.58,0,0,1,1-1A6,6,0,0,1,21.83,85a11.35,11.35,0,0,1,2.83-.29V84.1a2.29,2.29,0,0,0-.42-1.48A1.52,1.52,0,0,0,23,82.13a2.71,2.71,0,0,0-1,.14,4.59,4.59,0,0,0-.68.31l-.52.29a.93.93,0,0,1-.52.13.82.82,0,0,1-.42-.11,1.26,1.26,0,0,1-.27-.31l-.44-.75a5.84,5.84,0,0,1,4.1-1.58,3.88,3.88,0,0,1,1.56.29,3.2,3.2,0,0,1,1.14.79,3.69,3.69,0,0,1,.73,1.21A4.93,4.93,0,0,1,27,84.08v4.37l.52.1.21,0A.55.55,0,0,1,28.18,89.18Zm-5.25-2.92a5.43,5.43,0,0,0-1.14.34,1.42,1.42,0,0,0-.6.47,1,1,0,0,0-.17.59,1,1,0,0,0,.36.91,1.66,1.66,0,0,0,1,.27,3.48,3.48,0,0,0,.67-.06,1.94,1.94,0,0,0,.6-.21,4.93,4.93,0,0,0,.52-.33c.18-.14.35-.3.52-.46V86.12A8.77,8.77,0,0,0,22.93,86.26Z"/><path class="cls-4" d="M40.43,89.2v1.14H36.6V84.06a2.19,2.19,0,0,0-.42-1.41,1.53,1.53,0,0,0-1.25-.5,2.43,2.43,0,0,0-1.16.29,4.34,4.34,0,0,0-1,.75v5.24l.56.1.29.06.11,0a.55.55,0,0,1,.48.59v1.14H28.92V89.2a.55.55,0,0,1,.48-.59l.11,0,.29-.06.56-.1V82.37l-.56-.1-.16,0-.13,0-.11,0a.56.56,0,0,1-.48-.6V80.46h2.9a.59.59,0,0,1,.6.44l.17.77a4.18,4.18,0,0,1,.62-.56,4,4,0,0,1,.71-.42,4.47,4.47,0,0,1,.79-.29,5.08,5.08,0,0,1,.93-.1,3.49,3.49,0,0,1,1.44.27,3.09,3.09,0,0,1,1,.77,3.7,3.7,0,0,1,.64,1.2A4.85,4.85,0,0,1,39,84.06v4.37l.58.1a.62.62,0,0,1,.16,0l.13,0,.11,0A.55.55,0,0,1,40.43,89.2Z"/><path class="cls-4" d="M48.54,89.65a7.59,7.59,0,0,1-1,.5,6.34,6.34,0,0,1-1,.25,6.72,6.72,0,0,1-1.06.07,4.36,4.36,0,0,1-1.72-.32,4.18,4.18,0,0,1-1.4-1,4.59,4.59,0,0,1-1-1.6,6.23,6.23,0,0,1-.35-2.18,6,6,0,0,1,.31-2,5,5,0,0,1,.92-1.62,4.2,4.2,0,0,1,1.5-1.06,5.29,5.29,0,0,1,2.06-.39A9.19,9.19,0,0,1,49,81l0,3h-1.1a.42.42,0,0,1-.44-.37l-.16-1.38a4.88,4.88,0,0,0-1.27-.2,2.38,2.38,0,0,0-1.1.24,1.92,1.92,0,0,0-.77.63,3,3,0,0,0-.48,1,6.07,6.07,0,0,0-.15,1.35,5,5,0,0,0,.17,1.41,3,3,0,0,0,.48,1,2.43,2.43,0,0,0,.77.63,2.52,2.52,0,0,0,1,.21,2.55,2.55,0,0,0,.93-.13,2.73,2.73,0,0,0,.59-.31l.21-.14.22-.17a.55.55,0,0,1,.38-.13.49.49,0,0,1,.45.21l.67.87A5.37,5.37,0,0,1,48.54,89.65Z"/><path class="cls-4" d="M56.82,80.67a4.41,4.41,0,0,1,1.55,1,4.47,4.47,0,0,1,1,1.6,6.09,6.09,0,0,1,.35,2.1,6.24,6.24,0,0,1-.35,2.12,5.11,5.11,0,0,1-1,1.62,4.11,4.11,0,0,1-1.55,1,5.45,5.45,0,0,1-2,.34,5.63,5.63,0,0,1-2-.34,4.07,4.07,0,0,1-1.54-1,4.32,4.32,0,0,1-1-1.62,6.24,6.24,0,0,1-.35-2.12,6.09,6.09,0,0,1,.35-2.1,4.58,4.58,0,0,1,1-1.6,4.28,4.28,0,0,1,1.54-1,5.62,5.62,0,0,1,2-.37A5.51,5.51,0,0,1,56.82,80.67Zm-.19,7.15a5.22,5.22,0,0,0,0-4.86,2,2,0,0,0-1.81-.85A2.15,2.15,0,0,0,53,83a4.14,4.14,0,0,0-.61,2.45A4.07,4.07,0,0,0,53,87.82a2.14,2.14,0,0,0,1.85.82A2,2,0,0,0,56.63,87.82Z"/><path class="cls-4" d="M72.35,90.3a.77.77,0,0,1-.39-.11.56.56,0,0,1-.21-.33L71.56,89a5.07,5.07,0,0,1-1.37,1.1,3.75,3.75,0,0,1-1.83.42,3.11,3.11,0,0,1-1.46-.32,3.32,3.32,0,0,1-1.16-1A4.5,4.5,0,0,1,65,87.59a8.19,8.19,0,0,1-.27-2.16,7,7,0,0,1,.29-2,4.9,4.9,0,0,1,.87-1.64,4,4,0,0,1,1.33-1.08,3.67,3.67,0,0,1,1.75-.4,3.41,3.41,0,0,1,2.46,1V77.94l-.55-.1-.17,0-.12,0-.12,0a.55.55,0,0,1-.48-.59V76h3.83V88.41l.5.08.25.06.12,0a.55.55,0,0,1,.48.59V90.3Zm-1.79-8a2.8,2.8,0,0,0-1-.21,2.32,2.32,0,0,0-1,.21,2,2,0,0,0-.75.61,3.46,3.46,0,0,0-.46,1,6,6,0,0,0-.15,1.49,6.58,6.58,0,0,0,.13,1.48,2.65,2.65,0,0,0,.41,1,1.46,1.46,0,0,0,.61.56,1.93,1.93,0,0,0,.85.18,2.44,2.44,0,0,0,1.27-.31,3.72,3.72,0,0,0,1-.89V83A2.22,2.22,0,0,0,70.56,82.29Z"/><path class="cls-4" d="M82.23,80.59a3.73,3.73,0,0,1,1.35.89,4,4,0,0,1,.88,1.41,5.19,5.19,0,0,1,.33,1.88,2.49,2.49,0,0,1,0,.47.78.78,0,0,1-.07.26.32.32,0,0,1-.18.16.76.76,0,0,1-.27,0h-6.1A3.41,3.41,0,0,0,79,87.93a2.55,2.55,0,0,0,1.89.71,3,3,0,0,0,1-.13,3.66,3.66,0,0,0,.74-.31,2.44,2.44,0,0,1,.28-.14l.28-.15a.78.78,0,0,1,.44-.13.6.6,0,0,1,.27.06A.34.34,0,0,1,84,88l.69.87a4.82,4.82,0,0,1-.88.79,6,6,0,0,1-1,.5,8.61,8.61,0,0,1-1.1.25,7.08,7.08,0,0,1-1.08.07,5.24,5.24,0,0,1-1.91-.32,4.6,4.6,0,0,1-1.54-1,4.85,4.85,0,0,1-1-1.66,6.55,6.55,0,0,1-.36-2.29,5.86,5.86,0,0,1,.32-1.89,4.49,4.49,0,0,1,1-1.56,4.3,4.3,0,0,1,1.48-1,5.29,5.29,0,0,1,3.72-.1Zm-3.29,2a2.89,2.89,0,0,0-.76,1.65h4.47a3,3,0,0,0-.13-.86,2.31,2.31,0,0,0-.39-.72,1.7,1.7,0,0,0-.65-.48,2.31,2.31,0,0,0-.93-.19A2.15,2.15,0,0,0,78.94,82.6Z"/><path class="cls-4" d="M94.83,78.17a.32.32,0,0,0-.13,0l-.16,0-.56.1V88.43l.56.1.16,0,.13,0,.11,0a.55.55,0,0,1,.48.59v1.14H89.91V89.2a.55.55,0,0,1,.49-.59l.11,0,.29-.06.58-.1V78.32l-.58-.1-.16,0a.32.32,0,0,0-.13,0l-.11,0a.57.57,0,0,1-.49-.6V76.41h5.51v1.14a.57.57,0,0,1-.48.6Z"/><path class="cls-4" d="M107.71,89.2v1.14h-3.83V84.06a2.14,2.14,0,0,0-.43-1.41,1.51,1.51,0,0,0-1.25-.5,2.42,2.42,0,0,0-1.15.29,4.34,4.34,0,0,0-1,.75v5.24l.55.1.29.06.12,0a.55.55,0,0,1,.48.59v1.14H96.19V89.2a.55.55,0,0,1,.48-.59l.12,0,.29-.06.56-.1V82.37l-.56-.1-.16,0-.13,0-.12,0a.56.56,0,0,1-.48-.6V80.46H99.1a.59.59,0,0,1,.6.44l.17.77a4.18,4.18,0,0,1,.62-.56,4,4,0,0,1,.71-.42,4.2,4.2,0,0,1,.79-.29,5.07,5.07,0,0,1,.92-.1,3.51,3.51,0,0,1,1.45.27,3.09,3.09,0,0,1,1,.77,3.7,3.7,0,0,1,.64,1.2,4.85,4.85,0,0,1,.21,1.52v4.37l.57.1.17,0,.12,0,.12,0A.55.55,0,0,1,107.71,89.2Z"/><path class="cls-4" d="M119.59,81.59a.56.56,0,0,1-.48.6l-.23,0-.67.14-3.18,8h-2.16l-3.18-8-.9-.18a.56.56,0,0,1-.48-.6V80.46h4.81v1.13a.56.56,0,0,1-.48.6l-.54.1,1.41,3.89q.09.27.27.9c.09.35.16.65.21.89.09-.44.15-.73.19-.89a9.43,9.43,0,0,1,.29-.9l1.43-3.87-.48-.09-.16,0a.56.56,0,0,1-.48-.6V80.46h4.81Z"/><path class="cls-4" d="M126.64,80.59a3.73,3.73,0,0,1,1.35.89,4,4,0,0,1,.89,1.41,5.19,5.19,0,0,1,.33,1.88,3.73,3.73,0,0,1,0,.47.71.71,0,0,1-.08.26.3.3,0,0,1-.17.16.76.76,0,0,1-.27,0h-6.11a3.41,3.41,0,0,0,.83,2.23,2.52,2.52,0,0,0,1.89.71,3,3,0,0,0,1-.13,3.56,3.56,0,0,0,.73-.31,2.44,2.44,0,0,1,.28-.14l.28-.15a.8.8,0,0,1,.44-.13.54.54,0,0,1,.27.06.36.36,0,0,1,.18.15l.69.87a4.86,4.86,0,0,1-.89.79,5.33,5.33,0,0,1-1,.5,8.23,8.23,0,0,1-1.1.25,7,7,0,0,1-1.07.07,5.21,5.21,0,0,1-1.91-.32,4.41,4.41,0,0,1-1.54-1,4.7,4.7,0,0,1-1-1.66,6.32,6.32,0,0,1-.37-2.29,5.61,5.61,0,0,1,.33-1.89,4.62,4.62,0,0,1,.94-1.56,4.34,4.34,0,0,1,1.49-1,5.26,5.26,0,0,1,3.71-.1Zm-3.29,2a2.89,2.89,0,0,0-.75,1.65h4.47a3,3,0,0,0-.14-.86,2.09,2.09,0,0,0-.38-.72,1.82,1.82,0,0,0-.66-.48A2.23,2.23,0,0,0,125,82,2.19,2.19,0,0,0,123.35,82.6Z"/><path class="cls-4" d="M137,87.2a3.36,3.36,0,0,1-.27,1.33,3.22,3.22,0,0,1-.75,1,3.17,3.17,0,0,1-1.24.67,4.9,4.9,0,0,1-1.69.25,9.71,9.71,0,0,1-1.71-.15A7.51,7.51,0,0,1,129.9,90V87.16H131a.43.43,0,0,1,.44.37c0,.14.07.52.13,1.13a5.58,5.58,0,0,0,1.56.16,2.45,2.45,0,0,0,.74-.1,1.78,1.78,0,0,0,.5-.27,1,1,0,0,0,.29-.36,1.45,1.45,0,0,0,.07-.47.77.77,0,0,0-.19-.55,1.92,1.92,0,0,0-.56-.39,4.71,4.71,0,0,0-.77-.29l-.9-.29a6.84,6.84,0,0,1-.89-.36,3.28,3.28,0,0,1-.79-.52,2.23,2.23,0,0,1-.54-.77,2.83,2.83,0,0,1-.21-1.12,3,3,0,0,1,.23-1.16,2.61,2.61,0,0,1,.71-1,3.55,3.55,0,0,1,1.18-.66,5.21,5.21,0,0,1,1.6-.25,7.13,7.13,0,0,1,1.29.11c.37.07.9.21,1.6.41h0v2.8h-1.1a.42.42,0,0,1-.44-.37,9.14,9.14,0,0,1-.14-1.08,4.07,4.07,0,0,0-1.16-.13,1.78,1.78,0,0,0-1.09.29.91.91,0,0,0-.41.79.84.84,0,0,0,.21.54,2.26,2.26,0,0,0,.54.36,5.61,5.61,0,0,0,.77.31l.89.27a8.33,8.33,0,0,1,.91.37,2.84,2.84,0,0,1,.77.5,2,2,0,0,1,.54.71A2.45,2.45,0,0,1,137,87.2Z"/><path class="cls-4" d="M139.64,89.76a2.79,2.79,0,0,1-.69-2V82.25h-1a.52.52,0,0,1-.33-.14.41.41,0,0,1-.15-.36v-1l1.6-.25.5-2.7a.4.4,0,0,1,.17-.29.59.59,0,0,1,.37-.12h1.23v3.12h2.6v1.7h-2.6V87.6a1.09,1.09,0,0,0,.23.72.84.84,0,0,0,.62.25,1.25,1.25,0,0,0,.36,0l.25-.12.22-.11a.22.22,0,0,1,.15,0c.1,0,.17,0,.19,0l.14.15.71,1.16a3.88,3.88,0,0,1-1.19.65,4,4,0,0,1-1.39.23A2.62,2.62,0,0,1,139.64,89.76Z"/><path class="cls-4" d="M150.08,89.2v1.14h-5.29V89.2a.55.55,0,0,1,.48-.59l.11,0,.29-.06.58-.1V82.37l-.58-.1-.16,0-.13,0-.11,0a.56.56,0,0,1-.48-.6V80.46h3.83v8l.58.1.16,0,.13,0,.11,0A.55.55,0,0,1,150.08,89.2Zm-1.23-11a1.42,1.42,0,0,1-.33.48A1.48,1.48,0,0,1,148,79a1.66,1.66,0,0,1-1.19,0,1.52,1.52,0,0,1-.46-.33,1.48,1.48,0,0,1-.45-1.06,1.57,1.57,0,0,1,.12-.6,1.3,1.3,0,0,1,.33-.48,1.38,1.38,0,0,1,.46-.31,1.43,1.43,0,0,1,1.19,0,1.47,1.47,0,0,1,.81.79,1.62,1.62,0,0,1,.14.6A1.48,1.48,0,0,1,148.85,78.15Z"/><path class="cls-4" d="M156.21,80.42a3.71,3.71,0,0,1,1,.39h2.83v.88A.51.51,0,0,1,160,82a.89.89,0,0,1-.39.17l-.89.16a2.08,2.08,0,0,1,.14.53,3.08,3.08,0,0,1-.23,1.91,2.88,2.88,0,0,1-.81,1,4.32,4.32,0,0,1-1.23.64,4.94,4.94,0,0,1-1.52.23,4.85,4.85,0,0,1-1.1-.1c-.31.2-.47.4-.47.62a.45.45,0,0,0,.27.44,2.37,2.37,0,0,0,.74.2,8.56,8.56,0,0,0,1,.07H156c.19,0,.42,0,.67,0,.4,0,.79.1,1.18.17a3.45,3.45,0,0,1,1,.39,1.94,1.94,0,0,1,.73.69,2.14,2.14,0,0,1,.27,1.16,2.67,2.67,0,0,1-.33,1.27,3.17,3.17,0,0,1-.92,1.1,4.59,4.59,0,0,1-1.5.77,6.77,6.77,0,0,1-2,.29,7.16,7.16,0,0,1-2-.22A5.28,5.28,0,0,1,151.7,93a2.22,2.22,0,0,1-.81-.83,2,2,0,0,1-.27-1,1.62,1.62,0,0,1,.43-1.18,3,3,0,0,1,1.17-.73,1.75,1.75,0,0,1-.58-.54,1.61,1.61,0,0,1-.23-.89,1.39,1.39,0,0,1,.08-.46,2,2,0,0,1,.23-.46,2.48,2.48,0,0,1,.41-.44,3.11,3.11,0,0,1,.57-.37,3.19,3.19,0,0,1-1.19-1.08,2.84,2.84,0,0,1-.42-1.58,3,3,0,0,1,.28-1.33,3,3,0,0,1,.83-1,3.91,3.91,0,0,1,1.24-.63,5,5,0,0,1,1.58-.23A5.69,5.69,0,0,1,156.21,80.42Zm1.23,9.9A1.3,1.3,0,0,0,157,90a4.31,4.31,0,0,0-.71-.15c-.21,0-.49,0-.85-.08l-.93,0a9,9,0,0,1-.9-.08,2.33,2.33,0,0,0-.66.52,1.13,1.13,0,0,0-.25.7,1.11,1.11,0,0,0,.14.48,1,1,0,0,0,.4.4A2.26,2.26,0,0,0,154,92a5.63,5.63,0,0,0,1.1.1,5.5,5.5,0,0,0,1.16-.11,3.1,3.1,0,0,0,.79-.27,1.13,1.13,0,0,0,.46-.43,1,1,0,0,0,.14-.54A.62.62,0,0,0,157.44,90.32ZM155.79,85a1.35,1.35,0,0,0,.53-.32,1.23,1.23,0,0,0,.33-.52,1.76,1.76,0,0,0,.12-.66,1.58,1.58,0,0,0-.45-1.16A1.77,1.77,0,0,0,155,82a1.81,1.81,0,0,0-1.33.42,1.55,1.55,0,0,0-.43,1.16,1.76,1.76,0,0,0,.1.66,1.5,1.5,0,0,0,.33.5,1.33,1.33,0,0,0,.55.34,2.41,2.41,0,0,0,.78.12A2.26,2.26,0,0,0,155.79,85Z"/><path class="cls-4" d="M170,89.18v1.14h-2.27a1.05,1.05,0,0,1-.54-.1.56.56,0,0,1-.29-.42l-.21-.69a5.77,5.77,0,0,1-.74.59,5.64,5.64,0,0,1-.75.43,4.58,4.58,0,0,1-.81.25,5.2,5.2,0,0,1-1,.09,3.58,3.58,0,0,1-1.16-.17,2.58,2.58,0,0,1-.9-.5,2.28,2.28,0,0,1-.6-.85,3,3,0,0,1-.21-1.15,2.37,2.37,0,0,1,.29-1.12,2.55,2.55,0,0,1,1-1,6.16,6.16,0,0,1,1.81-.73,11.35,11.35,0,0,1,2.83-.29V84.1a2.29,2.29,0,0,0-.42-1.48,1.49,1.49,0,0,0-1.21-.49,2.77,2.77,0,0,0-1,.14,4.39,4.39,0,0,0-.67.31l-.52.29a1,1,0,0,1-.52.13.77.77,0,0,1-.42-.11,1.26,1.26,0,0,1-.27-.31l-.45-.75a5.88,5.88,0,0,1,4.11-1.58,3.94,3.94,0,0,1,1.56.29,3.25,3.25,0,0,1,1.13.79,3.53,3.53,0,0,1,.73,1.21,4.66,4.66,0,0,1,.23,1.54v4.37l.52.1.22,0A.55.55,0,0,1,170,89.18Zm-5.26-2.92a5.63,5.63,0,0,0-1.14.34,1.32,1.32,0,0,0-.59.47,1,1,0,0,0-.18.59,1,1,0,0,0,.37.91,1.65,1.65,0,0,0,1,.27,3.58,3.58,0,0,0,.68-.06,2,2,0,0,0,.59-.21,4.06,4.06,0,0,0,.52-.33,5.7,5.7,0,0,0,.52-.46V86.12A8.84,8.84,0,0,0,164.78,86.26Z"/><path class="cls-4" d="M178.15,89.65a7.79,7.79,0,0,1-1,.5,6.34,6.34,0,0,1-1,.25,6.72,6.72,0,0,1-1.06.07,4.27,4.27,0,0,1-1.71-.32,4.13,4.13,0,0,1-1.41-1,4.91,4.91,0,0,1-1-1.6,6.47,6.47,0,0,1-.35-2.18,6.31,6.31,0,0,1,.31-2,5,5,0,0,1,.93-1.62,4.12,4.12,0,0,1,1.5-1.06,5.25,5.25,0,0,1,2.06-.39,9.19,9.19,0,0,1,3.12.72l0,3h-1.1a.42.42,0,0,1-.44-.37l-.15-1.38a5,5,0,0,0-1.28-.2,2.31,2.31,0,0,0-1.09.24,1.92,1.92,0,0,0-.77.63,3,3,0,0,0-.49,1,6.07,6.07,0,0,0-.15,1.35,5.45,5.45,0,0,0,.17,1.41,3,3,0,0,0,.49,1,2.23,2.23,0,0,0,.77.63,2.88,2.88,0,0,0,1.94.08,3.16,3.16,0,0,0,.6-.31l.2-.14a1.63,1.63,0,0,0,.22-.17.56.56,0,0,1,.39-.13.49.49,0,0,1,.44.21l.67.87A5.35,5.35,0,0,1,178.15,89.65Z"/><path class="cls-4" d="M184.87,89.2v1.14h-5.3V89.2a.55.55,0,0,1,.48-.59l.12,0,.29-.06.58-.1V82.37l-.58-.1-.17,0-.12,0-.12,0a.56.56,0,0,1-.48-.6V80.46h3.84v8l.57.1.17,0,.12,0,.12,0A.55.55,0,0,1,184.87,89.2Zm-1.23-11a1.58,1.58,0,0,1-.33.48,1.72,1.72,0,0,1-.48.33,1.69,1.69,0,0,1-1.2,0,1.81,1.81,0,0,1-.46-.33,1.58,1.58,0,0,1-.33-.48,1.62,1.62,0,0,1-.11-.58,1.77,1.77,0,0,1,.11-.6,1.59,1.59,0,0,1,.33-.48,1.49,1.49,0,0,1,.46-.31,1.45,1.45,0,0,1,1.2,0,1.47,1.47,0,0,1,.48.31,1.55,1.55,0,0,1,.46,1.08A1.46,1.46,0,0,1,183.64,78.15Z"/><path class="cls-4" d="M192.4,80.67a4.28,4.28,0,0,1,1.54,1,4.47,4.47,0,0,1,1,1.6,5.86,5.86,0,0,1,.35,2.1,6,6,0,0,1-.35,2.12,4.77,4.77,0,0,1-1,1.62,4.07,4.07,0,0,1-1.54,1,5.48,5.48,0,0,1-2,.34,5.69,5.69,0,0,1-2-.34,4.15,4.15,0,0,1-1.54-1,4.45,4.45,0,0,1-1-1.62,6.24,6.24,0,0,1-.34-2.12,6.09,6.09,0,0,1,.34-2.1,4.73,4.73,0,0,1,1-1.6,4.37,4.37,0,0,1,1.54-1,5.67,5.67,0,0,1,2-.37A5.59,5.59,0,0,1,192.4,80.67Zm-.19,7.15a5.3,5.3,0,0,0,0-4.86,2.06,2.06,0,0,0-1.81-.85,2.15,2.15,0,0,0-1.85.85,4.14,4.14,0,0,0-.62,2.45,4.07,4.07,0,0,0,.62,2.41,2.12,2.12,0,0,0,1.85.82A2.06,2.06,0,0,0,192.21,87.82Z"/><path class="cls-4" d="M207.46,89.2v1.14h-3.83V84.06a2.19,2.19,0,0,0-.42-1.41,1.54,1.54,0,0,0-1.26-.5,2.42,2.42,0,0,0-1.15.29,4.34,4.34,0,0,0-1,.75v5.24l.56.1.28.06.12,0a.55.55,0,0,1,.48.59v1.14h-5.28V89.2a.55.55,0,0,1,.49-.59l.11,0,.29-.06.56-.1V82.37l-.56-.1-.16,0-.13,0-.11,0a.56.56,0,0,1-.49-.6V80.46h2.91a.59.59,0,0,1,.6.44l.17.77a4.18,4.18,0,0,1,.62-.56,4,4,0,0,1,.71-.42,4.47,4.47,0,0,1,.79-.29,5.08,5.08,0,0,1,.93-.1,3.49,3.49,0,0,1,1.44.27,3.09,3.09,0,0,1,1,.77,3.7,3.7,0,0,1,.64,1.2,4.85,4.85,0,0,1,.21,1.52v4.37l.58.1.16,0,.12,0,.12,0A.55.55,0,0,1,207.46,89.2Z"/><path class="cls-4" d="M214.57,80.59a3.73,3.73,0,0,1,1.35.89,4,4,0,0,1,.88,1.41,5.19,5.19,0,0,1,.33,1.88,2.49,2.49,0,0,1,0,.47.78.78,0,0,1-.07.26.32.32,0,0,1-.18.16.76.76,0,0,1-.27,0h-6.1a3.41,3.41,0,0,0,.82,2.23,2.55,2.55,0,0,0,1.89.71,3,3,0,0,0,1-.13,3.66,3.66,0,0,0,.74-.31,2.44,2.44,0,0,1,.28-.14l.28-.15a.78.78,0,0,1,.44-.13.6.6,0,0,1,.27.06.34.34,0,0,1,.17.15l.69.87a4.82,4.82,0,0,1-.88.79,6,6,0,0,1-1,.5,8.61,8.61,0,0,1-1.1.25,7.08,7.08,0,0,1-1.08.07,5.24,5.24,0,0,1-1.91-.32,4.6,4.6,0,0,1-1.54-1,4.85,4.85,0,0,1-1-1.66,6.55,6.55,0,0,1-.36-2.29,5.86,5.86,0,0,1,.32-1.89,4.49,4.49,0,0,1,1-1.56,4.3,4.3,0,0,1,1.48-1,5.29,5.29,0,0,1,3.72-.1Zm-3.29,2a2.89,2.89,0,0,0-.76,1.65H215a3,3,0,0,0-.13-.86,2.31,2.31,0,0,0-.39-.72,1.7,1.7,0,0,0-.65-.48,2.31,2.31,0,0,0-.93-.19A2.15,2.15,0,0,0,211.28,82.6Z"/><path class="cls-4" d="M224.91,87.2a3.36,3.36,0,0,1-.27,1.33,3,3,0,0,1-2,1.71,5,5,0,0,1-1.7.25,9.68,9.68,0,0,1-1.7-.15,7.42,7.42,0,0,1-1.44-.39V87.16h1.12a.42.42,0,0,1,.44.37c0,.14.07.52.14,1.13a5.58,5.58,0,0,0,1.56.16,2.39,2.39,0,0,0,.73-.1,1.53,1.53,0,0,0,.5-.27.88.88,0,0,0,.29-.36,1.45,1.45,0,0,0,.08-.47.81.81,0,0,0-.19-.55,2.08,2.08,0,0,0-.56-.39,5.08,5.08,0,0,0-.77-.29l-.91-.29a7.46,7.46,0,0,1-.89-.36,3.21,3.21,0,0,1-.78-.52,2,2,0,0,1-.54-.77,2.67,2.67,0,0,1-.22-1.12,2.83,2.83,0,0,1,.24-1.16,2.61,2.61,0,0,1,.71-1,3.5,3.5,0,0,1,1.17-.66,5.25,5.25,0,0,1,1.6-.25,7,7,0,0,1,1.29.11c.37.07.91.21,1.6.41h0v2.8h-1.1a.42.42,0,0,1-.44-.37,10,10,0,0,1-.13-1.08,4.17,4.17,0,0,0-1.16-.13,1.82,1.82,0,0,0-1.1.29.9.9,0,0,0-.4.79.84.84,0,0,0,.21.54,1.91,1.91,0,0,0,.54.36,4.75,4.75,0,0,0,.77.31l.89.27a8.29,8.29,0,0,1,.9.37,2.56,2.56,0,0,1,.77.5,2,2,0,0,1,.54.71A2.45,2.45,0,0,1,224.91,87.2Z"/><path class="cls-4" d="M237.53,90.3a.77.77,0,0,1-.39-.11.56.56,0,0,1-.21-.33l-.19-.91a5.07,5.07,0,0,1-1.37,1.1,3.75,3.75,0,0,1-1.83.42,3.11,3.11,0,0,1-1.46-.32,3.32,3.32,0,0,1-1.16-1,4.5,4.5,0,0,1-.75-1.57,8.19,8.19,0,0,1-.27-2.16,7,7,0,0,1,.29-2,4.9,4.9,0,0,1,.87-1.64,4,4,0,0,1,1.32-1.08,3.74,3.74,0,0,1,1.76-.4,3.43,3.43,0,0,1,1.42.27,3.37,3.37,0,0,1,1,.69V77.94l-.56-.1-.16,0-.12,0-.12,0a.55.55,0,0,1-.48-.59V76H239V88.41l.5.08.25.06.12,0a.55.55,0,0,1,.48.59V90.3Zm-1.79-8a2.8,2.8,0,0,0-1-.21,2.32,2.32,0,0,0-1,.21,2,2,0,0,0-.75.61,3.46,3.46,0,0,0-.46,1,6,6,0,0,0-.15,1.49,6.58,6.58,0,0,0,.13,1.48,2.65,2.65,0,0,0,.4,1,1.48,1.48,0,0,0,.62.56,1.93,1.93,0,0,0,.85.18,2.44,2.44,0,0,0,1.27-.31,3.72,3.72,0,0,0,1-.89V83A2.22,2.22,0,0,0,235.74,82.29Z"/><path class="cls-4" d="M247.41,80.59a3.73,3.73,0,0,1,1.35.89,4,4,0,0,1,.88,1.41,5.19,5.19,0,0,1,.33,1.88,2.49,2.49,0,0,1,0,.47.55.55,0,0,1-.08.26.27.27,0,0,1-.17.16.76.76,0,0,1-.27,0h-6.1a3.41,3.41,0,0,0,.82,2.23,2.55,2.55,0,0,0,1.89.71,3,3,0,0,0,1-.13,3.66,3.66,0,0,0,.74-.31,2.44,2.44,0,0,1,.28-.14l.27-.15a.84.84,0,0,1,.45-.13.6.6,0,0,1,.27.06.34.34,0,0,1,.17.15l.69.87a4.82,4.82,0,0,1-.88.79,6,6,0,0,1-1,.5,8.61,8.61,0,0,1-1.1.25,7.08,7.08,0,0,1-1.08.07,5.24,5.24,0,0,1-1.91-.32,4.6,4.6,0,0,1-1.54-1,4.85,4.85,0,0,1-1-1.66,6.55,6.55,0,0,1-.36-2.29,5.86,5.86,0,0,1,.32-1.89,4.49,4.49,0,0,1,1-1.56,4.3,4.3,0,0,1,1.48-1,5.29,5.29,0,0,1,3.72-.1Zm-3.3,2a3,3,0,0,0-.75,1.65h4.47a3,3,0,0,0-.13-.86,2.31,2.31,0,0,0-.39-.72,1.7,1.7,0,0,0-.65-.48,2.31,2.31,0,0,0-.93-.19A2.19,2.19,0,0,0,244.11,82.6Z"/><path class="cls-4" d="M255.92,89.2v1.14h-5.3V89.2a.56.56,0,0,1,.49-.59l.11,0,.29-.06.58-.1V77.94l-.58-.1-.16,0-.13,0-.11,0a.56.56,0,0,1-.49-.59V76h3.84v12.4l.58.1.28.06.12,0A.55.55,0,0,1,255.92,89.2Z"/><path class="cls-4" d="M266,78.17a.27.27,0,0,0-.12,0l-.16,0-.56.1V88.43l.56.1.16,0,.12,0,.12,0a.55.55,0,0,1,.48.59v1.14h-5.51V89.2a.55.55,0,0,1,.48-.59l.12,0,.29-.06.58-.1V78.32l-.58-.1-.16,0a.32.32,0,0,0-.13,0l-.12,0a.57.57,0,0,1-.48-.6V76.41h5.51v1.14a.57.57,0,0,1-.48.6Z"/><path class="cls-4" d="M278.53,80.84a4.9,4.9,0,0,1-.34,1.87,4,4,0,0,1-1,1.45,4.9,4.9,0,0,1-1.7.94,7.36,7.36,0,0,1-2.37.33h-1.71v3l.57.1.17,0,.12,0,.12,0a.55.55,0,0,1,.48.59v1.14h-5.51V89.2a.55.55,0,0,1,.48-.59l.12,0,.29-.06.58-.1V78.32l-.58-.1-.17,0a.25.25,0,0,0-.12,0l-.12,0a.57.57,0,0,1-.48-.6V76.41h5.76a8.07,8.07,0,0,1,2.43.33,4.62,4.62,0,0,1,1.67.93,3.59,3.59,0,0,1,1,1.38A5,5,0,0,1,278.53,80.84Zm-2.6,0a2.73,2.73,0,0,0-.17-1,2.23,2.23,0,0,0-.52-.77,2.41,2.41,0,0,0-.87-.48,3.82,3.82,0,0,0-1.25-.17h-1.71v5h1.71a3.8,3.8,0,0,0,1.25-.18,2.43,2.43,0,0,0,.87-.5,1.86,1.86,0,0,0,.52-.81A3,3,0,0,0,275.93,80.84Z"/><path class="cls-4" d="M292.5,77.55a.57.57,0,0,1-.48.6l-.12,0a.32.32,0,0,0-.13,0l-.16,0-.56.1-3.93,6.61v3.5l.56.1.17,0,.12,0,.12,0a.55.55,0,0,1,.48.59v1.14h-5.51V89.2a.55.55,0,0,1,.48-.59l.14,0,.28-.06.56-.1v-3.5l-3.93-6.61-.57-.1-.17,0a.25.25,0,0,0-.12,0l-.12,0a.57.57,0,0,1-.48-.6V76.41h5.2v1.14a.57.57,0,0,1-.48.6l-.08,0-.19,0-.27.06,1.85,3.37c.1.18.23.44.38.77.07.14.12.28.17.41a3,3,0,0,0,.12.33,7.83,7.83,0,0,1,.29-.74c.16-.33.28-.59.39-.77l1.83-3.37-.29-.06-.1,0a.11.11,0,0,0-.08,0s-.05,0-.09,0a.57.57,0,0,1-.48-.6V76.41h5.2Z"/><path class="cls-4" d="M302.26,86a5.1,5.1,0,0,1-.32,1.75,4,4,0,0,1-.95,1.44,4.31,4.31,0,0,1-1.52,1,5.59,5.59,0,0,1-2,.34h-.29a12.44,12.44,0,0,1-4-.73V86.18h1.1a.4.4,0,0,1,.44.35c0,.16.1.7.18,1.59a9.69,9.69,0,0,0,2.64.25,2.55,2.55,0,0,0,1.71-.52,1.86,1.86,0,0,0,.6-1.5,1.46,1.46,0,0,0-.27-.9,1.85,1.85,0,0,0-.74-.58,5.72,5.72,0,0,0-1-.41l-.42-.11-.75-.23a12.45,12.45,0,0,1-1.18-.46,4.23,4.23,0,0,1-1-.72,2.87,2.87,0,0,1-.71-1.08,4.21,4.21,0,0,1-.29-1.59,3.75,3.75,0,0,1,.31-1.49,3.52,3.52,0,0,1,.89-1.29,4.78,4.78,0,0,1,1.42-.88,5.18,5.18,0,0,1,2-.35,10.5,10.5,0,0,1,4,.79v3.56h-1.09a.44.44,0,0,1-.45-.36c0-.18-.09-.7-.17-1.56a5.85,5.85,0,0,0-2.25-.31,3.71,3.71,0,0,0-.93.11,2.07,2.07,0,0,0-.67.37,1.62,1.62,0,0,0-.43.56,1.67,1.67,0,0,0-.13.71,1.24,1.24,0,0,0,.29.81,2.18,2.18,0,0,0,.71.56,7.55,7.55,0,0,0,1,.42l1.18.39q.4.14,1.17.48a3.63,3.63,0,0,1,1,.69,2.92,2.92,0,0,1,.73,1A3.48,3.48,0,0,1,302.26,86Z"/></g></g></svg>