<svg width="41" height="41" viewBox="0 0 41 41" fill="none" xmlns="http://www.w3.org/2000/svg">
<path d="M20.4997 0.0834961C9.22968 0.0834961 0.0830078 9.23016 0.0830078 20.5002C0.0830078 31.7702 9.22968 40.9168 20.4997 40.9168C31.7697 40.9168 40.9163 31.7702 40.9163 20.5002C40.9163 9.23016 31.7697 0.0834961 20.4997 0.0834961ZM4.16634 20.5002C4.16634 16.5189 5.59551 12.8643 7.98426 10.0264L14.3747 16.4168V18.4585C14.3747 20.7043 16.2122 22.5418 18.458 22.5418V33.9547C18.458 34.506 18.6826 35.0164 19.0501 35.4043L20.4997 36.8335C11.4755 36.8335 4.16634 29.5243 4.16634 20.5002ZM22.5413 36.711V32.7502L30.1976 21.276C30.5243 20.7656 30.708 20.1735 30.708 19.5814V17.4377C30.708 16.3147 29.7893 15.396 28.6663 15.396H25.6038L22.7455 11.8231C21.9697 10.8635 20.8059 10.2918 19.5605 10.2918H12.333V6.35141C14.8153 4.91654 17.6325 4.16292 20.4997 4.16683C29.5034 4.16683 36.833 11.4964 36.833 20.5002C36.833 28.8097 30.5855 35.6902 22.5413 36.711Z" fill="#73A580"/>
</svg>
