<svg width="22" height="23" viewBox="0 0 22 23" fill="none" xmlns="http://www.w3.org/2000/svg">
<path d="M20.6597 9.78244C20.3374 9.78244 20.0283 9.91127 19.8004 10.1406C19.5725 10.3699 19.4444 10.6809 19.4444 11.0052V18.3421C19.4444 18.6664 19.3164 18.9774 19.0885 19.2067C18.8606 19.4361 18.5515 19.5649 18.2292 19.5649H3.64583C3.32352 19.5649 3.01441 19.4361 2.7865 19.2067C2.55859 18.9774 2.43056 18.6664 2.43056 18.3421V3.66842C2.43056 3.34411 2.55859 3.03308 2.7865 2.80376C3.01441 2.57444 3.32352 2.44561 3.64583 2.44561H10.9375C11.2598 2.44561 11.5689 2.31678 11.7968 2.08746C12.0247 1.85814 12.1528 1.54711 12.1528 1.22281C12.1528 0.898497 12.0247 0.587472 11.7968 0.358151C11.5689 0.128831 11.2598 0 10.9375 0H3.64583C2.6789 0 1.75157 0.386493 1.06784 1.07445C0.384114 1.76242 0 2.69549 0 3.66842V18.3421C0 19.315 0.384114 20.2481 1.06784 20.936C1.75157 21.624 2.6789 22.0105 3.64583 22.0105H18.2292C19.1961 22.0105 20.1234 21.624 20.8072 20.936C21.4909 20.2481 21.875 19.315 21.875 18.3421V11.0052C21.875 10.6809 21.747 10.3699 21.5191 10.1406C21.2911 9.91127 20.982 9.78244 20.6597 9.78244Z" fill="#73A580"/>
<path d="M15.7983 2.44566H17.7185L10.0743 10.125C9.96042 10.2387 9.87001 10.3739 9.80831 10.523C9.74661 10.672 9.71484 10.8318 9.71484 10.9932C9.71484 11.1547 9.74661 11.3145 9.80831 11.4635C9.87001 11.6125 9.96042 11.7478 10.0743 11.8614C10.1873 11.976 10.3217 12.067 10.4698 12.1291C10.6179 12.1912 10.7767 12.2231 10.9372 12.2231C11.0976 12.2231 11.2565 12.1912 11.4045 12.1291C11.5526 12.067 11.6871 11.976 11.8 11.8614L19.4442 4.18207V6.11414C19.4442 6.43846 19.5722 6.74949 19.8001 6.97881C20.028 7.20814 20.3372 7.33697 20.6595 7.33697C20.9818 7.33697 21.2909 7.20814 21.5188 6.97881C21.7467 6.74949 21.8748 6.43846 21.8748 6.11414V1.22283C21.8748 0.898514 21.7467 0.587483 21.5188 0.358158C21.2909 0.128833 20.9818 0 20.6595 0H15.7983C15.476 0 15.1669 0.128833 14.939 0.358158C14.7111 0.587483 14.583 0.898514 14.583 1.22283C14.583 1.54714 14.7111 1.85817 14.939 2.0875C15.1669 2.31682 15.476 2.44566 15.7983 2.44566Z" fill="#73A580"/>
</svg>
