<svg width="123" height="42" viewBox="0 0 123 42" fill="none" xmlns="http://www.w3.org/2000/svg">
<path d="M20.3748 14.9268C24.6 15.8467 26.7127 18.0906 26.7127 21.6585C26.7127 22.9408 26.4575 24.1254 25.947 25.2125C25.4366 26.3275 24.7135 27.2753 23.7777 28.0557C22.8986 28.8084 21.736 29.4216 20.2897 29.8955C18.9286 30.3415 17.3406 30.5645 15.5257 30.5645H0.680578V28.0976C0.680578 27.4007 1.03505 26.9686 1.74398 26.8014L1.9992 26.7596C2.08427 26.7596 2.16934 26.7456 2.25441 26.7178C2.36784 26.6899 2.49545 26.662 2.63724 26.6341L3.91332 26.4251V4.47387L2.63724 4.26481C2.49545 4.23693 2.36784 4.20906 2.25441 4.18118C2.16934 4.15331 2.08427 4.13937 1.9992 4.13937L1.74398 4.09756C1.03505 3.93031 0.680578 3.49826 0.680578 2.80139V0.334493H14.5048C16.5465 0.334493 18.2622 0.515678 19.6517 0.878047C21.1263 1.26829 22.3031 1.81185 23.1822 2.50871C24.0896 3.20557 24.756 4.05575 25.1814 5.05923C25.6067 6.06272 25.8194 7.16376 25.8194 8.36237C25.8194 9.11498 25.7202 9.79791 25.5217 10.4111C25.3232 11.0244 24.9829 11.6376 24.5008 12.2509C24.0754 12.7526 23.5083 13.2544 22.7994 13.7561C22.1755 14.1742 21.3673 14.5645 20.3748 14.9268ZM14.2071 13.4216C16.1637 13.4216 17.6383 13.0732 18.6308 12.3763C19.6233 11.6794 20.1196 10.5645 20.1196 9.03136C20.1196 7.47038 19.6659 6.3554 18.7584 5.68641C17.8793 5.01742 16.4615 4.68293 14.5048 4.68293H9.61316V13.4216H14.2071ZM20.7576 23.331C20.9561 22.8293 21.0554 22.23 21.0554 21.5331C21.0554 20.9477 20.9419 20.3624 20.7151 19.777C20.4882 19.2195 20.1621 18.7735 19.7368 18.439C19.3114 18.1045 18.7301 17.8258 17.9928 17.6028C17.3122 17.4077 16.4473 17.3101 15.3981 17.3101H9.61316V26.1742H15.4406C16.5182 26.1742 17.4114 26.0488 18.1204 25.7979C18.8293 25.547 19.3965 25.2125 19.8218 24.7944C20.2755 24.3484 20.5875 23.8606 20.7576 23.331Z" fill="white"/>
<path d="M39.7939 4.13937C39.7088 4.13937 39.6095 4.15331 39.4961 4.18118C39.411 4.20906 39.2976 4.23693 39.1558 4.26481L37.9223 4.47387V26.4251L39.1558 26.6341C39.2976 26.662 39.411 26.6899 39.4961 26.7178C39.6095 26.7456 39.7088 26.7596 39.7939 26.7596L40.0491 26.8014C40.758 26.9686 41.1125 27.4007 41.1125 28.0976V30.5645H28.9471V28.0976C28.9471 27.4007 29.3016 26.9686 30.0106 26.8014L30.2658 26.7596L30.9038 26.6341L32.1799 26.4251V4.47387L30.9038 4.26481C30.762 4.23693 30.6344 4.20906 30.521 4.18118C30.4359 4.15331 30.3508 4.13937 30.2658 4.13937L30.0106 4.09756C29.3016 3.93031 28.9471 3.49826 28.9471 2.80139V0.334493H41.1125V2.80139C41.1125 3.49826 40.758 3.93031 40.0491 4.09756L39.7939 4.13937Z" fill="white"/>
<path d="M67.6198 6.06272C68.1019 7.26132 68.3429 8.55749 68.3429 9.95122C68.3429 11.4286 68.0877 12.7805 67.5772 14.007C67.0668 15.2334 66.3295 16.2787 65.3654 17.1429C64.4296 17.9791 63.1818 18.662 61.6222 19.1916C60.2043 19.6655 58.4603 19.9024 56.3902 19.9024H52.6045V26.4251L53.8806 26.6341C54.0224 26.662 54.1358 26.6899 54.2209 26.7178C54.3343 26.7456 54.4336 26.7596 54.5187 26.7596L54.7739 26.8014C55.4828 26.9686 55.8373 27.4007 55.8373 28.0976V30.5645H43.672V28.0976C43.672 27.4007 44.0264 26.9686 44.7354 26.8014L44.9906 26.7596L45.6286 26.6341L46.9047 26.4251V4.47387L45.6286 4.26481C45.4868 4.23693 45.3592 4.20906 45.2458 4.18118C45.1607 4.15331 45.0756 4.13937 44.9906 4.13937L44.7354 4.09756C44.0264 3.93031 43.672 3.49826 43.672 2.80139V0.334493H56.3902C58.432 0.334493 60.2185 0.571427 61.7498 1.0453C63.1677 1.49129 64.4012 2.16028 65.4504 3.05226C66.4146 3.8885 67.1377 4.89199 67.6198 6.06272ZM62.2177 12.2927C62.4729 11.6237 62.6005 10.8432 62.6005 9.95122C62.6005 9.17073 62.4729 8.44599 62.2177 7.777C61.9625 7.13589 61.5797 6.5784 61.0692 6.10453C60.5871 5.65854 59.9491 5.3101 59.1551 5.05923C58.3894 4.80836 57.4678 4.68293 56.3902 4.68293H52.6045V15.5122H56.3902C57.4678 15.5122 58.3894 15.3868 59.1551 15.1359C59.9491 14.8571 60.5871 14.4948 61.0692 14.0488C61.5797 13.6028 61.9625 13.0174 62.2177 12.2927Z" fill="white"/>
<path d="M100.042 2.80139C100.042 3.49826 99.6878 3.93031 98.9789 4.09756L98.7236 4.13937C98.6386 4.13937 98.5393 4.15331 98.4259 4.18118C98.3408 4.20906 98.2274 4.23693 98.0856 4.26481L96.8521 4.47387L88.1747 18.8153V26.4251L89.4082 26.6341C89.55 26.662 89.6635 26.6899 89.7485 26.7178C89.862 26.7456 89.9612 26.7596 90.0463 26.7596L90.3015 26.8014C91.0104 26.9686 91.3649 27.4007 91.3649 28.0976V30.5645H79.1996V28.0976C79.1996 27.4007 79.554 26.9686 80.263 26.8014C80.3764 26.8014 80.4757 26.7875 80.5607 26.7596L81.1988 26.6341L82.4323 26.4251V18.8153L73.7549 4.47387L72.4789 4.26481C72.3371 4.23693 72.2095 4.20906 72.096 4.18118C72.011 4.15331 71.9259 4.13937 71.8408 4.13937L71.5856 4.09756C70.8767 3.93031 70.5222 3.49826 70.5222 2.80139V0.334493H82.007V2.80139C82.007 3.49826 81.6525 3.93031 80.9436 4.09756L80.7734 4.13937L80.348 4.26481L79.7525 4.39024L83.836 11.7073C84.0629 12.0976 84.3464 12.6551 84.6867 13.3798C84.8285 13.6864 84.942 13.9791 85.027 14.2578C85.1405 14.5366 85.2397 14.7735 85.3248 14.9686C85.4666 14.5226 85.6792 13.993 85.9628 13.3798C86.3031 12.6551 86.5867 12.0976 86.8135 11.7073L90.8545 4.39024L90.2164 4.26481C90.1314 4.23693 90.0605 4.20906 90.0037 4.18118C89.947 4.15331 89.8903 4.13937 89.8336 4.13937C89.7769 4.1115 89.706 4.09756 89.6209 4.09756C88.912 3.93031 88.5575 3.49826 88.5575 2.80139V0.334493H100.042V2.80139Z" fill="white"/>
<path d="M121.846 17.8955C122.243 18.7038 122.441 19.777 122.441 21.115C122.441 22.3972 122.2 23.6655 121.718 24.9199C121.236 26.1463 120.541 27.1916 119.634 28.0557C118.726 28.9477 117.606 29.6446 116.273 30.1463C114.969 30.6481 113.466 30.899 111.765 30.899H111.127C108.433 30.899 105.498 30.3693 102.322 29.3101V21.5331H104.746C105.285 21.5331 105.611 21.784 105.724 22.2857C105.81 22.6481 105.937 23.8049 106.107 25.7561C107.298 26.1185 109.241 26.2997 111.935 26.2997C113.551 26.2997 114.813 25.9233 115.72 25.1707C116.6 24.4181 117.039 23.331 117.039 21.9094C117.039 21.1289 116.841 20.4739 116.444 19.9443C116.075 19.4425 115.536 19.0244 114.827 18.6899C114.118 18.3275 113.367 18.0348 112.573 17.8118L111.637 17.561L109.978 17.0592C109.127 16.7805 108.262 16.446 107.383 16.0557C106.589 15.6934 105.824 15.1777 105.086 14.5087C104.406 13.8955 103.881 13.115 103.513 12.1672C103.087 11.1359 102.875 9.97909 102.875 8.69686C102.875 7.55401 103.101 6.48084 103.555 5.47735C103.981 4.41812 104.633 3.48432 105.512 2.67596C106.334 1.92334 107.383 1.28223 108.659 0.752611C109.907 0.25087 111.339 0 112.956 0C115.933 0 118.868 0.571428 121.761 1.71428V9.44948H119.336C118.826 9.44948 118.499 9.18467 118.358 8.65505C118.273 8.26481 118.145 7.13589 117.975 5.26829C116.954 4.8223 115.295 4.5993 112.998 4.5993C112.233 4.5993 111.552 4.68293 110.956 4.85017C110.304 5.07317 109.808 5.33798 109.468 5.6446C109.042 6.00697 108.73 6.41115 108.532 6.85714C108.333 7.27526 108.234 7.79094 108.234 8.40418C108.234 9.07317 108.447 9.65854 108.872 10.1603C109.298 10.662 109.822 11.0662 110.446 11.3728C111.268 11.7631 112.034 12.0697 112.743 12.2927C113.027 12.3763 113.891 12.6551 115.338 13.1289C115.933 13.324 116.798 13.6725 117.932 14.1742C118.783 14.5366 119.549 15.0383 120.229 15.6794C120.967 16.3484 121.505 17.0871 121.846 17.8955Z" fill="white"/>
<path d="M3.93884 37.3672C4.78389 37.5512 5.20642 38 5.20642 38.7136C5.20642 38.97 5.15538 39.207 5.05329 39.4244C4.9512 39.6474 4.80658 39.8369 4.61942 39.993C4.44361 40.1436 4.21107 40.2662 3.92183 40.361C3.6496 40.4502 3.332 40.4948 2.96902 40.4948H0V40.0014C0 39.862 0.0708935 39.7756 0.212681 39.7422L0.263724 39.7338C0.280738 39.7338 0.297753 39.731 0.314767 39.7254C0.337453 39.7199 0.362975 39.7143 0.391332 39.7087L0.646549 39.6669V35.2767L0.391332 35.2348C0.362975 35.2293 0.337453 35.2237 0.314767 35.2181C0.297753 35.2125 0.280738 35.2098 0.263724 35.2098L0.212681 35.2014C0.0708935 35.1679 0 35.0815 0 34.9422V34.4488H2.76485C3.17319 34.4488 3.51632 34.485 3.79422 34.5575C4.08914 34.6355 4.3245 34.7443 4.50032 34.8836C4.68181 35.023 4.81509 35.193 4.90016 35.3937C4.98523 35.5944 5.02777 35.8146 5.02777 36.0544C5.02777 36.2049 5.00792 36.3415 4.96822 36.4641C4.92852 36.5868 4.86046 36.7094 4.76404 36.8321C4.67897 36.9324 4.56554 37.0328 4.42376 37.1331C4.29898 37.2167 4.13735 37.2948 3.93884 37.3672ZM2.7053 37.0662C3.09663 37.0662 3.39155 36.9965 3.59005 36.8571C3.78855 36.7178 3.8878 36.4948 3.8878 36.1882C3.8878 35.876 3.79706 35.653 3.61557 35.5192C3.43975 35.3854 3.15618 35.3185 2.76485 35.3185H1.78652V37.0662H2.7053ZM4.01541 39.0481C4.05511 38.9477 4.07496 38.8279 4.07496 38.6885C4.07496 38.5714 4.05227 38.4544 4.0069 38.3373C3.96153 38.2258 3.89631 38.1366 3.81124 38.0697C3.72616 38.0028 3.6099 37.947 3.46244 37.9024C3.32632 37.8634 3.15334 37.8439 2.9435 37.8439H1.78652V39.6167H2.95201C3.16752 39.6167 3.34617 39.5916 3.48796 39.5415C3.62975 39.4913 3.74318 39.4244 3.82825 39.3408C3.91899 39.2516 3.98138 39.154 4.01541 39.0481Z" fill="white"/>
<path d="M9.37948 39.7338C9.52126 39.7672 9.59216 39.8537 9.59216 39.993V40.4864H8.58831C8.48055 40.4864 8.40115 40.4725 8.3501 40.4446C8.29339 40.4223 8.25085 40.361 8.2225 40.2606L8.12892 39.9596C8.01549 40.0655 7.90773 40.1519 7.80564 40.2188C7.72624 40.2746 7.61565 40.3359 7.47386 40.4028C7.37177 40.4474 7.25267 40.4836 7.11656 40.5115C6.97477 40.5394 6.83298 40.5533 6.6912 40.5533C6.50404 40.5533 6.33389 40.5282 6.18076 40.4781C6.01629 40.4223 5.88301 40.3498 5.78092 40.2606C5.66182 40.1547 5.57391 40.0321 5.5172 39.8927C5.45481 39.7422 5.42362 39.5749 5.42362 39.3909C5.42362 39.2237 5.46616 39.062 5.55123 38.9059C5.6363 38.7443 5.78092 38.6021 5.9851 38.4794C6.20061 38.3456 6.46717 38.2397 6.78477 38.1617C7.11939 38.0781 7.53625 38.0362 8.03534 38.0362V37.7854C8.03534 37.5066 7.97295 37.292 7.84818 37.1415C7.72908 37.0021 7.55043 36.9324 7.31222 36.9324C7.13074 36.9324 6.98895 36.9519 6.88686 36.9909C6.75642 37.0411 6.65717 37.0857 6.58911 37.1247L6.35941 37.2502C6.29703 37.2892 6.22046 37.3087 6.12972 37.3087C6.05599 37.3087 5.9936 37.292 5.94256 37.2585C5.90853 37.2362 5.86883 37.1916 5.82346 37.1247L5.62779 36.7986C6.13823 36.3415 6.74224 36.1129 7.43983 36.1129C7.69505 36.1129 7.92474 36.1547 8.12892 36.2383C8.32742 36.322 8.49473 36.4362 8.63084 36.5812C8.78397 36.754 8.89173 36.9296 8.95412 37.108C9.02217 37.3087 9.0562 37.5317 9.0562 37.777V39.6753L9.2859 39.7171L9.37948 39.7338ZM8.03534 38.6634C7.71773 38.6634 7.46252 38.6829 7.26969 38.722C7.05984 38.7665 6.89253 38.8167 6.76776 38.8725C6.64299 38.9282 6.55508 38.9951 6.50404 39.0732C6.45299 39.1456 6.42747 39.2321 6.42747 39.3324C6.42747 39.522 6.48135 39.653 6.58911 39.7254C6.70254 39.8035 6.84433 39.8425 7.01447 39.8425C7.12223 39.8425 7.22148 39.8341 7.31222 39.8174C7.40864 39.8007 7.49655 39.77 7.57595 39.7254C7.67803 39.6697 7.7546 39.6223 7.80564 39.5833C7.88504 39.522 7.96161 39.4551 8.03534 39.3826V38.6634Z" fill="white"/>
<path d="M14.7942 39.7422C14.936 39.7756 15.0069 39.862 15.0069 40.0014V40.4948H13.3139V37.7686C13.3139 37.5122 13.2515 37.3087 13.1268 37.1582C13.0077 37.0132 12.8234 36.9408 12.5738 36.9408C12.3923 36.9408 12.2222 36.9826 12.0634 37.0662C11.8932 37.1554 11.7429 37.2641 11.6125 37.3923V39.6669L11.8592 39.7087L11.9868 39.7338L12.0379 39.7422C12.1796 39.7756 12.2505 39.862 12.2505 40.0014V40.4948H9.91955V40.0014C9.91955 39.862 9.99045 39.7756 10.1322 39.7422L10.1833 39.7338L10.3109 39.7087L10.5576 39.6669V37.0328L10.3109 36.9909C10.2825 36.9854 10.257 36.9798 10.2343 36.9742C10.2173 36.9686 10.2003 36.9659 10.1833 36.9659L10.1322 36.9575C9.99045 36.924 9.91955 36.8376 9.91955 36.6983V36.2049H11.2041C11.3346 36.2049 11.4225 36.269 11.4679 36.3972L11.5444 36.7317C11.6238 36.6425 11.7146 36.5617 11.8167 36.4892C11.8961 36.4279 12.001 36.3665 12.1314 36.3052C12.2789 36.2383 12.3952 36.1965 12.4802 36.1798C12.622 36.1519 12.7581 36.138 12.8886 36.138C13.1381 36.138 13.3508 36.177 13.5266 36.2551C13.6911 36.3219 13.8442 36.4335 13.986 36.5896C14.1051 36.7289 14.1987 36.9017 14.2667 37.108C14.3291 37.292 14.3603 37.5122 14.3603 37.7686V39.6669L14.6155 39.7087C14.6439 39.7143 14.6666 39.7199 14.6836 39.7254C14.7063 39.731 14.7261 39.7338 14.7431 39.7338L14.7942 39.7422Z" fill="white"/>
<path d="M18.9605 39.8509C18.8244 40.0014 18.6996 40.1157 18.5862 40.1937C18.4728 40.2662 18.331 40.3387 18.1609 40.4112C18.0361 40.4558 17.8858 40.492 17.71 40.5199C17.5739 40.5422 17.4179 40.5533 17.2421 40.5533C16.9642 40.5533 16.7118 40.5059 16.4849 40.4112C16.2467 40.3108 16.0397 40.1659 15.8639 39.9763C15.6767 39.7756 15.535 39.5443 15.4385 39.2822C15.3365 39.0035 15.2854 38.6885 15.2854 38.3373C15.2854 38.0195 15.3308 37.7296 15.4215 37.4676C15.5179 37.2 15.6541 36.9659 15.8299 36.7652C16.0057 36.57 16.2269 36.4167 16.4934 36.3052C16.7657 36.1937 17.0691 36.138 17.4037 36.138C17.7667 36.138 18.2261 36.2411 18.7819 36.4474L18.7734 37.7686H18.2885C18.1864 37.7686 18.1212 37.7157 18.0928 37.6098L18.0247 37.0077C17.8149 36.9519 17.6277 36.924 17.4633 36.924C17.2761 36.924 17.1145 36.9575 16.9784 37.0244C16.8366 37.0913 16.7231 37.1833 16.6381 37.3003C16.536 37.4397 16.4651 37.5902 16.4254 37.7519C16.38 37.9415 16.3573 38.1366 16.3573 38.3373C16.3573 38.5659 16.3828 38.7693 16.4339 38.9477C16.4849 39.1317 16.5558 39.2822 16.6466 39.3993C16.743 39.5164 16.8564 39.6084 16.9869 39.6753C17.1286 39.7366 17.2789 39.7672 17.4377 39.7672C17.6136 39.7672 17.7497 39.7477 17.8461 39.7087C17.9709 39.6585 18.0588 39.6139 18.1098 39.5749C18.1382 39.5526 18.1665 39.5331 18.1949 39.5164C18.2289 39.4941 18.2629 39.469 18.297 39.4411C18.3423 39.4021 18.3991 39.3826 18.4671 39.3826C18.5579 39.3826 18.6231 39.4132 18.6628 39.4746L18.9605 39.8509Z" fill="white"/>
<path d="M21.3594 36.138C21.6714 36.138 21.9663 36.1909 22.2442 36.2969C22.5164 36.4028 22.7433 36.5477 22.9248 36.7317C23.1063 36.9157 23.248 37.147 23.3501 37.4258C23.4522 37.699 23.5033 38.0028 23.5033 38.3373C23.5033 38.6718 23.4522 38.9784 23.3501 39.2571C23.2424 39.5415 23.1006 39.7756 22.9248 39.9596C22.7376 40.1547 22.5107 40.3024 22.2442 40.4028C21.9833 40.5031 21.6884 40.5533 21.3594 40.5533C21.0305 40.5533 20.7327 40.5031 20.4662 40.4028C20.1996 40.3024 19.9728 40.1547 19.7856 39.9596C19.5871 39.7589 19.4396 39.5247 19.3432 39.2571C19.2411 38.9784 19.1901 38.6718 19.1901 38.3373C19.1901 38.0028 19.2411 37.699 19.3432 37.4258C19.4396 37.1693 19.5871 36.938 19.7856 36.7317C19.9671 36.5477 20.1939 36.4028 20.4662 36.2969C20.7441 36.1909 21.0418 36.138 21.3594 36.138ZM21.3594 39.7589C21.7224 39.7589 21.989 39.639 22.1591 39.3993C22.3349 39.1484 22.4228 38.7972 22.4228 38.3456C22.4228 37.8941 22.3349 37.5429 22.1591 37.292C21.989 37.0467 21.7224 36.924 21.3594 36.924C20.9965 36.924 20.7242 37.0467 20.5427 37.292C20.3613 37.5373 20.2705 37.8913 20.2705 38.354C20.2705 38.8056 20.3613 39.154 20.5427 39.3993C20.7186 39.639 20.9908 39.7589 21.3594 39.7589Z" fill="white"/>
<path d="M29.1055 40.4781C29.0431 40.4781 28.9864 40.4613 28.9354 40.4279C28.89 40.4 28.8588 40.3526 28.8418 40.2857L28.7567 39.8927C28.5866 40.0822 28.3853 40.2411 28.1527 40.3693C27.9259 40.492 27.6565 40.5533 27.3445 40.5533C27.1007 40.5533 26.8851 40.5059 26.698 40.4112C26.4995 40.3108 26.3293 40.1686 26.1876 39.9847C26.0458 39.8063 25.9352 39.5777 25.8558 39.299C25.7764 39.0146 25.7367 38.7024 25.7367 38.3624C25.7367 38.0446 25.7792 37.7491 25.8643 37.476C25.9437 37.2195 26.0713 36.9826 26.2471 36.7652C26.4002 36.5756 26.5959 36.4195 26.8341 36.2969C27.061 36.1798 27.319 36.1213 27.6083 36.1213C27.8521 36.1213 28.062 36.1603 28.2378 36.2383C28.425 36.322 28.5781 36.4223 28.6972 36.5394V35.1094L28.4505 35.0676C28.4221 35.062 28.3966 35.0564 28.3739 35.0509C28.3569 35.0453 28.3399 35.0425 28.3229 35.0425L28.2718 35.0341C28.13 35.0007 28.0591 34.9143 28.0591 34.7749V34.2815H29.7521V39.6585L29.9733 39.692L30.0839 39.7171L30.1349 39.7254C30.2767 39.7589 30.3476 39.8453 30.3476 39.9847V40.4781H29.1055ZM28.7057 37.3003C28.5923 37.161 28.4618 37.0606 28.3144 36.9993C28.1612 36.938 28.0081 36.9073 27.855 36.9073C27.7075 36.9073 27.5657 36.938 27.4296 36.9993C27.3048 37.0551 27.1942 37.1443 27.0978 37.2669C27.0128 37.384 26.9447 37.5345 26.8937 37.7185C26.8483 37.8801 26.8256 38.0948 26.8256 38.3624C26.8256 38.63 26.8454 38.8446 26.8851 39.0063C26.9248 39.1735 26.9844 39.3129 27.0638 39.4244C27.1432 39.5415 27.2339 39.6223 27.336 39.6669C27.4438 39.7171 27.5686 39.7422 27.7103 39.7422C27.9372 39.7422 28.1244 39.6976 28.2718 39.6084C28.4306 39.5136 28.5752 39.3854 28.7057 39.2237V37.3003Z" fill="white"/>
<path d="M32.7147 36.138C32.9926 36.138 33.2449 36.1798 33.4718 36.2634C33.6873 36.3415 33.8858 36.4697 34.0673 36.6481C34.2318 36.8098 34.3622 37.0132 34.4586 37.2585C34.555 37.5094 34.6033 37.7826 34.6033 38.0781C34.6033 38.145 34.5976 38.2118 34.5862 38.2787C34.5749 38.3401 34.5636 38.3791 34.5522 38.3958C34.5409 38.4237 34.5153 38.446 34.4756 38.4627C34.453 38.4739 34.4133 38.4794 34.3565 38.4794H31.6598C31.6938 38.9199 31.8157 39.2432 32.0256 39.4495C32.2354 39.6557 32.5133 39.7589 32.8593 39.7589C33.0351 39.7589 33.1797 39.7394 33.2931 39.7003C33.4179 39.6613 33.5257 39.6167 33.6164 39.5666C33.6561 39.5443 33.6958 39.5247 33.7355 39.508C33.7809 39.4857 33.8234 39.4634 33.8631 39.4411C33.9255 39.4021 33.9907 39.3826 34.0588 39.3826C34.1042 39.3826 34.1439 39.3909 34.1779 39.4077C34.2063 39.4188 34.2318 39.4411 34.2545 39.4746L34.5607 39.8509C34.4303 39.9958 34.2998 40.1101 34.1694 40.1937C34.0163 40.2885 33.866 40.361 33.7185 40.4112C33.5767 40.4558 33.4151 40.492 33.2336 40.5199C33.0918 40.5422 32.933 40.5533 32.7572 40.5533C32.4453 40.5533 32.1645 40.5059 31.915 40.4112C31.6654 40.3164 31.4386 40.1686 31.2344 39.9679C31.0416 39.7784 30.8884 39.5387 30.775 39.2488C30.6672 38.97 30.6134 38.6383 30.6134 38.2537C30.6134 37.9749 30.6616 37.7017 30.758 37.4341C30.8487 37.1833 30.9877 36.9575 31.1748 36.7568C31.3507 36.5673 31.569 36.4167 31.8299 36.3052C32.0908 36.1937 32.3857 36.138 32.7147 36.138ZM32.7317 36.8739C32.4311 36.8739 32.1929 36.9603 32.0171 37.1331C31.8469 37.3003 31.7363 37.5401 31.6853 37.8523H33.659C33.659 37.7352 33.6391 37.6098 33.5994 37.476C33.5654 37.37 33.5087 37.2669 33.4293 37.1665C33.3555 37.0774 33.2591 37.0077 33.14 36.9575C33.0096 36.9017 32.8735 36.8739 32.7317 36.8739Z" fill="white"/>
<path d="M39.0395 35.2098C39.0225 35.2098 39.0026 35.2125 38.98 35.2181C38.9629 35.2237 38.9403 35.2293 38.9119 35.2348L38.6652 35.2767V39.6669L38.9119 39.7087C38.9403 39.7143 38.9629 39.7199 38.98 39.7254C39.0026 39.731 39.0225 39.7338 39.0395 39.7338L39.0905 39.7422C39.2323 39.7756 39.3032 39.862 39.3032 40.0014V40.4948H36.8702V40.0014C36.8702 39.862 36.9411 39.7756 37.0828 39.7422L37.1339 39.7338L37.2615 39.7087L37.5167 39.6669V35.2767L37.2615 35.2348C37.2331 35.2293 37.2076 35.2237 37.1849 35.2181C37.1679 35.2125 37.1509 35.2098 37.1339 35.2098L37.0828 35.2014C36.9411 35.1679 36.8702 35.0815 36.8702 34.9422V34.4488H39.3032V34.9422C39.3032 35.0815 39.2323 35.1679 39.0905 35.2014L39.0395 35.2098Z" fill="white"/>
<path d="M44.5196 39.7422C44.6614 39.7756 44.7323 39.862 44.7323 40.0014V40.4948H43.0394V37.7686C43.0394 37.5122 42.977 37.3087 42.8522 37.1582C42.7331 37.0132 42.5488 36.9408 42.2992 36.9408C42.1177 36.9408 41.9476 36.9826 41.7888 37.0662C41.6187 37.1554 41.4684 37.2641 41.3379 37.3923V39.6669L41.5846 39.7087L41.7122 39.7338L41.7633 39.7422C41.9051 39.7756 41.976 39.862 41.976 40.0014V40.4948H39.645V40.0014C39.645 39.862 39.7159 39.7756 39.8577 39.7422L39.9087 39.7338L40.0363 39.7087L40.283 39.6669V37.0328L40.0363 36.9909C40.008 36.9854 39.9824 36.9798 39.9597 36.9742C39.9427 36.9686 39.9257 36.9659 39.9087 36.9659L39.8577 36.9575C39.7159 36.924 39.645 36.8376 39.645 36.6983V36.2049H40.9296C41.06 36.2049 41.1479 36.269 41.1933 36.3972L41.2699 36.7317C41.3493 36.6425 41.44 36.5617 41.5421 36.4892C41.6215 36.4279 41.7264 36.3665 41.8569 36.3052C42.0043 36.2383 42.1206 36.1965 42.2057 36.1798C42.3474 36.1519 42.4836 36.138 42.614 36.138C42.8635 36.138 43.0762 36.177 43.252 36.2551C43.4165 36.3219 43.5696 36.4335 43.7114 36.5896C43.8305 36.7289 43.9241 36.9017 43.9922 37.108C44.0546 37.292 44.0857 37.5122 44.0857 37.7686V39.6669L44.341 39.7087C44.3693 39.7143 44.392 39.7199 44.409 39.7254C44.4317 39.731 44.4516 39.7338 44.4686 39.7338L44.5196 39.7422Z" fill="white"/>
<path d="M49.9791 36.6983C49.9791 36.8376 49.9082 36.924 49.7664 36.9575C49.7437 36.9575 49.7097 36.9631 49.6643 36.9742C49.6189 36.9854 49.5197 37.0049 49.3665 37.0328L47.9628 40.4948H47.01L45.6063 37.0328C45.3171 36.977 45.1838 36.9519 45.2065 36.9575C45.0647 36.924 44.9938 36.8376 44.9938 36.6983V36.2049H47.1206V36.6983C47.1206 36.8376 47.0497 36.924 46.908 36.9575L46.6698 36.9993L47.2908 38.6885C47.3191 38.7666 47.3588 38.8976 47.4099 39.0815C47.4496 39.2321 47.4808 39.3603 47.5035 39.4662C47.5432 39.2767 47.5715 39.1484 47.5885 39.0815C47.6226 38.9477 47.6651 38.8167 47.7161 38.6885L48.3457 37.0077C48.2379 36.9909 48.167 36.9798 48.133 36.9742C48.1046 36.9631 48.082 36.9575 48.0649 36.9575C47.9232 36.924 47.8523 36.8376 47.8523 36.6983V36.2049H49.9791V36.6983Z" fill="white"/>
<path d="M52.3378 36.138C52.6157 36.138 52.868 36.1798 53.0949 36.2634C53.3104 36.3415 53.5089 36.4697 53.6904 36.6481C53.8549 36.8098 53.9853 37.0132 54.0817 37.2585C54.1781 37.5094 54.2264 37.7826 54.2264 38.0781C54.2264 38.145 54.2207 38.2118 54.2093 38.2787C54.198 38.3401 54.1867 38.3791 54.1753 38.3958C54.164 38.4237 54.1384 38.446 54.0987 38.4627C54.0761 38.4739 54.0364 38.4794 53.9796 38.4794H51.2829C51.3169 38.9199 51.4388 39.2432 51.6487 39.4495C51.8585 39.6557 52.1364 39.7589 52.4824 39.7589C52.6582 39.7589 52.8028 39.7394 52.9162 39.7003C53.041 39.6613 53.1488 39.6167 53.2395 39.5666C53.2792 39.5443 53.3189 39.5247 53.3586 39.508C53.404 39.4857 53.4465 39.4634 53.4862 39.4411C53.5486 39.4021 53.6138 39.3826 53.6819 39.3826C53.7273 39.3826 53.767 39.3909 53.801 39.4077C53.8294 39.4188 53.8549 39.4411 53.8776 39.4746L54.1838 39.8509C54.0534 39.9958 53.9229 40.1101 53.7925 40.1937C53.6394 40.2885 53.4891 40.361 53.3416 40.4112C53.1998 40.4558 53.0382 40.492 52.8567 40.5199C52.7149 40.5422 52.5561 40.5533 52.3803 40.5533C52.0684 40.5533 51.7876 40.5059 51.5381 40.4112C51.2885 40.3164 51.0617 40.1686 50.8575 39.9679C50.6647 39.7784 50.5115 39.5387 50.3981 39.2488C50.2903 38.97 50.2365 38.6383 50.2365 38.2537C50.2365 37.9749 50.2847 37.7017 50.3811 37.4341C50.4718 37.1833 50.6108 36.9575 50.7979 36.7568C50.9738 36.5673 51.1921 36.4167 51.453 36.3052C51.7139 36.1937 52.0088 36.138 52.3378 36.138ZM52.3548 36.8739C52.0542 36.8739 51.816 36.9603 51.6402 37.1331C51.47 37.3003 51.3594 37.5401 51.3084 37.8523H53.2821C53.2821 37.7352 53.2622 37.6098 53.2225 37.476C53.1885 37.37 53.1318 37.2669 53.0524 37.1665C52.9786 37.0774 52.8822 37.0077 52.7631 36.9575C52.6327 36.9017 52.4966 36.8739 52.3548 36.8739Z" fill="white"/>
<path d="M57.5699 38.6885C57.6323 38.8223 57.6635 38.97 57.6635 39.1317C57.6635 39.3324 57.6238 39.5247 57.5444 39.7087C57.465 39.8815 57.3544 40.0321 57.2126 40.1603C57.0595 40.2941 56.878 40.3916 56.6681 40.453C56.464 40.5254 56.2144 40.5617 55.9195 40.5617C55.6643 40.5617 55.4119 40.5394 55.1623 40.4948C54.9185 40.4502 54.7086 40.3944 54.5328 40.3275V39.115H55.0262C55.1283 39.115 55.1935 39.1679 55.2219 39.2739C55.2332 39.3352 55.2531 39.4997 55.2815 39.7672C55.4346 39.8118 55.6643 39.8341 55.9705 39.8341C56.0896 39.8341 56.1974 39.8202 56.2938 39.7923C56.3902 39.7589 56.464 39.7199 56.515 39.6753C56.5831 39.6195 56.6256 39.5666 56.6426 39.5164C56.6653 39.4551 56.6766 39.3882 56.6766 39.3157C56.6766 39.2153 56.6483 39.1345 56.5916 39.0732C56.5405 39.0174 56.4583 38.9617 56.3449 38.9059C56.2371 38.8558 56.1237 38.8139 56.0046 38.7805L55.6047 38.6551C55.514 38.6272 55.3835 38.5742 55.2134 38.4962C55.0773 38.4348 54.961 38.3596 54.8646 38.2704C54.7625 38.1812 54.6831 38.0697 54.6264 37.9359C54.564 37.7965 54.5328 37.6348 54.5328 37.4509C54.5328 37.2725 54.5668 37.1052 54.6349 36.9491C54.703 36.793 54.8079 36.6537 54.9497 36.531C55.0915 36.4084 55.2644 36.3136 55.4686 36.2467C55.6898 36.1742 55.9252 36.138 56.1747 36.138C56.3902 36.138 56.5802 36.1547 56.7447 36.1882C56.9092 36.216 57.1445 36.2746 57.4508 36.3638H57.4423V37.5763H56.9574C56.8553 37.5763 56.7901 37.5233 56.7617 37.4174C56.7447 37.3449 56.7248 37.1889 56.7022 36.9491C56.5717 36.9101 56.4016 36.8906 56.1917 36.8906C55.9876 36.8906 55.8259 36.9324 55.7068 37.016C55.5877 37.0996 55.5282 37.2139 55.5282 37.3589C55.5282 37.4425 55.5594 37.5206 55.6217 37.593C55.6671 37.6432 55.7465 37.6962 55.8599 37.7519C55.9904 37.8132 56.1038 37.8578 56.2002 37.8857C56.2456 37.8969 56.376 37.9359 56.5916 38.0028C56.6993 38.0362 56.8326 38.0892 56.9914 38.1617C57.1275 38.223 57.2409 38.2955 57.3317 38.3791C57.4338 38.4627 57.5132 38.5659 57.5699 38.6885Z" fill="white"/>
<path d="M59.7166 40.5617C59.3367 40.5617 59.0446 40.4558 58.8404 40.2439C58.6362 40.0321 58.5341 39.7422 58.5341 39.3742V36.9826H58.0918C58.0464 36.9826 57.9982 36.9631 57.9471 36.924C57.9018 36.8906 57.8791 36.8376 57.8791 36.7652V36.347L58.5852 36.2383L58.8064 35.0676C58.812 35.0174 58.8376 34.9756 58.8829 34.9422C58.9283 34.9087 58.9822 34.892 59.0446 34.892H59.589V36.2467H60.7375V36.9826H59.589V39.3073C59.589 39.4355 59.6231 39.5387 59.6911 39.6167C59.7592 39.6892 59.8499 39.7254 59.9633 39.7254C60.0427 39.7254 60.0966 39.7199 60.125 39.7087L60.2356 39.6585L60.3292 39.6084C60.3462 39.5972 60.3689 39.5916 60.3972 39.5916C60.4426 39.5916 60.4709 39.5972 60.4823 39.6084L60.5418 39.6753L60.8566 40.177C60.7091 40.2941 60.5333 40.3889 60.3292 40.4613C60.1363 40.5282 59.9322 40.5617 59.7166 40.5617Z" fill="white"/>
<path d="M62.9666 34.9505C62.9666 35.0286 62.9467 35.1122 62.907 35.2014C62.873 35.2794 62.8248 35.3491 62.7624 35.4105C62.6944 35.4774 62.6235 35.5247 62.5497 35.5526C62.4647 35.5861 62.3768 35.6028 62.286 35.6028C62.1953 35.6028 62.1074 35.5861 62.0223 35.5526C61.9542 35.5247 61.8862 35.4774 61.8181 35.4105C61.7557 35.3491 61.7075 35.2794 61.6735 35.2014C61.6395 35.1233 61.6225 35.0397 61.6225 34.9505C61.6225 34.8613 61.6395 34.7749 61.6735 34.6913C61.7019 34.6188 61.7501 34.5491 61.8181 34.4822C61.8805 34.4209 61.9486 34.3763 62.0223 34.3484C62.1244 34.3094 62.2123 34.2899 62.286 34.2899C62.3598 34.2899 62.4477 34.3094 62.5497 34.3484C62.6348 34.3819 62.7057 34.4265 62.7624 34.4822C62.8305 34.5491 62.8787 34.6188 62.907 34.6913C62.9467 34.7861 62.9666 34.8725 62.9666 34.9505ZM63.2388 39.7422C63.3806 39.7756 63.4515 39.862 63.4515 40.0014V40.4948H61.112V40.0014C61.112 39.862 61.1829 39.7756 61.3247 39.7422L61.3757 39.7338L61.5034 39.7087L61.7586 39.6669V37.0328L61.5034 36.9909C61.475 36.9854 61.4495 36.9798 61.4268 36.9742C61.4098 36.9686 61.3928 36.9659 61.3757 36.9659L61.3247 36.9575C61.1829 36.924 61.112 36.8376 61.112 36.6983V36.2049H62.805V39.6669L63.0602 39.7087C63.0885 39.7143 63.1112 39.7199 63.1282 39.7254C63.1509 39.731 63.1708 39.7338 63.1878 39.7338L63.2388 39.7422Z" fill="white"/>
<path d="M65.6257 36.1296C65.7902 36.1296 65.966 36.1491 66.1532 36.1882C66.312 36.2216 66.4622 36.2774 66.604 36.3554H67.8546V36.7401C67.8546 36.807 67.8376 36.8571 67.8036 36.8906C67.7695 36.924 67.7128 36.9491 67.6334 36.9659L67.2421 37.0328C67.2648 37.0885 67.2846 37.1666 67.3016 37.2669C67.3186 37.3505 67.3271 37.4341 67.3271 37.5178C67.3271 37.7352 67.2846 37.9275 67.1995 38.0948C67.1088 38.2732 66.9897 38.4181 66.8422 38.5296C66.6948 38.6411 66.5133 38.7331 66.2978 38.8056C66.0936 38.8725 65.8696 38.9059 65.6257 38.9059C65.4329 38.9059 65.2712 38.892 65.1408 38.8641C65.0047 38.9477 64.9366 39.0369 64.9366 39.1317C64.9366 39.2209 64.9763 39.285 65.0557 39.324C65.1351 39.3631 65.2429 39.3909 65.379 39.4077C65.5605 39.43 65.7108 39.4411 65.8299 39.4411C65.8866 39.4411 65.9575 39.4439 66.0426 39.4495C66.1276 39.4495 66.2269 39.4551 66.3403 39.4662C66.5161 39.4829 66.6891 39.508 66.8592 39.5415C67.0067 39.5693 67.1542 39.6251 67.3016 39.7087C67.4377 39.7812 67.5455 39.8815 67.6249 40.0098C67.7043 40.1324 67.744 40.2997 67.744 40.5115C67.744 40.701 67.6958 40.885 67.5994 41.0634C67.5086 41.2418 67.3725 41.4007 67.191 41.5401C67.0209 41.6794 66.7997 41.7909 66.5275 41.8746C66.2609 41.9582 65.9632 42 65.6342 42C65.2826 42 64.9933 41.9693 64.7665 41.908C64.5283 41.8411 64.3269 41.7575 64.1625 41.6571C64.0037 41.5624 63.8846 41.4425 63.8052 41.2976C63.7258 41.1582 63.6861 41.016 63.6861 40.8711C63.6861 40.6592 63.7484 40.4892 63.8732 40.361C63.9923 40.2328 64.1653 40.1268 64.3922 40.0432C64.2901 39.9875 64.205 39.9094 64.1369 39.8091C64.0689 39.7087 64.0349 39.5805 64.0349 39.4244C64.0349 39.3519 64.0462 39.285 64.0689 39.2237C64.1029 39.1345 64.1369 39.0676 64.171 39.023C64.2277 38.9505 64.2872 38.8864 64.3496 38.8307C64.395 38.7916 64.4801 38.7387 64.6048 38.6718C64.3836 38.5547 64.2078 38.3986 64.0774 38.2035C63.9526 38.0139 63.8902 37.7854 63.8902 37.5178C63.8902 37.3003 63.9328 37.108 64.0178 36.9408C64.1029 36.7735 64.2248 36.6286 64.3836 36.5059C64.5368 36.3889 64.7183 36.2969 64.9281 36.23C65.1436 36.1631 65.3762 36.1296 65.6257 36.1296ZM65.6257 38.2453C65.7561 38.2453 65.8696 38.2286 65.966 38.1951C66.0624 38.1617 66.1418 38.1143 66.2042 38.053C66.2609 38.0084 66.3091 37.9331 66.3488 37.8272C66.3828 37.7436 66.3999 37.6488 66.3999 37.5429C66.3999 37.3366 66.3346 37.1693 66.2042 37.0411C66.0794 36.9185 65.8866 36.8571 65.6257 36.8571C65.3591 36.8571 65.1635 36.9185 65.0387 37.0411C64.9139 37.1638 64.8515 37.331 64.8515 37.5429C64.8515 37.6599 64.8657 37.7547 64.8941 37.8272C64.9281 37.9108 64.9763 37.9833 65.0387 38.0446C65.1124 38.1171 65.1947 38.1673 65.2854 38.1951C65.3875 38.2286 65.5009 38.2453 65.6257 38.2453ZM66.7742 40.6871C66.7742 40.6035 66.7487 40.5366 66.6976 40.4864C66.6466 40.4362 66.5785 40.3944 66.4934 40.361C66.4311 40.3387 66.3261 40.3164 66.1787 40.2941C66.0879 40.2829 65.9632 40.2718 65.8044 40.2606L65.396 40.2439C65.2145 40.2328 65.0812 40.2216 64.9962 40.2105C64.8657 40.2829 64.7693 40.3582 64.7069 40.4362C64.6332 40.5254 64.5963 40.6258 64.5963 40.7373C64.5963 40.7986 64.6162 40.8683 64.6559 40.9463C64.6899 41.0132 64.7495 41.0718 64.8345 41.122C64.9139 41.1666 65.0245 41.2028 65.1663 41.2307C65.3194 41.2585 65.4811 41.2725 65.6512 41.2725C65.8497 41.2725 66.0199 41.2558 66.1617 41.2223C66.3148 41.1889 66.4311 41.1498 66.5105 41.1052C66.6012 41.0606 66.6693 40.9993 66.7146 40.9213C66.7543 40.8599 66.7742 40.7819 66.7742 40.6871Z" fill="white"/>
<path d="M72.0455 39.7338C72.1873 39.7672 72.2581 39.8537 72.2581 39.993V40.4864H71.2543C71.1465 40.4864 71.0671 40.4725 71.0161 40.4446C70.9594 40.4223 70.9168 40.361 70.8885 40.2606L70.7949 39.9596C70.6815 40.0655 70.5737 40.1519 70.4716 40.2188C70.3922 40.2746 70.2816 40.3359 70.1398 40.4028C70.0378 40.4474 69.9187 40.4836 69.7825 40.5115C69.6408 40.5394 69.499 40.5533 69.3572 40.5533C69.17 40.5533 68.9999 40.5282 68.8467 40.4781C68.6823 40.4223 68.549 40.3498 68.4469 40.2606C68.3278 40.1547 68.2399 40.0321 68.1832 39.8927C68.1208 39.7422 68.0896 39.5749 68.0896 39.3909C68.0896 39.2237 68.1321 39.062 68.2172 38.9059C68.3023 38.7443 68.4469 38.6021 68.6511 38.4794C68.8666 38.3456 69.1332 38.2397 69.4508 38.1617C69.7854 38.0781 70.2022 38.0362 70.7013 38.0362V37.7854C70.7013 37.5066 70.6389 37.292 70.5142 37.1415C70.3951 37.0021 70.2164 36.9324 69.9782 36.9324C69.7967 36.9324 69.6549 36.9519 69.5528 36.9909C69.4224 37.0411 69.3232 37.0857 69.2551 37.1247L69.0254 37.2502C68.963 37.2892 68.8865 37.3087 68.7957 37.3087C68.722 37.3087 68.6596 37.292 68.6085 37.2585C68.5745 37.2362 68.5348 37.1916 68.4894 37.1247L68.2938 36.7986C68.8042 36.3415 69.4082 36.1129 70.1058 36.1129C70.361 36.1129 70.5907 36.1547 70.7949 36.2383C70.9934 36.322 71.1607 36.4362 71.2968 36.5812C71.45 36.754 71.5577 36.9296 71.6201 37.108C71.6882 37.3087 71.7222 37.5317 71.7222 37.777V39.6753L71.9519 39.7171L72.0455 39.7338ZM70.7013 38.6634C70.3837 38.6634 70.1285 38.6829 69.9357 38.722C69.7258 38.7665 69.5585 38.8167 69.4337 38.8725C69.309 38.9282 69.2211 38.9951 69.17 39.0732C69.119 39.1456 69.0935 39.2321 69.0935 39.3324C69.0935 39.522 69.1473 39.653 69.2551 39.7254C69.3685 39.8035 69.5103 39.8425 69.6805 39.8425C69.7882 39.8425 69.8875 39.8341 69.9782 39.8174C70.0746 39.8007 70.1625 39.77 70.2419 39.7254C70.344 39.6697 70.4206 39.6223 70.4716 39.5833C70.551 39.522 70.6276 39.4551 70.7013 39.3826V38.6634Z" fill="white"/>
<path d="M76.2181 39.8509C76.082 40.0014 75.9572 40.1157 75.8438 40.1937C75.7304 40.2662 75.5886 40.3387 75.4184 40.4112C75.2937 40.4558 75.1434 40.492 74.9676 40.5199C74.8314 40.5422 74.6755 40.5533 74.4997 40.5533C74.2218 40.5533 73.9694 40.5059 73.7425 40.4112C73.5043 40.3108 73.2973 40.1659 73.1215 39.9763C72.9343 39.7756 72.7925 39.5443 72.6961 39.2822C72.594 39.0035 72.543 38.6885 72.543 38.3373C72.543 38.0195 72.5884 37.7296 72.6791 37.4676C72.7755 37.2 72.9116 36.9659 73.0875 36.7652C73.2633 36.57 73.4845 36.4167 73.751 36.3052C74.0233 36.1937 74.3267 36.138 74.6613 36.138C75.0243 36.138 75.4837 36.2411 76.0395 36.4474L76.031 37.7686H75.5461C75.444 37.7686 75.3787 37.7157 75.3504 37.6098L75.2823 37.0077C75.0725 36.9519 74.8853 36.924 74.7209 36.924C74.5337 36.924 74.3721 36.9575 74.2359 37.0244C74.0942 37.0913 73.9807 37.1833 73.8957 37.3003C73.7936 37.4397 73.7227 37.5902 73.683 37.7519C73.6376 37.9415 73.6149 38.1366 73.6149 38.3373C73.6149 38.5659 73.6404 38.7693 73.6915 38.9477C73.7425 39.1317 73.8134 39.2822 73.9042 39.3993C74.0006 39.5164 74.114 39.6084 74.2444 39.6753C74.3862 39.7366 74.5365 39.7672 74.6953 39.7672C74.8711 39.7672 75.0073 39.7477 75.1037 39.7087C75.2285 39.6585 75.3164 39.6139 75.3674 39.5749C75.3958 39.5526 75.4241 39.5331 75.4525 39.5164C75.4865 39.4941 75.5205 39.469 75.5546 39.4411C75.5999 39.4021 75.6567 39.3826 75.7247 39.3826C75.8155 39.3826 75.8807 39.4132 75.9204 39.4746L76.2181 39.8509Z" fill="white"/>
<path d="M78.3278 34.9505C78.3278 35.0286 78.3079 35.1122 78.2682 35.2014C78.2342 35.2794 78.186 35.3491 78.1236 35.4105C78.0556 35.4774 77.9847 35.5247 77.9109 35.5526C77.8259 35.5861 77.7379 35.6028 77.6472 35.6028C77.5565 35.6028 77.4685 35.5861 77.3835 35.5526C77.3154 35.5247 77.2474 35.4774 77.1793 35.4105C77.1169 35.3491 77.0687 35.2794 77.0347 35.2014C77.0007 35.1233 76.9836 35.0397 76.9836 34.9505C76.9836 34.8613 77.0007 34.7749 77.0347 34.6913C77.063 34.6188 77.1112 34.5491 77.1793 34.4822C77.2417 34.4209 77.3097 34.3763 77.3835 34.3484C77.4856 34.3094 77.5735 34.2899 77.6472 34.2899C77.7209 34.2899 77.8088 34.3094 77.9109 34.3484C77.996 34.3819 78.0669 34.4265 78.1236 34.4822C78.1917 34.5491 78.2399 34.6188 78.2682 34.6913C78.3079 34.7861 78.3278 34.8725 78.3278 34.9505ZM78.6 39.7422C78.7418 39.7756 78.8127 39.862 78.8127 40.0014V40.4948H76.4732V40.0014C76.4732 39.862 76.5441 39.7756 76.6859 39.7422L76.7369 39.7338L76.8645 39.7087L77.1198 39.6669V37.0328L76.8645 36.9909C76.8362 36.9854 76.8107 36.9798 76.788 36.9742C76.771 36.9686 76.7539 36.9659 76.7369 36.9659L76.6859 36.9575C76.5441 36.924 76.4732 36.8376 76.4732 36.6983V36.2049H78.1661V39.6669L78.4214 39.7087C78.4497 39.7143 78.4724 39.7199 78.4894 39.7254C78.5121 39.731 78.532 39.7338 78.549 39.7338L78.6 39.7422Z" fill="white"/>
<path d="M81.676 35.4774C81.6306 35.5275 81.5767 35.5638 81.5143 35.5861C81.4463 35.6084 81.3811 35.6195 81.3187 35.6195H80.6891L81.3017 34.6077C81.347 34.524 81.3952 34.4683 81.4463 34.4404C81.5143 34.4014 81.5994 34.3819 81.7015 34.3819H82.7224L81.676 35.4774ZM81.2506 36.138C81.5625 36.138 81.8575 36.1909 82.1354 36.2969C82.4076 36.4028 82.6345 36.5477 82.8159 36.7317C82.9974 36.9157 83.1392 37.147 83.2413 37.4258C83.3434 37.699 83.3944 38.0028 83.3944 38.3373C83.3944 38.6718 83.3434 38.9784 83.2413 39.2571C83.1335 39.5415 82.9918 39.7756 82.8159 39.9596C82.6288 40.1547 82.4019 40.3024 82.1354 40.4028C81.8745 40.5031 81.5796 40.5533 81.2506 40.5533C80.9217 40.5533 80.6239 40.5031 80.3574 40.4028C80.0908 40.3024 79.8639 40.1547 79.6768 39.9596C79.4783 39.7589 79.3308 39.5247 79.2344 39.2571C79.1323 38.9784 79.0813 38.6718 79.0813 38.3373C79.0813 38.0028 79.1323 37.699 79.2344 37.4258C79.3308 37.1693 79.4783 36.938 79.6768 36.7317C79.8583 36.5477 80.0851 36.4028 80.3574 36.2969C80.6353 36.1909 80.933 36.138 81.2506 36.138ZM81.2506 39.7589C81.6136 39.7589 81.8801 39.639 82.0503 39.3993C82.2261 39.1484 82.314 38.7972 82.314 38.3456C82.314 37.8941 82.2261 37.5429 82.0503 37.292C81.8801 37.0467 81.6136 36.924 81.2506 36.924C80.8876 36.924 80.6154 37.0467 80.4339 37.292C80.2524 37.5373 80.1617 37.8913 80.1617 38.354C80.1617 38.8056 80.2524 39.154 80.4339 39.3993C80.6097 39.639 80.882 39.7589 81.2506 39.7589Z" fill="white"/>
<path d="M88.5761 39.7422C88.7178 39.7756 88.7887 39.862 88.7887 40.0014V40.4948H87.0958V37.7686C87.0958 37.5122 87.0334 37.3087 86.9086 37.1582C86.7895 37.0132 86.6052 36.9408 86.3557 36.9408C86.1742 36.9408 86.004 36.9826 85.8452 37.0662C85.6751 37.1554 85.5248 37.2641 85.3944 37.3923V39.6669L85.6411 39.7087L85.7687 39.7338L85.8197 39.7422C85.9615 39.7756 86.0324 39.862 86.0324 40.0014V40.4948H83.7014V40.0014C83.7014 39.862 83.7723 39.7756 83.9141 39.7422L83.9651 39.7338L84.0928 39.7087L84.3395 39.6669V37.0328L84.0928 36.9909C84.0644 36.9854 84.0389 36.9798 84.0162 36.9742C83.9992 36.9686 83.9822 36.9659 83.9651 36.9659L83.9141 36.9575C83.7723 36.924 83.7014 36.8376 83.7014 36.6983V36.2049H84.986C85.1165 36.2049 85.2044 36.269 85.2497 36.3972L85.3263 36.7317C85.4057 36.6425 85.4964 36.5617 85.5985 36.4892C85.6779 36.4279 85.7829 36.3665 85.9133 36.3052C86.0608 36.2383 86.177 36.1965 86.2621 36.1798C86.4039 36.1519 86.54 36.138 86.6704 36.138C86.92 36.138 87.1327 36.177 87.3085 36.2551C87.473 36.3219 87.6261 36.4335 87.7679 36.5896C87.887 36.7289 87.9805 36.9017 88.0486 37.108C88.111 37.292 88.1422 37.5122 88.1422 37.7686V39.6669L88.3974 39.7087C88.4258 39.7143 88.4485 39.7199 88.4655 39.7254C88.4882 39.731 88.508 39.7338 88.525 39.7338L88.5761 39.7422Z" fill="white"/>
<path d="M94.4051 40.4781C94.3427 40.4781 94.286 40.4613 94.235 40.4279C94.1896 40.4 94.1584 40.3526 94.1414 40.2857L94.0563 39.8927C93.8862 40.0822 93.6848 40.2411 93.4523 40.3693C93.2254 40.492 92.956 40.5533 92.6441 40.5533C92.4002 40.5533 92.1847 40.5059 91.9976 40.4112C91.799 40.3108 91.6289 40.1686 91.4871 39.9847C91.3453 39.8063 91.2347 39.5777 91.1553 39.299C91.0759 39.0146 91.0362 38.7024 91.0362 38.3624C91.0362 38.0446 91.0788 37.7491 91.1638 37.476C91.2432 37.2195 91.3709 36.9826 91.5467 36.7652C91.6998 36.5756 91.8955 36.4195 92.1337 36.2969C92.3605 36.1798 92.6186 36.1213 92.9078 36.1213C93.1517 36.1213 93.3615 36.1603 93.5374 36.2383C93.7245 36.322 93.8777 36.4223 93.9968 36.5394V35.1094L93.75 35.0676C93.7217 35.062 93.6962 35.0564 93.6735 35.0509C93.6565 35.0453 93.6395 35.0425 93.6224 35.0425L93.5714 35.0341C93.4296 35.0007 93.3587 34.9143 93.3587 34.7749V34.2815H95.0517V39.6585L95.2728 39.692L95.3834 39.7171L95.4345 39.7254C95.5763 39.7589 95.6471 39.8453 95.6471 39.9847V40.4781H94.4051ZM94.0053 37.3003C93.8918 37.161 93.7614 37.0606 93.6139 36.9993C93.4608 36.938 93.3077 36.9073 93.1545 36.9073C93.0071 36.9073 92.8653 36.938 92.7292 36.9993C92.6044 37.0551 92.4938 37.1443 92.3974 37.2669C92.3123 37.384 92.2443 37.5345 92.1932 37.7185C92.1478 37.8801 92.1252 38.0948 92.1252 38.3624C92.1252 38.63 92.145 38.8446 92.1847 39.0063C92.2244 39.1735 92.284 39.3129 92.3634 39.4244C92.4428 39.5415 92.5335 39.6223 92.6356 39.6669C92.7434 39.7171 92.8681 39.7422 93.0099 39.7422C93.2368 39.7422 93.4239 39.6976 93.5714 39.6084C93.7302 39.5136 93.8748 39.3854 94.0053 39.2237V37.3003Z" fill="white"/>
<path d="M98.0142 36.138C98.2921 36.138 98.5445 36.1798 98.7714 36.2634C98.9869 36.3415 99.1854 36.4697 99.3669 36.6481C99.5313 36.8098 99.6618 37.0132 99.7582 37.2585C99.8546 37.5094 99.9028 37.7826 99.9028 38.0781C99.9028 38.145 99.8972 38.2118 99.8858 38.2787C99.8745 38.3401 99.8631 38.3791 99.8518 38.3958C99.8404 38.4237 99.8149 38.446 99.7752 38.4627C99.7525 38.4739 99.7128 38.4794 99.6561 38.4794H96.9593C96.9934 38.9199 97.1153 39.2432 97.3251 39.4495C97.535 39.6557 97.8129 39.7589 98.1588 39.7589C98.3347 39.7589 98.4793 39.7394 98.5927 39.7003C98.7175 39.6613 98.8252 39.6167 98.916 39.5666C98.9557 39.5443 98.9954 39.5247 99.0351 39.508C99.0805 39.4857 99.123 39.4634 99.1627 39.4411C99.2251 39.4021 99.2903 39.3826 99.3584 39.3826C99.4037 39.3826 99.4434 39.3909 99.4775 39.4077C99.5058 39.4188 99.5313 39.4411 99.554 39.4746L99.8603 39.8509C99.7298 39.9958 99.5994 40.1101 99.469 40.1937C99.3158 40.2885 99.1655 40.361 99.0181 40.4112C98.8763 40.4558 98.7147 40.492 98.5332 40.5199C98.3914 40.5422 98.2326 40.5533 98.0568 40.5533C97.7448 40.5533 97.4641 40.5059 97.2145 40.4112C96.965 40.3164 96.7381 40.1686 96.534 39.9679C96.3411 39.7784 96.188 39.5387 96.0746 39.2488C95.9668 38.97 95.9129 38.6383 95.9129 38.2537C95.9129 37.9749 95.9611 37.7017 96.0576 37.4341C96.1483 37.1833 96.2873 36.9575 96.4744 36.7568C96.6502 36.5673 96.8686 36.4167 97.1295 36.3052C97.3904 36.1937 97.6853 36.138 98.0142 36.138ZM98.0312 36.8739C97.7307 36.8739 97.4924 36.9603 97.3166 37.1331C97.1465 37.3003 97.0359 37.5401 96.9848 37.8523H98.9585C98.9585 37.7352 98.9387 37.6098 98.899 37.476C98.8649 37.37 98.8082 37.2669 98.7288 37.1665C98.6551 37.0774 98.5587 37.0077 98.4396 36.9575C98.3091 36.9017 98.173 36.8739 98.0312 36.8739Z" fill="white"/>
<path d="M102.319 39.7422C102.461 39.7756 102.532 39.862 102.532 40.0014V40.4948H100.192V40.0014C100.192 39.862 100.263 39.7756 100.405 39.7422L100.456 39.7338L100.584 39.7087L100.839 39.6669V35.1094L100.584 35.0676C100.555 35.062 100.53 35.0564 100.507 35.0509C100.49 35.0453 100.473 35.0425 100.456 35.0425L100.405 35.0341C100.263 35.0007 100.192 34.9143 100.192 34.7749V34.2815H101.885V39.6669L102.14 39.7087L102.268 39.7338L102.319 39.7422Z" fill="white"/>
<path d="M106.981 35.2098C106.964 35.2098 106.944 35.2125 106.921 35.2181C106.904 35.2237 106.882 35.2293 106.853 35.2348L106.607 35.2767V39.6669L106.853 39.7087C106.882 39.7143 106.904 39.7199 106.921 39.7254C106.944 39.731 106.964 39.7338 106.981 39.7338L107.032 39.7422C107.174 39.7756 107.245 39.862 107.245 40.0014V40.4948H104.812V40.0014C104.812 39.862 104.883 39.7756 105.024 39.7422L105.075 39.7338L105.203 39.7087L105.458 39.6669V35.2767L105.203 35.2348C105.175 35.2293 105.149 35.2237 105.126 35.2181C105.109 35.2125 105.092 35.2098 105.075 35.2098L105.024 35.2014C104.883 35.1679 104.812 35.0815 104.812 34.9422V34.4488H107.245V34.9422C107.245 35.0815 107.174 35.1679 107.032 35.2014L106.981 35.2098Z" fill="white"/>
<path d="M112.376 35.5944C112.472 35.8342 112.521 36.0934 112.521 36.3721C112.521 36.6676 112.47 36.938 112.368 37.1833C112.265 37.4286 112.118 37.6376 111.925 37.8105C111.738 37.9777 111.488 38.1143 111.176 38.2202C110.893 38.315 110.544 38.3624 110.13 38.3624H109.373V39.6669L109.628 39.7087C109.657 39.7143 109.679 39.7199 109.696 39.7254C109.719 39.731 109.739 39.7338 109.756 39.7338L109.807 39.7422C109.949 39.7756 110.02 39.862 110.02 40.0014V40.4948H107.586V40.0014C107.586 39.862 107.657 39.7756 107.799 39.7422L107.85 39.7338L107.978 39.7087L108.233 39.6669V35.2767L107.978 35.2348C107.949 35.2293 107.924 35.2237 107.901 35.2181C107.884 35.2125 107.867 35.2098 107.85 35.2098L107.799 35.2014C107.657 35.1679 107.586 35.0815 107.586 34.9422V34.4488H110.13C110.538 34.4488 110.896 34.4962 111.202 34.5909C111.486 34.6801 111.732 34.8139 111.942 34.9923C112.135 35.1596 112.28 35.3603 112.376 35.5944ZM111.296 36.8404C111.347 36.7066 111.372 36.5505 111.372 36.3721C111.372 36.216 111.347 36.0711 111.296 35.9373C111.245 35.8091 111.168 35.6976 111.066 35.6028C110.969 35.5136 110.842 35.4439 110.683 35.3937C110.53 35.3436 110.346 35.3185 110.13 35.3185H109.373V37.4843H110.13C110.346 37.4843 110.53 37.4592 110.683 37.4091C110.842 37.3533 110.969 37.2808 111.066 37.1916C111.168 37.1024 111.245 36.9854 111.296 36.8404Z" fill="white"/>
<path d="M118.69 34.9422C118.69 35.0815 118.619 35.1679 118.478 35.2014L118.427 35.2098C118.41 35.2098 118.39 35.2125 118.367 35.2181C118.35 35.2237 118.327 35.2293 118.299 35.2348L118.052 35.2767L116.317 38.145V39.6669L116.564 39.7087C116.592 39.7143 116.615 39.7199 116.632 39.7254C116.654 39.731 116.674 39.7338 116.691 39.7338L116.742 39.7422C116.884 39.7756 116.955 39.862 116.955 40.0014V40.4948H114.522V40.0014C114.522 39.862 114.593 39.7756 114.735 39.7422C114.757 39.7422 114.777 39.7394 114.794 39.7338L114.922 39.7087L115.168 39.6669V38.145L113.433 35.2767L113.178 35.2348C113.149 35.2293 113.124 35.2237 113.101 35.2181C113.084 35.2125 113.067 35.2098 113.05 35.2098L112.999 35.2014C112.857 35.1679 112.786 35.0815 112.786 34.9422V34.4488H115.083V34.9422C115.083 35.0815 115.012 35.1679 114.871 35.2014L114.837 35.2098L114.752 35.2348L114.632 35.2599L115.449 36.7233C115.494 36.8014 115.551 36.9129 115.619 37.0578C115.648 37.1192 115.67 37.1777 115.687 37.2334C115.71 37.2892 115.73 37.3366 115.747 37.3756C115.775 37.2864 115.818 37.1805 115.874 37.0578C115.943 36.9129 115.999 36.8014 116.045 36.7233L116.853 35.2599L116.725 35.2348C116.708 35.2293 116.694 35.2237 116.683 35.2181C116.671 35.2125 116.66 35.2098 116.649 35.2098C116.637 35.2042 116.623 35.2014 116.606 35.2014C116.464 35.1679 116.393 35.0815 116.393 34.9422V34.4488H118.69V34.9422Z" fill="white"/>
<path d="M122.881 37.961C122.96 38.1227 123 38.3373 123 38.6049C123 38.8613 122.952 39.115 122.855 39.3659C122.759 39.6112 122.62 39.8202 122.439 39.993C122.257 40.1714 122.033 40.3108 121.766 40.4112C121.506 40.5115 121.205 40.5617 120.865 40.5617H120.737C120.198 40.5617 119.611 40.4558 118.976 40.2439V38.6885H119.461C119.569 38.6885 119.634 38.7387 119.657 38.839C119.674 38.9115 119.699 39.1429 119.733 39.5331C119.971 39.6056 120.36 39.6418 120.899 39.6418C121.222 39.6418 121.474 39.5666 121.656 39.416C121.832 39.2655 121.92 39.0481 121.92 38.7638C121.92 38.6077 121.88 38.4767 121.8 38.3707C121.727 38.2704 121.619 38.1868 121.477 38.1199C121.335 38.0474 121.185 37.9889 121.026 37.9443L120.839 37.8941L120.507 37.7937C120.337 37.738 120.164 37.6711 119.988 37.593C119.83 37.5206 119.677 37.4174 119.529 37.2836C119.393 37.161 119.288 37.0049 119.214 36.8153C119.129 36.6091 119.087 36.3777 119.087 36.1213C119.087 35.8927 119.132 35.678 119.223 35.4774C119.308 35.2655 119.438 35.0787 119.614 34.9171C119.779 34.7665 119.988 34.6383 120.244 34.5324C120.493 34.4321 120.78 34.3819 121.103 34.3819C121.698 34.3819 122.285 34.4962 122.864 34.7247V36.2718H122.379C122.277 36.2718 122.212 36.2188 122.183 36.1129C122.166 36.0348 122.141 35.8091 122.107 35.4355C121.903 35.3463 121.571 35.3017 121.111 35.3017C120.958 35.3017 120.822 35.3185 120.703 35.3519C120.573 35.3965 120.473 35.4495 120.405 35.5108C120.32 35.5833 120.258 35.6641 120.218 35.7533C120.178 35.8369 120.159 35.9401 120.159 36.0627C120.159 36.1965 120.201 36.3136 120.286 36.4139C120.371 36.5143 120.476 36.5951 120.601 36.6564C120.765 36.7345 120.919 36.7958 121.06 36.8404C121.117 36.8571 121.29 36.9129 121.579 37.0077C121.698 37.0467 121.871 37.1164 122.098 37.2167C122.268 37.2892 122.422 37.3895 122.558 37.5178C122.705 37.6516 122.813 37.7993 122.881 37.961Z" fill="white"/>
</svg>
