<svg width="1005" height="305" viewBox="0 0 1005 305" fill="none" xmlns="http://www.w3.org/2000/svg">
<path d="M432.262 136.505C432.341 144.224 430.729 151.866 427.541 158.896C424.456 165.794 419.861 171.911 414.095 176.796C407.719 182.046 400.374 185.993 392.477 188.414C382.92 191.377 372.952 192.794 362.948 192.612H270.974V177.088C270.829 175.157 271.419 173.242 272.627 171.727C273.834 170.213 275.569 169.21 277.485 168.92L279.048 168.627C279.633 168.631 280.215 168.543 280.773 168.366L283.02 167.846L290.931 166.544V28.1972L283.248 26.8955L281.001 26.3747C280.395 26.158 279.757 26.0479 279.113 26.0493L277.55 25.7564C275.634 25.4664 273.899 24.4635 272.692 22.9488C271.484 21.434 270.894 19.5191 271.039 17.5877V2.12907H356.697C367.416 1.85967 378.126 2.95325 388.57 5.38353C396.495 7.26499 403.944 10.7665 410.448 15.6676C415.923 19.8452 420.201 25.39 422.853 31.7446C425.54 38.3447 426.879 45.4153 426.792 52.5405C426.85 56.9472 426.236 61.3371 424.969 65.5583C423.547 69.7616 421.398 73.683 418.62 77.1442C415.505 80.7301 411.962 83.9215 408.072 86.6472C403.384 89.6954 398.344 92.1651 393.063 94.0023C419.195 99.8386 432.262 114.006 432.262 136.505ZM354.873 84.6294C366.985 84.6294 376.122 82.4598 382.286 78.1205C388.451 73.7813 391.522 66.7625 391.5 57.0642C391.5 47.2358 388.689 40.2062 383.068 35.9754C377.446 31.7446 368.667 29.64 356.729 29.6617H326.418V84.6294H354.873ZM397.198 135.724C397.171 131.938 396.454 128.188 395.081 124.659C393.807 121.384 391.723 118.484 389.026 116.23C385.768 113.84 382.106 112.055 378.217 110.958C372.963 109.626 367.552 109.013 362.134 109.135H326.321V164.949H362.427C368.057 165.112 373.673 164.309 379.031 162.574C382.976 161.271 386.58 159.102 389.579 156.227C392.22 153.665 394.207 150.506 395.374 147.017C396.674 143.386 397.292 139.547 397.198 135.692V135.724Z" fill="white"/>
<path d="M508.188 26.0486C507.602 26.0463 507.02 26.1342 506.462 26.309L504.216 26.8297L496.597 28.1315V166.543L504.216 167.845L506.462 168.366C507.02 168.541 507.602 168.628 508.188 168.626L509.75 168.919C511.666 169.209 513.401 170.212 514.609 171.727C515.816 173.241 516.407 175.156 516.262 177.088V192.612H440.957V177.088C440.812 175.156 441.402 173.241 442.61 171.727C443.817 170.212 445.553 169.209 447.469 168.919L449.031 168.626L453.003 167.845L460.915 166.543V28.1966L453.003 26.8948L450.757 26.3741C450.285 26.2 449.793 26.0905 449.292 26.0486L447.729 25.7557C445.813 25.4657 444.078 24.4629 442.87 22.9481C441.663 21.4333 441.073 19.5185 441.218 17.5871V2.12842H516.359V17.6522C516.504 19.5836 515.914 21.4984 514.707 23.0132C513.499 24.528 511.764 25.5308 509.848 25.8208L508.188 26.0486Z" fill="white"/>
<path d="M679.758 62.7264C679.87 71.4688 678.266 80.1484 675.037 88.2739C672.002 95.7995 667.318 102.55 661.331 108.028C654.555 113.894 646.657 118.323 638.118 121.046C627.582 124.302 616.585 125.819 605.56 125.537H582.119V166.543L590.031 167.845L592.245 168.366C592.803 168.541 593.385 168.629 593.97 168.626L595.565 168.919C597.481 169.209 599.217 170.212 600.424 171.727C601.631 173.242 602.222 175.156 602.077 177.088V192.612H526.902V177.088C526.757 175.156 527.348 173.242 528.555 171.727C529.763 170.212 531.498 169.209 533.414 168.919L535.009 168.626L538.949 167.845L546.86 166.543V28.1967L538.949 26.8949L536.702 26.3742C536.155 26.1996 535.584 26.1118 535.009 26.1139L533.414 25.821C531.498 25.5309 529.763 24.5281 528.555 23.0133C527.348 21.4986 526.757 19.5837 526.902 17.6523V2.12854H605.56C616.832 1.90052 628.072 3.38186 638.899 6.52205C647.272 9.16298 655.024 13.4692 661.689 19.1819C667.594 24.3677 672.2 30.8664 675.135 38.1553C678.216 45.98 679.785 54.3176 679.758 62.7264V62.7264ZM644.173 62.7264C644.222 58.0528 643.417 53.4095 641.797 49.0252C640.298 45.0387 637.929 41.4365 634.862 38.4808C631.445 35.4568 627.397 33.2331 623.011 31.9719C617.366 30.214 611.471 29.3896 605.56 29.531H582.119V97.6467H605.56C611.369 97.7598 617.159 96.9581 622.718 95.271C627.195 93.9043 631.333 91.6087 634.862 88.5342C638.16 85.5337 640.608 81.7171 641.959 77.4691C643.583 72.7291 644.333 67.7341 644.173 62.7264V62.7264Z" fill="white"/>
<path d="M870.873 17.6522C871.018 19.5836 870.428 21.4984 869.22 23.0132C868.013 24.528 866.277 25.5308 864.362 25.8208L862.766 26.0486C862.181 26.0463 861.599 26.1342 861.041 26.309L858.794 26.8297L851.176 28.1315L797.327 118.573V166.543L804.977 167.845L807.224 168.366C807.771 168.543 808.342 168.63 808.917 168.626L810.512 168.919C812.428 169.209 814.163 170.212 815.371 171.727C816.578 173.241 817.169 175.156 817.024 177.088V192.612H741.719V177.088C741.574 175.156 742.164 173.241 743.372 171.727C744.579 170.212 746.315 169.209 748.23 168.919C748.862 168.933 749.49 168.834 750.086 168.626L754.026 167.845L761.676 166.543V118.573L707.957 28.1966L699.981 26.8948L697.734 26.3741C697.176 26.1992 696.594 26.1114 696.009 26.1137L694.446 25.8208C692.53 25.5308 690.795 24.528 689.587 23.0132C688.38 21.4984 687.79 19.5836 687.935 17.6522V2.12842H759.105V17.6522C759.25 19.5836 758.659 21.4984 757.452 23.0132C756.244 24.528 754.509 25.5308 752.593 25.8208L751.519 26.1137L748.882 26.8948L745.203 27.6759L770.499 73.7915C771.899 76.2648 773.755 79.7471 775.774 84.3359C776.653 86.256 777.402 88.111 778.02 89.8685C778.639 91.6259 779.192 93.1229 779.746 94.327C780.859 90.9213 782.174 87.585 783.685 84.3359C785.801 79.7471 787.559 76.2648 788.959 73.7915L813.931 27.6759L809.991 26.8948L808.656 26.3741C808.337 26.2006 807.978 26.111 807.615 26.1137C807.201 25.9074 806.742 25.8068 806.28 25.8208C804.364 25.5308 802.629 24.528 801.421 23.0132C800.214 21.4984 799.623 19.5836 799.768 17.6522V2.12842H870.938L870.873 17.6522Z" fill="white"/>
<path d="M1004.48 133.056C1004.48 141.256 1002.96 149.385 1000.02 157.041C997.193 164.505 992.746 171.251 987.001 176.796C981.064 182.554 973.973 186.991 966.197 189.813C957.252 193.123 947.767 194.735 938.231 194.565H934.389C915.775 194.219 897.344 190.833 879.823 184.541V135.692H894.865C896.29 135.56 897.712 135.979 898.839 136.863C899.965 137.746 900.71 139.028 900.92 140.443C901.441 142.722 902.233 150.011 903.297 162.313C910.655 164.591 922.69 165.73 939.403 165.73C947.814 166.241 956.129 163.725 962.844 158.636C965.65 156.031 967.84 152.832 969.254 149.274C970.667 145.716 971.269 141.888 971.016 138.068C971.165 133.655 969.873 129.315 967.337 125.701C964.672 122.25 961.178 119.53 957.179 117.792C952.721 115.485 948.041 113.631 943.212 112.26L937.645 110.665L927.357 107.411C921.89 105.585 916.522 103.477 911.273 101.097C906.051 98.603 901.251 95.3089 897.046 91.3337C892.678 87.2537 889.332 82.2033 887.279 76.5911C884.552 69.6266 883.203 62.1993 883.307 54.7211C883.257 47.7385 884.7 40.8258 887.539 34.4459C890.209 27.727 894.347 21.6894 899.651 16.7742C905.398 11.62 912.011 7.52142 919.185 4.66767C927.645 1.41443 936.656 -0.166093 945.719 0.0137986C964.434 0.0715456 982.961 3.74027 1000.28 10.8186V59.6354H985.243C983.794 59.6915 982.374 59.2112 981.257 58.2864C980.14 57.3617 979.403 56.0575 979.188 54.6235C978.667 52.1501 977.885 45.0554 976.811 33.2743C970.495 30.4755 960.218 29.0761 945.979 29.0761C941.717 29.0142 937.466 29.5398 933.347 30.6382C929.961 31.6753 926.818 33.3794 924.101 35.6501C921.615 37.7284 919.634 40.3434 918.306 43.298C916.976 46.3763 916.342 49.7101 916.45 53.0614C916.391 57.1086 917.802 61.04 920.422 64.1265C923.111 67.3265 926.437 69.9312 930.189 71.7745C934.8 74.0399 939.565 75.9758 944.449 77.5674C946.175 78.0881 951.547 79.8455 960.5 82.8396C964.211 84.0763 969.551 86.0941 976.583 89.3485C981.857 91.6232 986.677 94.8315 990.81 98.819C995.131 102.687 998.554 107.452 1000.84 112.781C1003.54 119.185 1004.79 126.111 1004.48 133.056V133.056Z" fill="white"/>
<path d="M22.7921 183.304H21.6526C17.3744 183.465 13.1861 182.049 9.88438 179.325C6.58269 176.601 4.39808 172.758 3.74617 168.529L3.25781 167.552V21.1019L3.74617 20.1255C4.32126 15.8414 6.49045 11.9313 9.82129 9.17478C13.1521 6.41825 17.3999 5.01782 21.7177 5.2527H81.3949C82.9358 5.21347 84.4691 5.481 85.9056 6.03972C87.342 6.59844 88.653 7.43719 89.7621 8.50715L97.6735 15.8297C102.818 20.8741 108.32 26.0487 113.594 31.386C114.416 32.2777 115.428 32.9742 116.555 33.4247C117.681 33.8752 118.894 34.0682 120.105 33.9895H195.345C199.48 33.9895 203.647 33.9895 207.782 33.9895C211.547 34.0771 215.179 35.3984 218.12 37.7503C221.061 40.1022 223.148 43.3545 224.06 47.0073L224.776 49.7736V167.422L224.549 168.008C224.288 168.724 224.028 169.44 223.8 170.188C223.132 172.153 222.212 174.024 221.065 175.753C217.809 180.765 212.535 183.206 205.047 183.206L22.7921 183.304Z" fill="url(#paint0_radial_360_227)"/>
<path d="M47.2404 8.4754H81.3928C82.5176 8.43965 83.6383 8.62847 84.6893 9.0308C85.7402 9.43314 86.7004 10.0409 87.5135 10.8186C95.3924 18.434 103.434 25.9193 111.183 33.5998C112.284 34.7829 113.628 35.715 115.123 36.3327C116.617 36.9504 118.227 37.2393 119.843 37.1797H195.343H207.714C210.743 37.2605 213.661 38.3375 216.015 40.2438C218.37 42.1501 220.029 44.7793 220.737 47.7241C220.965 48.5052 221.161 49.3188 221.356 50.0998V166.805C220.632 169.323 219.638 171.756 218.393 174.062C216.908 176.147 214.895 177.799 212.562 178.852C210.228 179.904 207.656 180.317 205.11 180.05H21.7482C18.1415 180.257 14.592 179.078 11.8262 176.755C9.06033 174.432 7.28717 171.14 6.86955 167.553C6.77711 167.292 6.65705 167.041 6.51143 166.805V21.721C6.65705 21.4849 6.77711 21.234 6.86955 20.9725C7.25666 17.3752 9.02248 14.0676 11.7965 11.7436C14.5706 9.41969 18.1372 8.26002 21.7482 8.50795H47.2404V8.4754ZM47.2404 1.99904H21.7156C16.7474 1.76007 11.8632 3.34549 7.98332 6.45662C4.1034 9.56774 1.49558 13.9898 0.651143 18.8897V18.8897L0 20.2565V168.302L0.651143 169.636C1.54341 174.491 4.14483 178.867 7.98468 181.971C11.8245 185.075 16.6491 186.702 21.5854 186.559H205.11C208.747 186.838 212.394 186.161 215.689 184.597C218.984 183.033 221.813 180.635 223.895 177.642C225.121 175.606 226.073 173.417 226.728 171.133C226.988 170.449 227.184 169.766 227.444 169.115L227.9 167.944V49.4164L227.705 48.6028L227.346 47.2359L227.086 46.227C226.002 41.915 223.54 38.0747 220.073 35.2902C216.605 32.5057 212.323 30.9294 207.877 30.8009L195.343 30.7033H183.785L183.525 37.2122V30.7033H119.973C119.207 30.7639 118.438 30.6454 117.726 30.3573C117.014 30.0693 116.379 29.6195 115.871 29.0435C110.564 23.7388 105.062 18.4666 99.5922 13.4222L92.1041 6.1322C90.6918 4.75196 89.0149 3.67143 87.1742 2.95556C85.3335 2.23969 83.3669 1.90326 81.3928 1.9665H47.2404V1.99904Z" fill="white"/>
<path fill-rule="evenodd" clip-rule="evenodd" d="M99.6216 51.662C102.421 52.443 101.249 53.2566 103.691 52.3779C103.691 52.3779 109.031 51.8247 109.975 53.2566C110.365 53.875 110.756 53.7774 110.951 54.3632C107.956 54.0052 109.779 52.8336 105.514 54.1679C105.514 54.1679 100.631 54.1679 100.045 52.6708C99.5599 52.5477 99.1055 52.3262 98.71 52.0199C98.8257 51.8963 98.9676 51.8 99.1253 51.7381C99.283 51.6761 99.4525 51.6501 99.6216 51.662" fill="#73A580"/>
<path fill-rule="evenodd" clip-rule="evenodd" d="M98.9727 45.0878C99.1354 45.4783 99.1354 46.0315 99.5587 46.1292C99.9819 46.2268 99.5587 45.7712 99.5587 45.5434C99.5587 45.3156 100.112 45.3481 99.9168 44.9901C99.7215 44.6321 98.875 44.8925 98.9727 45.0878Z" fill="#73A580"/>
<path fill-rule="evenodd" clip-rule="evenodd" d="M95.749 50.5557C96.1949 50.7021 96.6523 50.811 97.1164 50.8811C97.5071 50.8811 97.1164 51.3367 97.8652 51.5645C97.4467 51.5473 97.0316 51.4818 96.6281 51.3693C96.4327 51.0438 96.3025 51.0113 95.9118 50.8811C95.8743 50.765 95.8195 50.6553 95.749 50.5557V50.5557Z" fill="#73A580"/>
<path fill-rule="evenodd" clip-rule="evenodd" d="M89.0781 44.665C88.72 45.6414 89.0781 45.1207 89.0781 45.7065L92.3338 46.3899C93.4407 47.3073 94.4647 48.32 95.3942 49.4165C95.557 49.6444 95.9477 49.4165 96.1105 50.2302C98.3243 50.6858 100.148 50.2302 101.971 51.4343C102.199 51.4343 103.989 52.3456 104.315 51.4343C98.7476 50.2302 102.329 48.9935 97.8034 47.8219C97.3195 47.6299 96.8827 47.3357 96.5231 46.9593C96.1635 46.583 95.8894 46.1334 95.7198 45.6414C95.726 45.5656 95.726 45.4894 95.7198 45.4136C95.5244 45.1858 95.264 45.1858 95.264 44.8603C94.4826 44.5349 94.5477 45.8367 92.3664 44.665C92.1059 44.5349 89.2083 44.3071 89.0781 44.665Z" fill="#73A580"/>
<path fill-rule="evenodd" clip-rule="evenodd" d="M59.5801 31.7452C59.7429 31.7452 62.5428 29.9227 62.8358 29.9553C63.1289 29.9878 62.8358 30.118 63.3568 30.2156C64.4637 36.1713 64.5939 32.6565 65.5055 34.5766C73.1239 35.2926 67.2311 35.4553 70.2263 37.2452H70.6821C70.9369 38.2785 71.5776 39.1752 72.4727 39.7512C72.4727 40.1417 72.1797 40.4021 71.6914 40.2393C71.4309 42.1269 69.9333 43.9169 70.5519 45.9672C70.5519 46.2275 70.2589 45.9672 70.324 46.4553C70.6405 47.7197 71.0766 48.951 71.6263 50.1329C71.7599 50.0993 71.8992 50.0953 72.0345 50.1212C72.1698 50.1472 72.2978 50.2024 72.4095 50.283C72.5212 50.3636 72.6139 50.4677 72.681 50.588C72.7482 50.7082 72.7882 50.8417 72.7983 50.979C74.0355 50.7838 75.0773 50.3932 76.3145 50.1654C76.2813 50.3045 76.2813 50.4494 76.3145 50.5885C76.7052 50.5885 76.9331 50.5885 76.9982 50.1654C77.0633 49.7423 76.7703 50.1654 76.8028 49.9376C77.205 49.7492 77.5868 49.5202 77.9423 49.2542C78.2224 48.626 78.4405 47.972 78.5935 47.3015C79.0493 45.9997 81.5562 45.9021 82.7608 46.0323C82.7608 46.0323 83.184 46.0323 83.4771 46.0323C83.998 47.3015 82.2724 47.8873 81.9469 48.9613C81.9469 49.1565 82.305 48.9613 82.2724 49.124C82.2399 49.2867 81.8492 49.124 81.9143 49.3843C81.9794 49.6447 81.5887 50.5885 81.3283 50.979C81.2772 50.8609 81.2509 50.7335 81.2509 50.6048C81.2509 50.476 81.2772 50.3487 81.3283 50.2305C81.1004 50.2305 81.0353 50.621 80.8399 50.7838C80.9814 51.8463 80.7264 52.9238 80.1237 53.8104C79.9198 54.1212 79.6912 54.4151 79.44 54.6891C79.7655 54.6891 80.1888 54.6891 80.3516 54.9169C81.5907 54.6431 82.8652 54.5663 84.1282 54.6891C84.6491 54.266 85.1375 54.6891 85.7886 54.6891C85.984 55.3725 86.9281 55.3074 87.0909 56.0234C86.8304 56.2187 86.8956 56.6743 87.0909 56.9998C85.984 58.0086 86.5049 60.4169 85.5933 61.4584C85.8418 62.8843 86.6211 64.1633 87.7746 65.0383C87.5467 65.0383 87.7746 65.0383 87.6118 65.2986C87.8149 65.3496 88.0274 65.3496 88.2304 65.2986C88.3932 65.0708 87.9374 65.0708 88.2304 64.9732C88.4064 65.1281 88.5502 65.3161 88.6536 65.5264C89.7637 65.4022 90.8147 64.9616 91.6815 64.2572C92.5186 64.2737 93.331 64.5439 94.0112 65.0321C94.6914 65.5202 95.2073 66.2033 95.4906 66.9909C96.0116 66.9909 95.4906 66.1773 95.4906 65.8844C96.4022 65.6892 96.4348 64.5501 97.5417 64.485C97.4452 63.9818 97.5213 63.4607 97.7576 63.006C97.9939 62.5513 98.3767 62.1895 98.844 61.9791C99.1247 62.0205 99.4099 62.0205 99.6905 61.9791C99.6905 61.9791 99.6905 61.556 99.8858 61.4258C100.506 61.5318 101.143 61.4561 101.721 61.2077C102.299 60.9594 102.792 60.5491 103.142 60.0264C103.435 60.2868 103.76 59.4731 104.411 59.8311C104.411 60.0589 104.574 60.059 104.411 60.3193C104.249 60.5797 103.63 60.9377 103.076 61.0678C103.379 61.4942 103.51 62.0186 103.444 62.5371C103.377 63.0556 103.118 63.5302 102.718 63.8667C102.881 64.3223 103.304 64.5175 103.272 65.0057H104.183C104.448 64.6613 104.586 64.2359 104.574 63.8016C104.233 63.4372 103.997 62.9874 103.89 62.4998C104.216 61.5235 105.876 61.914 106.3 61.0353C105.714 61.0353 105.974 60.0915 106.3 60.124C106.625 60.1566 106.528 60.9376 106.755 61.2306C107.862 61.2306 109.002 61.2306 108.839 62.6951C109.816 63.0205 110.89 62.4347 112.095 62.6951C112.778 64.1596 114.667 63.3459 115.806 62.8578C115.546 62.8578 115.057 62.8578 115.025 62.6951C115.741 62.6951 117.336 62.3696 118.281 62.6951C118.281 62.988 117.662 62.6951 117.369 62.8578C117.597 63.1832 117.988 63.3785 118.02 63.8992C118.281 63.8992 118.216 63.6388 118.476 63.7039C118.736 63.769 119.908 64.127 120.462 64.6803C120.561 65.0203 120.561 65.3817 120.462 65.7217C120.69 65.7217 120.722 65.7217 120.918 66.0146C121 65.9497 121.094 65.9018 121.194 65.8739C121.295 65.8459 121.4 65.8385 121.504 65.8519C122.643 66.5679 124.043 67.0235 124.239 68.6507C124.662 68.734 125.059 68.92 125.394 69.1924C125.729 69.4648 125.992 69.8152 126.159 70.2128C126.583 69.8548 127.462 70.2128 127.918 70.2128C129.221 69.8992 130.588 69.9791 131.845 70.4426C133.103 70.9061 134.195 71.7322 134.982 72.8164C134.982 72.8164 134.82 72.556 134.982 72.5235C136.154 73.1418 135.568 75.5176 136.578 76.3312C136.578 76.0709 136.415 75.9407 136.578 75.9081C136.741 75.8756 136.806 76.1034 136.871 76.2336C136.936 76.3638 136.675 76.4288 136.643 76.5916C137.88 76.3312 137.62 78.4466 136.643 78.2839C136.48 78.9999 135.731 79.1626 135.341 79.6833C135.764 79.6833 135.145 80.0087 135.341 80.2366C135.536 80.4644 135.666 79.488 136.122 79.3904C136.578 79.2928 136.382 79.3904 136.382 79.3904C136.382 79.3904 136.122 79.6833 136.187 80.0413C136.415 79.8135 136.513 79.488 136.871 79.3904C137.75 79.9762 139.02 79.3904 139.899 79.8135C139.671 80.9525 139.215 81.8312 138.173 82.059C138.792 82.059 138.173 82.4821 138.368 82.6774C139.085 81.7987 140.289 80.2366 141.624 80.3016C141.88 80.3208 142.128 80.3947 142.353 80.5182C142.578 80.6417 142.773 80.812 142.926 81.0176C143.773 81.0176 144.098 81.4082 144.684 81.5058C144.684 81.7336 144.684 81.8312 144.684 82.059C144.684 82.2869 145.01 81.6034 145.531 81.7336C146.052 81.8638 146.084 82.5472 146.215 83.0679C146.345 83.5886 145.563 83.8164 145.857 84.0443C145.92 83.8458 146.029 83.6654 146.177 83.5182C146.324 83.371 146.504 83.2612 146.703 83.1981C146.703 83.491 146.475 83.5561 146.41 83.7514C146.345 83.9466 146.801 83.3934 147.061 83.2632C147.322 83.133 147.517 83.2632 147.745 83.0679C148.624 83.6212 149.535 83.5561 150.317 83.9792C153.931 83.2306 155.038 85.7366 156.828 87.2336C157.447 87.5265 158.586 87.2336 159.27 87.5916C159.935 89.0262 160.094 90.6436 159.721 92.1801C159.349 93.7167 158.467 95.0819 157.219 96.0532C155.559 96.8017 155.396 99.0798 153.963 99.9585C153.963 99.7958 153.963 99.5355 153.963 99.4053C153.963 99.2751 153.573 99.4053 153.605 99.8284C153.638 100.251 153.8 99.8284 153.8 99.8284C153.8 99.8284 153.507 100.154 153.247 100.186C152.968 102.635 152.467 105.053 151.749 107.411C150.284 108.746 150.545 111.479 148.722 112.228C148.722 112.911 148.103 113.009 148.266 113.92C147.452 114.148 146.67 114.506 146.54 115.222C145.278 115.222 144.017 115.298 142.764 115.45C142.764 115.645 143.089 115.71 142.764 115.775C142.438 115.84 141.787 115.775 141.559 116.328C141.331 116.882 141.885 116.328 141.787 116.621C139.964 116.133 138.531 117.923 137.131 118.932C137.131 118.932 137.131 118.574 137.131 118.639C136.844 119.592 136.669 120.575 136.61 121.568C136.61 121.568 136.871 121.568 136.871 121.568C136.871 121.568 136.871 121.894 136.643 121.894C136.415 121.894 136.643 121.698 136.448 121.894C136.252 122.089 136.22 122.74 136.154 123.228C133.973 124.009 133.843 126.808 131.727 127.621C131.727 127.459 131.922 127.101 132.345 127.198C132.345 126.417 133.322 126.385 133.355 125.473C133.127 125.473 133.029 125.734 132.736 125.734C132.443 125.734 132.476 125.506 132.476 125.246C132.491 125.633 132.387 126.016 132.177 126.342C131.967 126.668 131.662 126.921 131.303 127.068C131.303 127.491 130.88 127.556 130.88 127.979C130.88 128.402 131.108 127.979 131.076 127.979L130.424 128.826C129.09 130.941 127.69 133.089 125.183 133.089C124.434 132.405 122.871 132.796 122.318 131.917C122.318 132.243 122.122 132.308 122.122 132.698C122.122 133.089 123.62 133.154 123.848 134.033C123.848 134.391 123.425 134.423 123.457 134.846C123.49 135.269 124.141 135.237 124.336 135.595C123.653 139.142 119.746 140.346 116.685 140.281C116.913 140.281 116.685 140.737 116.685 140.965C116.685 141.192 117.043 140.965 117.043 140.965C116.814 141.494 116.619 142.038 116.457 142.592C116.457 142.592 116.75 142.592 116.783 142.82C116.099 144.349 114.048 143.568 113.202 143.536C112.909 144.219 113.43 144.545 113.202 145.423C113.365 145.651 113.951 145.423 113.885 145.846C114.406 145.846 114.374 145.293 114.797 145.195C115.22 145.098 115.025 145.684 114.96 146.139C114.895 146.595 114.537 146.334 114.374 146.465C114.289 146.31 114.224 146.146 114.178 145.976C113.853 145.976 113.332 145.976 113.365 146.432C113.397 146.888 114.016 146.432 114.081 146.66C113.137 146.953 112.844 147.734 113.039 148.873C112.681 148.873 112.551 149.394 112.583 149.621C112.071 149.656 111.585 149.861 111.201 150.203C110.818 150.545 110.56 151.004 110.467 151.509C110.727 152.453 111.867 152.355 112.616 152.681C112.616 154.34 111.346 154.275 110.792 155.154C111.02 156.619 109.979 156.651 109.393 157.237C109.393 158.571 109.816 158.636 110.239 159.352C109.783 159.352 109.295 159.124 109.197 159.743C109.751 159.743 110.565 159.385 110.304 160.459C111.27 161.139 112.388 161.575 113.56 161.728C112.681 162.379 111.411 162.184 110.565 162.965C110.174 162.965 110.076 162.737 109.718 162.639C109.36 162.542 109.979 162.9 109.718 162.997C109.458 163.095 109.165 162.639 108.937 162.411C108.709 162.184 108.383 163.16 108.155 162.672C107.927 162.184 108.351 162.672 108.383 162.672C108.416 162.672 107.537 162.672 107.081 162.477C107.081 162.151 107.602 162.477 107.602 162.086C107.476 162.167 107.329 162.211 107.179 162.211C107.029 162.211 106.882 162.167 106.755 162.086C106.495 162.086 106.951 162.509 106.593 162.444C106.234 162.379 106.169 162.053 105.909 161.956C105.648 161.858 105.909 162.151 105.909 162.216C105.909 162.281 105.225 161.761 105.062 161.63C104.9 161.5 105.518 161.24 105.811 161.11C105.421 161.272 105.453 160.882 105.095 161.11C104.737 161.338 105.095 160.947 105.095 160.752C105.095 160.556 104.835 160.752 104.672 160.752C104.509 160.752 104.672 160.556 104.672 160.231C104.672 159.906 104.444 160.426 104.314 160.231C104.183 160.036 104.314 159.84 104.118 159.71C103.923 159.58 104.411 159.515 104.444 159.255C104.476 158.994 104.086 159.027 104.021 158.799C103.886 159.047 103.682 159.25 103.435 159.385C103.435 158.994 103.435 158.897 103.272 158.376C103.109 157.855 103.435 158.669 103.63 158.376C103.825 158.083 103.239 158.376 103.337 157.985C103.435 157.595 103.597 157.985 103.565 157.79C103.532 157.595 102.783 157.497 102.328 157.172C102.328 156.977 102.328 156.716 102.328 156.553C101.579 156.749 102.002 155.61 101.742 155.187C102.067 155.187 102.002 154.959 102.132 154.633C102.686 154.829 102.653 155.707 103.142 155.935C103.142 155.479 102.653 155.284 102.849 154.796C103.044 154.308 102.588 154.796 102.556 154.796C102.523 154.796 102.881 154.21 102.979 153.559C102.525 153.588 102.07 153.522 101.644 153.364C101.383 153.364 101.904 153.69 101.644 153.82C101.383 153.95 101.286 153.82 101.383 153.429C101.59 153.126 101.87 152.88 102.197 152.713C102.197 152.355 101.807 152.713 101.839 152.42C101.985 152.293 102.167 152.213 102.36 152.192C102.344 151.716 102.421 151.24 102.588 150.793C102.23 150.793 102.165 150.793 102.295 150.468C102.425 150.142 102.295 150.761 102.002 150.695C102.174 150.454 102.286 150.175 102.328 149.882C102.328 150.272 102.588 149.882 102.751 149.882C102.914 149.882 103.174 150.272 103.239 150.663C103.304 151.053 103.239 150.663 103.011 150.663C103.111 150.959 103.111 151.278 103.011 151.574C103.067 151.603 103.128 151.618 103.19 151.618C103.253 151.618 103.314 151.603 103.369 151.574C103.369 151.184 103.142 150.175 103.369 150.11C103.597 150.045 103.142 150.11 103.174 149.784C103.207 149.459 103.174 149.036 103.174 148.58C103.728 148.092 103.174 147.213 103.5 146.725C102.914 146.725 103.5 146.237 103.239 146.009C102.979 145.781 103.011 146.79 102.425 146.627C102.718 147.181 102.425 147.734 102.621 148.32C102.425 148.32 102.621 148.743 102.393 148.84C102.165 148.938 101.742 148.84 101.676 148.84C101.744 148.18 101.744 147.515 101.676 146.855H102.1C101.672 145.987 101.568 144.994 101.807 144.056C102.751 142.755 101.188 141.323 101.383 139.923C101.546 139.923 101.807 139.923 101.97 139.923C101.951 139.674 101.951 139.424 101.97 139.175C102.669 137.486 103.235 135.745 103.662 133.968C103.985 132.097 104.159 130.203 104.183 128.305C104.183 128.305 104.379 128.11 104.542 128.077C104.704 128.044 104.379 127.589 104.542 127.621C104.542 127.036 104.249 126.547 104.118 125.962C104.588 124.943 104.812 123.828 104.769 122.707C105.193 121.508 105.359 120.232 105.258 118.965C105.229 118.06 105.294 117.155 105.453 116.263C105.453 115.97 105.16 116.263 105.128 116.068V115.547C105.253 115.497 105.393 115.497 105.518 115.547C105.615 115.042 105.681 114.531 105.714 114.018V114.018C105.764 112.073 105.589 110.129 105.193 108.225C104.607 107.964 104.249 107.509 103.695 107.216C101.579 104.775 97.1836 104.58 95.9139 101.26C96.1092 101.26 96.0767 101.26 96.1743 101.26C95.6294 99.8429 94.8232 98.5403 93.7977 97.4201C94.0256 97.4201 93.7977 97.0946 93.7977 96.8668C92.5931 95.1094 91.8442 92.9615 90.7373 91.1064C90.2815 90.0975 88.849 89.9999 88.4257 88.9259C88.4663 88.9415 88.5096 88.9487 88.553 88.9473C88.5964 88.9458 88.6391 88.9357 88.6785 88.9175C88.718 88.8993 88.7534 88.8734 88.7826 88.8413C88.8119 88.8092 88.8345 88.7716 88.849 88.7307C88.849 88.3076 88.5234 88.1449 88.2955 87.8845C88.0676 87.6242 88.4909 87.8845 88.4583 87.5265C87.2862 85.8017 90.2164 85.4437 90.4117 83.9141C90.4117 83.6537 90.021 83.9141 90.0536 83.5561C90.0862 83.1981 89.8257 83.9466 89.5001 83.9141C89.1746 83.8815 88.9141 83.491 88.6862 83.1981C89.1746 82.6774 88.6862 81.8638 88.6862 81.1803C89.2722 81.1803 89.3699 80.5945 89.2722 80.204C89.5743 80.0218 89.8041 79.7409 89.9228 79.4088C90.0414 79.0767 90.0416 78.7138 89.9234 78.3815C90.4443 77.9259 91.6163 78.1212 91.7791 77.275C91.7791 77.0797 91.4861 77.275 91.5512 76.917C91.6163 76.559 92.1047 76.917 92.2675 76.7217C91.6815 75.7129 92.821 75.3549 93.5698 75.2572C93.5698 74.4111 94.3186 74.1833 94.579 73.4998C94.286 73.6951 94.0907 73.3371 94.3837 73.2069C94.1558 73.2069 94.0256 73.2069 93.9605 73.0117C94.1609 72.6714 94.2665 72.2837 94.2665 71.8889C94.2665 71.494 94.1609 71.1064 93.9605 70.7661C93.9605 70.7661 94.286 70.7661 94.3837 70.7661C94.3837 70.0827 93.9605 69.8874 94.3837 69.3667C93.6859 68.6808 93.1518 67.8465 92.821 66.9258C93.2442 66.9258 93.0163 66.6655 93.1791 66.4377C93.3419 66.2099 92.8535 66.4377 92.7558 66.4377C92.6582 66.4377 92.1047 65.6566 91.5838 65.4613C91.0629 65.2661 91.2908 65.7868 90.9652 65.7542C90.9136 65.9351 90.9136 66.1267 90.9652 66.3075C90.542 66.3075 90.4768 66.7957 89.9234 66.7306C89.9234 67.3815 90.4443 67.4466 90.5094 67.9998C89.9885 67.9998 89.7606 68.6507 89.1094 68.3253C89.2722 68.0324 89.1094 67.772 89.1094 67.414C89.1094 67.056 89.1094 67.7069 88.849 67.772C88.263 67.1862 87.4165 66.2099 86.4072 66.8608C86.1467 66.6329 86.2444 66.0471 85.7886 66.0146C85.3328 65.9821 86.1142 66.34 85.7886 66.5028C85.672 66.5013 85.5581 66.467 85.4602 66.4036C85.3623 66.3403 85.2842 66.2505 85.2351 66.1448C85.3227 66.0808 85.3946 65.9977 85.4453 65.9019C85.4961 65.806 85.5244 65.6999 85.5282 65.5915C85.1699 65.1622 84.695 64.8457 84.1608 64.6803C84.1608 64.2247 83.7701 63.7365 83.3794 63.8341C82.9887 63.9317 83.7701 63.9968 83.7375 64.2572C83.7048 64.3378 83.6562 64.4109 83.5947 64.4724C83.5332 64.5339 83.46 64.5825 83.3794 64.6152C82.8259 64.1921 82.1097 63.6714 82.7934 62.7927C82.7934 62.63 82.4678 62.7927 82.5003 62.4998H82.7934C82.06 61.3732 81.2666 60.2869 80.4167 59.2453C80.612 59.0175 80.7097 59.4732 80.905 59.2453C81.1004 59.0175 80.5144 58.7897 80.905 58.5944C80.7039 58.6592 80.4876 58.6592 80.2865 58.5944C80.2865 58.8223 80.2865 58.8873 80.0586 58.9524C78.8539 59.1477 78.7237 58.3015 77.6168 58.3992C77.6168 58.0412 77.0307 58.0086 76.8028 57.7483H76.3145C74.2959 57.5205 74.068 55.5353 73.0588 54.4938C72.6681 54.4938 72.5704 54.1033 72.1797 54.4938C71.789 54.8844 72.1797 54.4938 72.1797 54.2009C72.1797 53.908 72.017 54.2009 71.7565 54.2009C71.1705 54.7867 69.5752 55.7956 68.7287 54.8193C66.8228 54.2622 65.1384 53.1245 63.9102 51.5648C63.0422 51.4051 62.2576 50.9466 61.6926 50.2688C61.1276 49.5911 60.8179 48.737 60.8173 47.8548L61.3057 47.6595C61.3057 47.3991 61.1429 47.4642 61.3057 47.2364C62.7707 45.479 60.7196 42.7453 60.8173 41.0855C60.46 40.7933 60.1328 40.4663 59.8406 40.1092C59.8406 39.621 60.3289 39.4583 60.4266 38.9701C60.5243 38.4819 59.9383 38.6772 60.101 38.1565C59.4825 38.1565 59.9383 37.408 60.101 37.0174C60.2638 36.6269 59.6778 37.0174 59.6127 36.8222C59.5476 36.6269 59.6127 36.1062 59.6127 35.618C59.6127 35.1298 59.3197 35.9109 59.1243 35.618C58.929 35.3251 59.3848 35.1949 59.6778 35.1298C59.6368 34.1976 59.827 33.2697 60.2313 32.4286C59.9383 32.4286 59.9708 32.1032 59.9708 31.9405" fill="#73A580"/>
<path d="M59.4151 280.678C59.4274 282.508 59.0384 284.319 58.2756 285.983C57.5307 287.634 56.4169 289.093 55.0199 290.246C53.502 291.495 51.7545 292.434 49.8758 293.012C47.6021 293.728 45.2269 294.069 42.8435 294.021H21.0302V290.311C20.9931 289.852 21.1349 289.395 21.426 289.038C21.7172 288.68 22.1352 288.448 22.593 288.391H22.9511H23.3743C23.5472 288.369 23.7223 288.369 23.8952 288.391L25.7836 288.066V254.903L23.8952 254.577H23.3743C23.2347 254.548 23.0907 254.548 22.9511 254.577H22.593C22.1358 254.505 21.7221 254.265 21.433 253.904C21.1439 253.543 21.0002 253.086 21.0302 252.625V248.687H41.411C43.9633 248.647 46.5109 248.921 48.9968 249.5C50.89 249.943 52.6662 250.787 54.2059 251.974C55.5013 252.963 56.5122 254.276 57.1361 255.782C57.7699 257.353 58.0906 259.034 58.0802 260.728C58.1143 261.829 57.9714 262.928 57.657 263.983C57.3123 264.977 56.7942 265.903 56.1268 266.716C55.3908 267.579 54.5485 268.344 53.6199 268.995C52.5054 269.709 51.3152 270.299 50.0712 270.752C56.2896 271.956 59.4151 275.308 59.4151 280.678ZM40.9552 268.311C43.2337 268.46 45.5039 267.916 47.4666 266.749C48.2214 266.163 48.8168 265.398 49.198 264.522C49.5792 263.646 49.7339 262.688 49.6479 261.737C49.7359 260.801 49.5985 259.858 49.2474 258.986C48.8962 258.114 48.3414 257.339 47.6294 256.725C45.7619 255.565 43.5691 255.04 41.3784 255.228H34.1833V268.246L40.9552 268.311ZM51.0479 280.483C51.0437 279.582 50.8783 278.689 50.5595 277.847C50.2646 277.062 49.771 276.366 49.127 275.829C48.3482 275.27 47.4778 274.852 46.555 274.592C45.3018 274.263 44.0088 274.109 42.7133 274.137H34.1833V287.447H42.7784C44.1159 287.487 45.4497 287.288 46.7178 286.862C47.6676 286.563 48.5364 286.051 49.2572 285.364C49.8763 284.754 50.3444 284.007 50.6246 283.184C50.9304 282.317 51.0739 281.402 51.0479 280.483V280.483Z" fill="#E5E5E5"/>
<path d="M91.7488 290.247V293.957H84.3583C83.7542 293.999 83.1493 293.887 82.6002 293.631C82.177 293.631 81.8839 293.013 81.656 292.265L80.9723 290.019C80.234 290.723 79.4391 291.365 78.5957 291.939C77.8188 292.467 77.0024 292.935 76.1539 293.338C75.3019 293.691 74.4191 293.963 73.5168 294.152C72.4435 294.354 71.3532 294.453 70.2611 294.445C68.9801 294.472 67.7037 294.285 66.4844 293.892C65.4015 293.545 64.3956 292.992 63.5217 292.265C62.7984 291.517 62.2336 290.632 61.8613 289.661C61.3901 288.47 61.1578 287.199 61.1776 285.918C61.0753 284.611 61.3107 283.3 61.8613 282.111C62.6221 280.744 63.7497 279.617 65.117 278.856C66.9688 277.798 68.9815 277.051 71.075 276.643C74.0945 275.944 77.19 275.626 80.2886 275.699V273.714C80.4021 271.999 79.9191 270.297 78.9212 268.898C78.4138 268.343 77.7865 267.91 77.087 267.634C76.3874 267.358 75.6341 267.244 74.8842 267.303C73.78 267.249 72.6756 267.404 71.6285 267.758C70.8643 268.034 70.1239 268.371 69.4146 268.767L67.7216 269.711C67.211 270.015 66.6223 270.162 66.0286 270.134C65.5489 270.14 65.0766 270.016 64.6612 269.776C64.3149 269.49 64.018 269.149 63.7822 268.767L62.3497 266.327C65.9598 262.941 70.7486 261.096 75.6981 261.184C77.438 261.146 79.1671 261.467 80.777 262.128C82.1873 262.704 83.4543 263.581 84.4885 264.699C85.5271 265.847 86.3342 267.184 86.8652 268.637C87.4785 270.241 87.8303 271.933 87.907 273.649V287.871L89.6 288.196H90.2837C90.7489 288.276 91.1639 288.536 91.4382 288.92C91.7126 289.304 91.8242 289.781 91.7488 290.247ZM74.6563 280.744C73.3823 280.976 72.1377 281.347 70.9448 281.85C70.1663 282.173 69.4909 282.702 68.9913 283.38C68.61 283.946 68.4163 284.618 68.4379 285.3C68.363 285.853 68.4315 286.415 68.6367 286.934C68.8419 287.452 69.1771 287.91 69.6099 288.262C70.5736 288.894 71.7144 289.202 72.8656 289.14C73.5973 289.146 74.3279 289.08 75.0469 288.945C75.7313 288.826 76.3913 288.595 77.0004 288.262C77.5865 287.939 78.152 287.58 78.6933 287.188C79.2794 286.732 79.8328 286.211 80.3863 285.691V280.288C78.4658 280.247 76.5461 280.4 74.6563 280.744V280.744Z" fill="#E5E5E5"/>
<path d="M131.63 290.311V294.021H119.16V273.583C119.247 271.941 118.764 270.32 117.793 268.994C117.284 268.43 116.652 267.991 115.947 267.709C115.241 267.427 114.481 267.31 113.723 267.367C112.405 267.362 111.107 267.686 109.947 268.31C108.749 268.963 107.653 269.785 106.691 270.751V287.805L108.514 288.13L109.458 288.325H109.816C110.274 288.383 110.692 288.614 110.983 288.972C111.274 289.33 111.416 289.786 111.379 290.245V293.956H94.1564V290.311C94.1193 289.851 94.2611 289.395 94.5522 289.037C94.8434 288.679 95.2614 288.448 95.7192 288.39H96.0773L97.0214 288.195L98.8446 287.87V268.083L97.0214 267.757H96.5005H96.0773H95.7192C95.2587 267.692 94.8404 267.454 94.5499 267.091C94.2594 266.728 94.1187 266.268 94.1564 265.805V261.867H103.598C104.039 261.845 104.473 261.975 104.829 262.236C105.185 262.497 105.44 262.872 105.551 263.299L106.105 265.805C106.715 265.131 107.391 264.521 108.123 263.982C108.845 263.448 109.619 262.99 110.435 262.615C111.261 262.22 112.122 261.904 113.007 261.671C114.004 261.47 115.018 261.361 116.035 261.346C117.642 261.304 119.24 261.603 120.723 262.225C121.969 262.827 123.078 263.68 123.979 264.731C124.909 265.892 125.615 267.217 126.062 268.636C126.629 270.225 126.937 271.896 126.974 273.583V287.805L128.862 288.13C129.035 288.108 129.21 288.108 129.383 288.13H129.806H130.165C130.408 288.168 130.642 288.256 130.85 288.389C131.058 288.522 131.236 288.696 131.374 288.9C131.511 289.105 131.605 289.336 131.649 289.579C131.693 289.821 131.686 290.071 131.63 290.311Z" fill="#E5E5E5"/>
<path d="M158.03 291.775C156.986 292.397 155.898 292.941 154.774 293.403C153.713 293.762 152.624 294.034 151.518 294.216C150.376 294.383 149.222 294.459 148.067 294.444C146.15 294.479 144.245 294.124 142.468 293.403C140.739 292.645 139.187 291.537 137.91 290.148C136.475 288.657 135.367 286.883 134.654 284.941C133.855 282.663 133.469 280.26 133.514 277.846C133.48 275.635 133.821 273.434 134.524 271.337C135.183 269.408 136.199 267.62 137.519 266.065C138.872 264.569 140.54 263.391 142.402 262.616C144.531 261.749 146.811 261.318 149.109 261.346C152.69 261.476 156.219 262.247 159.528 263.624V273.388H155.946C155.599 273.407 155.258 273.293 154.992 273.069C154.725 272.845 154.555 272.529 154.514 272.184L153.993 267.692C152.649 267.294 151.259 267.075 149.858 267.042C148.619 267.012 147.391 267.28 146.277 267.823C145.275 268.274 144.411 268.981 143.77 269.873C143.051 270.851 142.521 271.955 142.207 273.127C141.88 274.569 141.717 276.043 141.719 277.521C141.684 279.069 141.87 280.614 142.272 282.11C142.586 283.282 143.116 284.386 143.835 285.364C144.52 286.213 145.374 286.911 146.342 287.414C147.369 287.862 148.477 288.095 149.598 288.098C150.624 288.145 151.651 288.002 152.625 287.675C153.305 287.418 153.95 287.079 154.546 286.666L155.23 286.21L155.946 285.657C156.291 285.365 156.732 285.214 157.183 285.234C157.466 285.207 157.751 285.256 158.009 285.376C158.267 285.497 158.487 285.683 158.648 285.917L160.83 288.749C160.019 289.865 159.079 290.88 158.03 291.775Z" fill="#E5E5E5"/>
<path d="M184.992 262.551C186.884 263.268 188.604 264.377 190.038 265.805C191.481 267.289 192.591 269.065 193.294 271.012C194.072 273.206 194.458 275.519 194.433 277.847C194.455 280.195 194.07 282.529 193.294 284.746C192.548 286.692 191.444 288.48 190.038 290.018C188.624 291.471 186.899 292.584 184.992 293.273C182.909 294.046 180.701 294.421 178.48 294.379C176.261 294.407 174.054 294.033 171.969 293.273C170.071 292.584 168.356 291.471 166.955 290.018C165.491 288.525 164.379 286.724 163.699 284.746C162.923 282.529 162.538 280.195 162.56 277.847C162.535 275.519 162.921 273.206 163.699 271.012C164.411 269.069 165.52 267.296 166.955 265.805C168.371 264.37 170.082 263.26 171.969 262.551C174.048 261.757 176.254 261.349 178.48 261.347C180.707 261.34 182.915 261.749 184.992 262.551V262.551ZM184.373 285.82C185.656 283.381 186.327 280.667 186.327 277.912C186.327 275.156 185.656 272.442 184.373 270.003C183.72 269.066 182.832 268.317 181.797 267.831C180.763 267.346 179.619 267.141 178.48 267.237C177.33 267.196 176.188 267.439 175.155 267.944C174.121 268.449 173.228 269.201 172.555 270.134C171.078 272.52 170.384 275.307 170.569 278.107C170.423 280.821 171.117 283.513 172.555 285.82C173.261 286.727 174.18 287.445 175.231 287.911C176.282 288.377 177.432 288.575 178.578 288.489C179.692 288.578 180.81 288.38 181.825 287.912C182.84 287.445 183.717 286.724 184.373 285.82V285.82Z" fill="#E5E5E5"/>
<path d="M235.552 293.891C235.104 293.887 234.666 293.763 234.282 293.533C233.932 293.269 233.69 292.887 233.598 292.459L232.98 289.66C231.713 291.104 230.203 292.315 228.519 293.24C226.682 294.193 224.631 294.664 222.561 294.607C220.916 294.651 219.284 294.294 217.808 293.565C216.313 292.79 215.019 291.675 214.032 290.311C212.889 288.741 212.07 286.96 211.622 285.071C211.018 282.778 210.722 280.414 210.743 278.042C210.741 275.838 211.059 273.645 211.687 271.533C212.283 269.59 213.244 267.778 214.52 266.196C215.692 264.725 217.17 263.526 218.85 262.681C220.612 261.782 222.57 261.335 224.547 261.379C226.032 261.358 227.506 261.636 228.882 262.195C230.258 262.754 231.507 263.583 232.557 264.633V253.666L230.766 253.34H230.212H229.822H229.431C228.973 253.283 228.555 253.052 228.264 252.694C227.973 252.336 227.831 251.88 227.868 251.42V247.352H240.338V287.74L241.966 288L242.779 288.196H243.17C243.628 288.253 244.046 288.484 244.337 288.842C244.628 289.2 244.77 289.656 244.733 290.116V293.891H235.552ZM229.724 267.855C228.69 267.43 227.586 267.198 226.468 267.172C225.346 267.155 224.234 267.389 223.213 267.855C222.249 268.308 221.41 268.989 220.771 269.841C220.101 270.839 219.595 271.937 219.273 273.095C218.908 274.685 218.744 276.314 218.785 277.944C218.744 279.56 218.886 281.176 219.208 282.761C219.425 283.926 219.879 285.034 220.543 286.015C221.015 286.802 221.705 287.435 222.529 287.838C223.395 288.241 224.341 288.441 225.296 288.423C226.741 288.469 228.17 288.121 229.431 287.415C230.683 286.654 231.786 285.672 232.687 284.518V270.133C231.92 269.116 230.898 268.318 229.724 267.823V267.855Z" fill="#E5E5E5"/>
<path d="M267.719 262.291C269.378 262.923 270.879 263.912 272.114 265.187C273.38 266.499 274.356 268.063 274.979 269.776C275.713 271.731 276.077 273.806 276.054 275.894C276.102 276.403 276.102 276.915 276.054 277.424C276.027 277.717 275.95 278.003 275.826 278.27C275.706 278.513 275.495 278.7 275.24 278.791C274.949 278.843 274.651 278.843 274.361 278.791H254.501C254.469 281.5 255.43 284.128 257.203 286.178C258.017 286.962 258.983 287.571 260.041 287.968C261.099 288.366 262.227 288.543 263.356 288.489C264.458 288.533 265.558 288.389 266.612 288.066C267.45 287.819 268.258 287.48 269.021 287.057C269.315 286.886 269.62 286.734 269.933 286.601L270.844 286.113C271.269 285.832 271.768 285.684 272.277 285.69C272.581 285.686 272.882 285.753 273.156 285.885C273.312 286.025 273.424 286.205 273.482 286.406L275.728 289.237C274.882 290.209 273.92 291.072 272.863 291.808C271.831 292.451 270.741 292.996 269.607 293.436C268.433 293.785 267.236 294.057 266.026 294.249C264.862 294.415 263.686 294.491 262.51 294.477C260.39 294.519 258.282 294.166 256.291 293.436C254.418 292.699 252.713 291.592 251.278 290.181C249.84 288.618 248.733 286.78 248.022 284.779C247.191 282.384 246.794 279.86 246.85 277.326C246.857 275.233 247.209 273.154 247.892 271.175C248.612 269.275 249.721 267.546 251.147 266.098C252.508 264.688 254.15 263.58 255.966 262.844C259.83 261.273 264.134 261.157 268.077 262.518L267.719 262.291ZM257.008 268.799C255.627 270.277 254.759 272.16 254.533 274.169H269.086C269.082 273.221 268.939 272.278 268.663 271.37C268.383 270.52 267.953 269.727 267.393 269.027C266.824 268.344 266.098 267.808 265.277 267.465C264.322 267.052 263.291 266.841 262.249 266.847C261.286 266.799 260.323 266.95 259.421 267.292C258.519 267.634 257.697 268.158 257.008 268.832V268.799Z" fill="#E5E5E5"/>
<path d="M308.738 254.414C308.599 254.385 308.455 254.385 308.315 254.414H307.794L305.971 254.739V287.805L307.794 288.13H308.315H308.738H309.097C309.554 288.187 309.972 288.419 310.264 288.776C310.555 289.134 310.696 289.59 310.659 290.05V293.76H292.72V290.31C292.684 289.846 292.83 289.385 293.128 289.027C293.426 288.668 293.852 288.44 294.316 288.39H294.674L295.618 288.195L297.506 287.87V254.902L295.618 254.577H295.097C294.957 254.548 294.813 254.548 294.674 254.577H294.316C293.853 254.512 293.431 254.275 293.135 253.913C292.839 253.551 292.691 253.09 292.72 252.624V248.686H310.659V252.396C310.689 252.858 310.546 253.314 310.257 253.675C309.967 254.036 309.554 254.277 309.097 254.349L308.738 254.414Z" fill="#E5E5E5"/>
<path d="M350.67 290.311V294.021H338.201V273.583C338.292 271.936 337.796 270.31 336.801 268.994C336.294 268.427 335.663 267.985 334.957 267.702C334.251 267.42 333.489 267.305 332.731 267.367C331.424 267.366 330.137 267.691 328.987 268.311C327.79 268.963 326.693 269.785 325.731 270.752V287.805L327.522 288.131L328.466 288.326H328.857C329.315 288.383 329.733 288.615 330.024 288.972C330.315 289.33 330.457 289.786 330.419 290.246V293.956H313.164V290.311C313.127 289.851 313.269 289.395 313.56 289.037C313.851 288.68 314.269 288.448 314.727 288.391H315.118L316.062 288.196L317.885 287.87V268.083L316.062 267.758H315.541H315.118H314.727C314.266 267.693 313.848 267.454 313.558 267.091C313.267 266.729 313.126 266.268 313.164 265.805V261.867H322.638C323.079 261.845 323.514 261.976 323.869 262.236C324.225 262.497 324.48 262.872 324.592 263.299L325.145 265.805C325.756 265.132 326.432 264.521 327.164 263.982C327.885 263.448 328.66 262.99 329.475 262.616C330.299 262.216 331.161 261.9 332.047 261.672C333.034 261.472 334.036 261.363 335.043 261.346C336.661 261.302 338.27 261.601 339.763 262.225C341.01 262.828 342.118 263.681 343.019 264.731C343.949 265.893 344.656 267.217 345.103 268.636C345.592 270.239 345.823 271.908 345.786 273.583V287.805L347.642 288.131H348.196H348.586H348.977C349.241 288.139 349.499 288.205 349.735 288.324C349.97 288.444 350.176 288.614 350.337 288.822C350.499 289.031 350.613 289.272 350.67 289.529C350.728 289.787 350.728 290.054 350.67 290.311Z" fill="#E5E5E5"/>
<path d="M389.353 265.545C389.39 266.008 389.25 266.468 388.959 266.831C388.669 267.194 388.25 267.433 387.79 267.497H387.041L384.86 267.953L374.506 293.989H367.474L357.121 267.953L354.191 267.367C353.73 267.302 353.312 267.064 353.022 266.701C352.731 266.338 352.59 265.878 352.628 265.415V261.867H368.288V265.545C368.326 266.008 368.185 266.468 367.895 266.831C367.604 267.194 367.186 267.433 366.725 267.497L364.967 267.823L369.558 280.483C369.753 281.068 370.046 282.045 370.437 283.412C370.73 284.551 370.958 285.527 371.121 286.308C371.414 284.876 371.609 283.932 371.739 283.412C372.005 282.42 372.32 281.443 372.683 280.483L377.339 267.888L375.776 267.595H375.255C374.795 267.53 374.377 267.292 374.086 266.929C373.796 266.566 373.655 266.106 373.693 265.642V261.867H389.353V265.545Z" fill="#E5E5E5"/>
<path d="M412.305 262.29C413.964 262.923 415.465 263.912 416.7 265.187C417.978 266.496 418.965 268.059 419.598 269.776C420.331 271.731 420.695 273.806 420.672 275.894C420.704 276.403 420.704 276.914 420.672 277.423C420.641 277.72 420.552 278.007 420.412 278.27C420.359 278.389 420.283 278.497 420.188 278.586C420.093 278.675 419.981 278.745 419.858 278.79C419.567 278.843 419.27 278.843 418.979 278.79H399.087C399.086 281.455 400.046 284.031 401.789 286.048C402.6 286.836 403.565 287.448 404.624 287.846C405.683 288.244 406.813 288.418 407.942 288.358C409.044 288.402 410.144 288.259 411.198 287.935C412.025 287.689 412.822 287.35 413.575 286.926C413.868 286.755 414.173 286.603 414.486 286.471L415.398 285.983C415.824 285.705 416.322 285.558 416.83 285.56C417.135 285.547 417.438 285.615 417.709 285.755C417.954 285.848 418.16 286.02 418.295 286.243L420.542 289.074C419.685 290.047 418.712 290.91 417.644 291.645C416.619 292.3 415.528 292.846 414.389 293.273C413.215 293.625 412.018 293.897 410.807 294.086C409.654 294.251 408.489 294.327 407.324 294.314C405.204 294.358 403.095 294.005 401.105 293.273C399.224 292.552 397.516 291.443 396.091 290.018C394.643 288.463 393.534 286.623 392.836 284.616C391.978 282.227 391.569 279.7 391.631 277.163C391.633 275.066 391.997 272.986 392.706 271.012C393.379 269.134 394.419 267.408 395.766 265.935C397.138 264.524 398.791 263.416 400.617 262.681C404.47 261.109 408.764 260.993 412.696 262.355L412.305 262.29ZM401.594 268.799C400.225 270.281 399.369 272.164 399.152 274.169H413.705C413.69 273.219 413.536 272.276 413.249 271.37C412.994 270.516 412.574 269.719 412.012 269.027C411.423 268.35 410.688 267.816 409.863 267.465C408.948 267.073 407.961 266.874 406.966 266.879C405.984 266.817 405 266.958 404.075 267.294C403.151 267.63 402.306 268.153 401.594 268.832V268.799Z" fill="#E5E5E5"/>
<path d="M446.036 283.803C446.04 285.29 445.741 286.763 445.157 288.131C444.563 289.365 443.733 290.471 442.715 291.385C441.55 292.406 440.17 293.151 438.678 293.566C436.905 294.157 435.043 294.433 433.176 294.38C431.309 294.381 429.446 294.218 427.608 293.891C426.017 293.72 424.447 293.393 422.92 292.915V283.672H426.501C426.847 283.661 427.184 283.778 427.448 284C427.713 284.222 427.886 284.535 427.934 284.877C427.934 285.332 428.162 286.569 428.357 288.554C430.017 288.966 431.727 289.141 433.436 289.075C434.251 289.09 435.063 288.98 435.845 288.749C436.431 288.546 436.981 288.249 437.473 287.871C437.875 287.559 438.198 287.158 438.417 286.699C438.577 286.205 438.654 285.688 438.645 285.169C438.681 284.515 438.459 283.872 438.026 283.38C437.499 282.851 436.882 282.421 436.203 282.11C435.397 281.723 434.558 281.407 433.696 281.167L430.766 280.223C429.774 279.9 428.806 279.509 427.869 279.051C426.934 278.614 426.068 278.044 425.297 277.359C424.539 276.658 423.94 275.804 423.539 274.853C423.066 273.697 422.833 272.457 422.855 271.208C422.851 269.912 423.106 268.629 423.604 267.433C424.105 266.18 424.897 265.064 425.915 264.178C427.046 263.223 428.351 262.494 429.757 262.03C431.44 261.489 433.198 261.215 434.966 261.217C436.374 261.208 437.78 261.328 439.166 261.575C440.371 261.803 442.096 262.258 444.375 262.909V272.021H440.794C440.447 272.04 440.105 271.926 439.839 271.703C439.573 271.479 439.402 271.162 439.361 270.817C439.14 269.656 438.987 268.482 438.906 267.303C437.674 266.981 436.402 266.838 435.129 266.879C433.875 266.801 432.629 267.132 431.58 267.823C431.156 268.102 430.811 268.484 430.577 268.934C430.343 269.385 430.229 269.887 430.245 270.394C430.258 271.043 430.5 271.665 430.929 272.152C431.456 272.625 432.048 273.019 432.687 273.323C433.497 273.721 434.335 274.058 435.194 274.332L438.092 275.211C439.102 275.554 440.091 275.956 441.054 276.415C441.973 276.818 442.819 277.367 443.561 278.042C444.314 278.67 444.915 279.46 445.319 280.353C445.812 281.435 446.057 282.614 446.036 283.803V283.803Z" fill="#E5E5E5"/>
<path d="M454.625 292.134C453.051 290.343 452.244 288.005 452.379 285.625V267.693H449.123C448.722 267.673 448.342 267.512 448.049 267.237C447.877 267.098 447.742 266.918 447.656 266.713C447.571 266.509 447.538 266.286 447.56 266.066V262.811L452.77 261.998L454.398 253.211C454.416 253.023 454.475 252.841 454.57 252.678C454.666 252.515 454.796 252.375 454.951 252.267C455.297 252.004 455.721 251.867 456.156 251.876H460.16V262.03H468.625V267.563H460.16V285.104C460.122 285.949 460.388 286.781 460.909 287.447C461.172 287.714 461.487 287.924 461.834 288.064C462.181 288.203 462.553 288.271 462.927 288.261C463.316 288.318 463.711 288.318 464.099 288.261L464.913 287.87L465.63 287.512C465.787 287.455 465.96 287.455 466.118 287.512C466.444 287.512 466.672 287.512 466.737 287.512L467.192 288.001L469.504 291.776C468.347 292.703 467.035 293.419 465.63 293.891C464.177 294.406 462.645 294.66 461.104 294.64C459.909 294.7 458.714 294.508 457.598 294.076C456.482 293.644 455.469 292.982 454.625 292.134V292.134Z" fill="#E5E5E5"/>
<path d="M488.617 290.311V294.021H471.394V290.311C471.357 289.851 471.498 289.395 471.79 289.037C472.081 288.679 472.499 288.448 472.957 288.391H473.315L474.259 288.195L476.147 287.87V268.083L474.259 267.757H473.738H473.315H472.957C472.496 267.693 472.078 267.454 471.787 267.091C471.497 266.728 471.356 266.268 471.394 265.805V261.867H483.863V287.902L485.751 288.228H486.272H486.696H487.054C487.296 288.255 487.53 288.332 487.742 288.453C487.953 288.574 488.138 288.737 488.284 288.933C488.431 289.128 488.536 289.35 488.593 289.587C488.65 289.824 488.658 290.071 488.617 290.311V290.311ZM484.612 254.512C484.366 255.101 484 255.633 483.538 256.074C483.052 256.535 482.475 256.89 481.845 257.115C480.598 257.594 479.217 257.594 477.97 257.115C477.408 256.854 476.9 256.49 476.473 256.041C476.01 255.593 475.642 255.057 475.391 254.465C475.139 253.872 475.009 253.235 475.008 252.592C475.008 251.921 475.141 251.258 475.398 250.639C475.634 250.044 476.001 249.51 476.473 249.077C476.898 248.643 477.408 248.299 477.97 248.068C478.578 247.79 479.239 247.646 479.907 247.646C480.576 247.646 481.237 247.79 481.845 248.068C482.432 248.301 482.968 248.648 483.421 249.09C483.873 249.531 484.234 250.058 484.482 250.639C484.757 251.255 484.912 251.918 484.938 252.592C484.94 253.193 484.829 253.789 484.612 254.349V254.512Z" fill="#E5E5E5"/>
<path d="M508.578 261.737C509.719 262 510.816 262.427 511.833 263.006H521.047V265.87C521.11 266.211 521.065 266.564 520.917 266.879C520.545 267.163 520.109 267.353 519.647 267.432L516.75 267.953C516.977 268.505 517.13 269.085 517.205 269.678C517.626 271.776 517.364 273.955 516.457 275.894C515.834 277.163 514.933 278.276 513.819 279.148C512.606 280.053 511.253 280.757 509.815 281.231C508.215 281.737 506.545 281.99 504.866 281.979C503.664 282.008 502.462 281.898 501.285 281.654C500.276 282.305 499.755 282.956 499.755 283.672C499.737 283.972 499.811 284.27 499.968 284.526C500.126 284.782 500.358 284.984 500.634 285.104C501.396 285.45 502.21 285.67 503.043 285.755C504.123 285.894 505.21 285.97 506.299 285.982H507.894C508.513 285.982 509.261 285.982 510.075 285.982C511.378 285.982 512.647 286.308 513.917 286.536C515.062 286.786 516.161 287.215 517.173 287.805C518.149 288.332 518.968 289.106 519.55 290.05C520.194 291.2 520.499 292.509 520.429 293.826C520.42 295.271 520.051 296.692 519.354 297.959C518.642 299.365 517.618 300.59 516.359 301.539C514.9 302.668 513.244 303.518 511.475 304.045C509.364 304.683 507.169 305.001 504.964 304.988C502.771 305.057 500.578 304.816 498.453 304.272C496.866 303.958 495.331 303.421 493.894 302.678C492.792 302.027 491.881 301.095 491.257 299.977C490.684 298.988 490.38 297.865 490.378 296.722C490.344 296.021 490.45 295.32 490.691 294.661C490.931 294.001 491.301 293.397 491.778 292.882C492.846 291.805 494.15 290.992 495.587 290.506C494.832 290.072 494.186 289.471 493.699 288.749C493.173 287.876 492.913 286.87 492.95 285.852C492.952 285.342 493.04 284.836 493.211 284.355C493.395 283.826 493.647 283.323 493.96 282.858C494.345 282.328 494.793 281.848 495.294 281.426C495.867 280.958 496.489 280.554 497.15 280.222C495.58 279.4 494.246 278.19 493.276 276.707C492.326 275.164 491.85 273.376 491.908 271.565C491.877 270.072 492.189 268.591 492.82 267.237C493.472 265.968 494.395 264.857 495.522 263.982C496.735 263.063 498.102 262.369 499.559 261.932C501.223 261.409 502.96 261.156 504.703 261.183C506.011 261.231 507.31 261.416 508.578 261.737ZM512.582 293.956C512.184 293.512 511.695 293.157 511.15 292.914C510.394 292.687 509.621 292.524 508.838 292.426C508.154 292.426 507.243 292.426 506.071 292.166H503.043C502.063 292.128 501.085 292.041 500.113 291.905C499.3 292.335 498.572 292.908 497.964 293.598C497.444 294.244 497.157 295.047 497.15 295.876C497.181 296.425 497.337 296.959 497.606 297.438C497.906 297.988 498.358 298.44 498.908 298.74C499.687 299.111 500.524 299.342 501.383 299.423C502.563 299.649 503.762 299.758 504.964 299.749C506.232 299.763 507.498 299.643 508.741 299.391C509.634 299.215 510.499 298.92 511.313 298.512C511.934 298.197 512.454 297.712 512.81 297.113C513.126 296.582 513.284 295.972 513.266 295.355C513.25 295.088 513.182 294.827 513.065 294.587C512.947 294.347 512.783 294.132 512.582 293.956ZM507.21 276.642C507.858 276.433 508.449 276.077 508.936 275.601C509.432 275.137 509.801 274.554 510.01 273.908C510.277 273.224 510.41 272.495 510.401 271.76C510.425 271.065 510.308 270.372 510.056 269.723C509.804 269.074 509.423 268.483 508.936 267.985C508.328 267.526 507.636 267.192 506.898 267.002C506.16 266.812 505.392 266.77 504.638 266.879C503.862 266.809 503.08 266.894 502.336 267.129C501.593 267.363 500.904 267.743 500.308 268.246C499.828 268.745 499.456 269.338 499.215 269.988C498.974 270.637 498.87 271.329 498.908 272.021C498.879 272.751 498.989 273.48 499.234 274.169C499.479 274.778 499.844 275.331 500.308 275.796C500.805 276.306 501.42 276.686 502.099 276.902C502.918 277.171 503.776 277.303 504.638 277.293C505.528 277.234 506.4 277.013 507.21 276.642V276.642Z" fill="#E5E5E5"/>
<path d="M553.471 290.246V293.956H546.08C545.476 294.006 544.869 293.893 544.322 293.631C544.068 293.494 543.849 293.299 543.685 293.061C543.521 292.824 543.416 292.55 543.378 292.264L542.694 290.019C541.945 290.723 541.139 291.366 540.285 291.939C539.508 292.467 538.692 292.935 537.843 293.338C536.991 293.69 536.109 293.963 535.206 294.152C534.133 294.354 533.043 294.452 531.951 294.445C530.67 294.469 529.394 294.282 528.174 293.891C527.098 293.551 526.101 292.998 525.244 292.264C524.388 291.505 523.719 290.558 523.29 289.498C522.819 288.307 522.587 287.035 522.607 285.755C522.615 284.481 522.94 283.229 523.551 282.11C524.307 280.74 525.436 279.612 526.806 278.856C528.632 277.756 530.621 276.954 532.699 276.48C535.719 275.78 538.814 275.463 541.913 275.536V273.714C542.027 271.999 541.543 270.297 540.546 268.897C540.053 268.35 539.442 267.922 538.76 267.646C538.077 267.369 537.341 267.252 536.606 267.302C535.502 267.254 534.399 267.408 533.351 267.758C532.596 268.033 531.867 268.37 531.169 268.767L529.476 269.711C528.961 270.003 528.376 270.149 527.783 270.134C527.302 270.148 526.828 270.024 526.416 269.776C526.07 269.49 525.773 269.149 525.537 268.767L524.072 266.326C527.697 262.944 532.494 261.101 537.453 261.184C539.192 261.151 540.92 261.472 542.532 262.128C543.928 262.712 545.182 263.589 546.211 264.699C547.26 265.838 548.069 267.177 548.587 268.637C549.116 270.254 549.369 271.948 549.336 273.649V287.871L551.029 288.196H551.745C551.999 288.203 552.248 288.263 552.476 288.373C552.704 288.482 552.906 288.639 553.07 288.833C553.233 289.027 553.353 289.253 553.422 289.497C553.491 289.74 553.508 289.996 553.471 290.246V290.246ZM536.346 280.743C535.073 280.98 533.829 281.351 532.634 281.85C531.859 282.162 531.191 282.694 530.713 283.379C530.32 283.942 530.115 284.614 530.127 285.3C530.056 285.855 530.13 286.42 530.341 286.938C530.552 287.457 530.893 287.913 531.332 288.261C532.295 288.896 533.436 289.204 534.588 289.14C535.33 289.145 536.072 289.08 536.802 288.945C537.474 288.819 538.122 288.588 538.722 288.261C539.313 287.947 539.879 287.587 540.415 287.187C541.01 286.723 541.575 286.223 542.108 285.69V280.288C540.22 280.255 538.334 280.407 536.476 280.743H536.346Z" fill="#E5E5E5"/>
<path d="M580.003 291.776C578.959 292.395 577.871 292.939 576.748 293.403C575.686 293.762 574.598 294.034 573.492 294.217C572.349 294.383 571.196 294.46 570.041 294.444C568.133 294.483 566.238 294.128 564.474 293.403C562.731 292.654 561.167 291.545 559.883 290.149C558.471 288.64 557.366 286.871 556.627 284.941C555.844 282.659 555.458 280.259 555.488 277.847C555.472 275.637 555.813 273.439 556.497 271.338C557.166 269.406 558.193 267.617 559.525 266.066C560.872 264.563 562.542 263.384 564.409 262.616C566.536 261.746 568.817 261.315 571.115 261.347C574.612 261.527 578.05 262.321 581.273 263.69V273.453H577.692C577.345 273.472 577.003 273.358 576.737 273.135C576.471 272.911 576.3 272.594 576.259 272.249L575.771 267.758C574.416 267.361 573.015 267.142 571.604 267.107C570.375 267.073 569.156 267.342 568.055 267.888C567.054 268.339 566.189 269.047 565.548 269.938C564.818 270.914 564.277 272.018 563.953 273.193C563.626 274.634 563.462 276.108 563.464 277.586C563.448 279.134 563.634 280.676 564.018 282.175C564.342 283.35 564.883 284.454 565.613 285.43C566.284 286.293 567.141 286.994 568.12 287.48C570.132 288.295 572.364 288.387 574.436 287.74C575.122 287.475 575.776 287.136 576.39 286.731L577.041 286.276C577.295 286.112 577.534 285.927 577.757 285.722C578.111 285.426 578.565 285.274 579.027 285.299C579.304 285.278 579.583 285.33 579.834 285.45C580.085 285.57 580.301 285.754 580.459 285.983L582.641 288.814C581.877 289.899 580.992 290.892 580.003 291.776V291.776Z" fill="#E5E5E5"/>
<path d="M601.88 290.311V294.021H584.625V290.311C584.588 289.851 584.73 289.395 585.021 289.037C585.312 288.68 585.73 288.448 586.188 288.391H586.579L587.523 288.196L589.411 287.87V268.083L587.523 267.758H586.969H586.579H586.188C585.727 267.693 585.309 267.454 585.019 267.091C584.728 266.728 584.587 266.268 584.625 265.805V261.867H597.127V287.903L598.983 288.228H599.536H599.927H600.318C600.56 288.256 600.794 288.332 601.006 288.453C601.217 288.575 601.402 288.738 601.548 288.933C601.695 289.128 601.8 289.351 601.857 289.588C601.914 289.825 601.922 290.071 601.88 290.311V290.311ZM597.876 254.512C597.618 255.095 597.253 255.624 596.801 256.074C596.345 256.518 595.817 256.882 595.239 257.148C593.98 257.626 592.59 257.626 591.332 257.148C590.779 256.871 590.274 256.508 589.834 256.074C589.382 255.624 589.018 255.095 588.76 254.512C588.526 253.91 588.404 253.27 588.402 252.624C588.407 251.958 588.528 251.297 588.76 250.672C589.019 250.089 589.383 249.56 589.834 249.11C590.266 248.683 590.774 248.34 591.332 248.101C591.945 247.822 592.611 247.678 593.285 247.678C593.959 247.678 594.625 247.822 595.239 248.101C595.821 248.332 596.352 248.674 596.801 249.11C597.742 250.04 598.28 251.302 598.299 252.624C598.268 253.221 598.124 253.806 597.876 254.349V254.512Z" fill="#E5E5E5"/>
<path d="M626.399 262.551C628.286 263.26 629.996 264.37 631.412 265.805C632.856 267.289 633.966 269.065 634.668 271.012C635.462 273.202 635.848 275.518 635.808 277.847C635.846 280.196 635.46 282.533 634.668 284.746C633.948 286.704 632.841 288.497 631.412 290.018C630.011 291.471 628.296 292.584 626.399 293.273C624.316 294.043 622.108 294.419 619.887 294.379C617.668 294.403 615.462 294.028 613.376 293.273C611.482 292.576 609.769 291.464 608.362 290.018C606.909 288.516 605.798 286.718 605.106 284.746C604.341 282.527 603.967 280.193 603.999 277.847C603.964 275.521 604.339 273.208 605.106 271.012C605.831 269.075 606.938 267.305 608.362 265.805C609.784 264.378 611.493 263.268 613.376 262.551C615.456 261.76 617.662 261.352 619.887 261.346C622.113 261.346 624.32 261.755 626.399 262.551V262.551ZM625.78 285.82C627.042 283.375 627.7 280.663 627.7 277.912C627.7 275.16 627.042 272.449 625.78 270.003C625.114 269.08 624.223 268.341 623.192 267.857C622.161 267.373 621.024 267.16 619.887 267.237C618.733 267.165 617.578 267.38 616.527 267.862C615.476 268.345 614.561 269.081 613.864 270.003C612.376 272.386 611.671 275.174 611.846 277.977C611.683 280.738 612.389 283.48 613.864 285.82C614.566 286.731 615.485 287.453 616.537 287.919C617.588 288.385 618.74 288.581 619.887 288.489C621.015 288.577 622.146 288.378 623.177 287.911C624.207 287.445 625.103 286.725 625.78 285.82V285.82Z" fill="#E5E5E5"/>
<path d="M675.433 290.311V294.021H662.963V273.583C663.051 271.941 662.567 270.32 661.596 268.994C661.082 268.428 660.445 267.987 659.734 267.705C659.023 267.423 658.256 267.307 657.494 267.367C656.187 267.366 654.9 267.69 653.75 268.31C652.552 268.963 651.456 269.785 650.494 270.751V287.805L652.317 288.13L653.229 288.325H653.619C654.077 288.383 654.495 288.614 654.786 288.972C655.077 289.33 655.219 289.786 655.182 290.245V293.956H637.992V290.311C637.955 289.846 638.102 289.385 638.4 289.027C638.698 288.668 639.124 288.44 639.587 288.39H639.945L640.89 288.195L642.713 287.87V268.083L640.89 267.757H640.369H639.945H639.587C639.121 267.7 638.695 267.465 638.397 267.101C638.1 266.737 637.955 266.273 637.992 265.805V261.867H647.466C647.907 261.845 648.341 261.975 648.697 262.236C649.053 262.497 649.308 262.872 649.42 263.299L649.973 265.805C650.583 265.131 651.259 264.521 651.992 263.982C652.713 263.448 653.488 262.99 654.303 262.615C655.129 262.22 655.99 261.904 656.875 261.671C657.872 261.47 658.886 261.361 659.903 261.346C661.51 261.304 663.108 261.603 664.591 262.225C665.837 262.827 666.946 263.68 667.847 264.731C668.777 265.892 669.483 267.217 669.931 268.636C670.42 270.238 670.65 271.908 670.614 273.583V287.805L672.503 288.13H673.023H673.414H673.805C674.063 288.147 674.314 288.22 674.541 288.344C674.769 288.467 674.966 288.638 675.121 288.846C675.276 289.053 675.384 289.291 675.438 289.544C675.491 289.797 675.49 290.058 675.433 290.311Z" fill="#E5E5E5"/>
<path d="M698.576 262.29C700.236 262.922 701.736 263.911 702.972 265.186C704.237 266.498 705.214 268.062 705.837 269.775C706.57 271.73 706.934 273.805 706.911 275.893C706.959 276.402 706.959 276.914 706.911 277.423C706.885 277.716 706.808 278.002 706.683 278.269C706.563 278.512 706.353 278.699 706.097 278.79C705.806 278.842 705.509 278.842 705.218 278.79H685.358C685.349 281.451 686.296 284.026 688.028 286.047C688.842 286.831 689.808 287.44 690.866 287.837C691.924 288.235 693.052 288.412 694.181 288.358C695.283 288.402 696.383 288.258 697.437 287.935C698.275 287.688 699.082 287.349 699.846 286.926C700.14 286.755 700.444 286.603 700.758 286.47L701.669 285.982C702.094 285.701 702.593 285.553 703.102 285.559C703.406 285.555 703.707 285.622 703.981 285.754C704.216 285.849 704.411 286.021 704.534 286.242L706.781 289.074C705.935 290.045 704.973 290.909 703.916 291.645C702.884 292.287 701.794 292.832 700.66 293.272C699.485 293.621 698.289 293.893 697.079 294.086C695.914 294.251 694.739 294.327 693.563 294.314C691.443 294.356 689.334 294.002 687.344 293.272C685.471 292.535 683.766 291.428 682.33 290.018C680.893 288.454 679.785 286.617 679.075 284.615C678.244 282.22 677.847 279.697 677.903 277.163C677.91 275.069 678.262 272.991 678.944 271.012C679.665 269.111 680.774 267.382 682.2 265.935C683.561 264.525 685.202 263.416 687.019 262.68C690.883 261.109 695.187 260.993 699.13 262.355L698.576 262.29ZM687.865 268.799C686.484 270.276 685.617 272.159 685.391 274.168H699.976C699.972 273.22 699.829 272.277 699.553 271.37C699.273 270.519 698.843 269.726 698.283 269.026C697.714 268.343 696.988 267.807 696.167 267.464C695.212 267.051 694.181 266.84 693.139 266.846C692.171 266.793 691.201 266.943 690.294 267.285C689.386 267.626 688.559 268.153 687.865 268.831V268.799Z" fill="#E5E5E5"/>
<path d="M732.246 283.801C732.25 285.289 731.951 286.762 731.367 288.13C730.776 289.491 729.882 290.7 728.754 291.664C727.626 292.628 726.292 293.323 724.855 293.695C723.071 294.283 721.199 294.559 719.321 294.509C717.465 294.509 715.613 294.346 713.786 294.02C712.185 293.756 710.614 293.331 709.098 292.751V283.671H712.744C713.091 283.652 713.433 283.766 713.699 283.99C713.965 284.214 714.136 284.53 714.177 284.875C714.177 285.331 714.405 286.568 714.632 288.553C716.292 288.965 718.002 289.14 719.711 289.074C720.516 289.089 721.317 288.979 722.088 288.748C722.681 288.559 723.233 288.261 723.716 287.869C724.129 287.57 724.455 287.165 724.66 286.698C724.831 286.206 724.919 285.689 724.92 285.168C724.943 284.516 724.723 283.878 724.302 283.378C723.768 282.858 723.152 282.429 722.479 282.109C721.67 281.727 720.832 281.412 719.972 281.165L717.009 280.221C716.019 279.894 715.051 279.502 714.111 279.05C713.187 278.613 712.331 278.043 711.572 277.358C710.795 276.674 710.192 275.815 709.814 274.852C709.315 273.702 709.071 272.459 709.098 271.207C709.089 269.907 709.355 268.621 709.879 267.431C710.38 266.179 711.172 265.063 712.191 264.177C713.31 263.222 714.603 262.493 716 262.029C717.684 261.49 719.441 261.216 721.209 261.215C722.617 261.205 724.023 261.325 725.409 261.573C726.613 261.801 728.372 262.257 730.618 262.908V272.02H727.037C726.689 272.039 726.348 271.925 726.082 271.702C725.816 271.478 725.645 271.161 725.604 270.816C725.399 269.653 725.258 268.48 725.181 267.301C723.948 266.984 722.677 266.842 721.404 266.878C720.14 266.802 718.885 267.133 717.823 267.822C717.403 268.102 717.062 268.486 716.834 268.936C716.605 269.387 716.498 269.889 716.521 270.393C716.533 271.041 716.775 271.664 717.204 272.15C717.719 272.638 718.314 273.035 718.963 273.322C719.767 273.731 720.606 274.068 721.469 274.331L724.367 275.21C725.366 275.553 726.345 275.955 727.297 276.414C728.224 276.801 729.073 277.352 729.804 278.041C730.557 278.669 731.158 279.459 731.562 280.352C732.044 281.436 732.278 282.615 732.246 283.801V283.801Z" fill="#E5E5E5"/>
<path d="M773.329 293.891C772.881 293.887 772.442 293.763 772.059 293.533C771.709 293.269 771.466 292.887 771.375 292.459L770.757 289.497C769.489 290.941 767.98 292.153 766.296 293.077C764.458 294.031 762.408 294.501 760.338 294.444C758.693 294.488 757.061 294.131 755.585 293.403C754.089 292.627 752.796 291.513 751.808 290.148C750.67 288.62 749.84 286.885 749.366 285.039C748.762 282.745 748.466 280.381 748.487 278.009C748.485 275.805 748.804 273.613 749.432 271.5C750.027 269.557 750.988 267.745 752.264 266.163C753.427 264.696 754.893 263.497 756.562 262.648C758.337 261.753 760.304 261.306 762.292 261.346C763.878 261.308 765.454 261.607 766.915 262.225C768.127 262.77 769.23 263.531 770.17 264.471V253.666L768.347 253.34H767.826H767.436H767.045C766.587 253.283 766.169 253.052 765.878 252.694C765.587 252.336 765.445 251.88 765.482 251.42V247.352H778.114V287.74L779.742 288L780.556 288.196H780.947C781.405 288.253 781.823 288.484 782.114 288.842C782.405 289.2 782.547 289.656 782.51 290.116V293.891H773.329ZM767.501 267.855C766.467 267.43 765.363 267.198 764.245 267.172C763.123 267.155 762.01 267.389 760.989 267.855C760.025 268.308 759.187 268.989 758.548 269.841C757.878 270.839 757.372 271.937 757.05 273.095C756.685 274.685 756.521 276.314 756.562 277.944C756.52 279.56 756.662 281.176 756.985 282.761C757.191 283.923 757.635 285.031 758.287 286.015C758.771 286.804 759.472 287.437 760.306 287.838C761.172 288.241 762.118 288.441 763.073 288.423C764.517 288.469 765.947 288.121 767.208 287.415C768.459 286.654 769.562 285.672 770.463 284.518V270.133C769.697 269.116 768.675 268.318 767.501 267.823V267.855Z" fill="#E5E5E5"/>
<path d="M805.498 262.29C807.158 262.922 808.658 263.911 809.893 265.186C811.159 266.498 812.135 268.062 812.759 269.775C813.492 271.73 813.856 273.805 813.833 275.893C813.881 276.402 813.881 276.914 813.833 277.423C813.818 277.722 813.729 278.013 813.572 278.269C813.525 278.392 813.451 278.502 813.355 278.592C813.259 278.682 813.144 278.75 813.019 278.79C812.728 278.842 812.431 278.842 812.14 278.79H792.28C792.271 281.451 793.218 284.026 794.95 286.047C795.764 286.831 796.73 287.44 797.788 287.837C798.846 288.235 799.974 288.412 801.103 288.358C802.204 288.402 803.305 288.258 804.359 287.935C805.196 287.688 806.004 287.349 806.768 286.926C807.062 286.755 807.366 286.603 807.68 286.47L808.559 285.982C808.997 285.705 809.505 285.558 810.024 285.559C810.328 285.555 810.629 285.622 810.903 285.754C811.138 285.849 811.333 286.021 811.456 286.242L813.703 289.074C812.857 290.045 811.895 290.909 810.838 291.645C809.805 292.287 808.715 292.832 807.582 293.272C806.407 293.621 805.211 293.893 804.001 294.086C802.836 294.251 801.661 294.327 800.484 294.314C798.365 294.356 796.256 294.002 794.266 293.272C792.393 292.535 790.688 291.428 789.252 290.018C787.814 288.454 786.707 286.617 785.997 284.615C785.166 282.22 784.769 279.697 784.824 277.163C784.832 275.069 785.184 272.991 785.866 271.012C786.587 269.111 787.695 267.382 789.122 265.935C790.483 264.525 792.124 263.416 793.94 262.68C797.805 261.109 802.108 260.993 806.052 262.355L805.498 262.29ZM794.754 268.799C793.406 270.294 792.553 272.17 792.313 274.168H806.866C806.861 273.22 806.719 272.277 806.442 271.37C806.162 270.519 805.732 269.726 805.173 269.026C804.603 268.343 803.877 267.807 803.056 267.464C802.101 267.051 801.07 266.84 800.029 266.846C799.061 266.801 798.094 266.954 797.187 267.296C796.28 267.637 795.452 268.159 794.754 268.831V268.799Z" fill="#E5E5E5"/>
<path d="M833.203 290.311V294.021H815.948V290.311C815.919 289.848 816.069 289.392 816.365 289.035C816.661 288.678 817.083 288.448 817.543 288.391H817.901L818.845 288.196L820.734 287.87V253.666L818.845 253.34H818.324H817.901H817.543C817.083 253.283 816.661 253.053 816.365 252.696C816.069 252.34 815.919 251.883 815.948 251.42V247.352H828.45V287.708L830.338 288.033L831.25 288.228H831.64C831.883 288.256 832.117 288.332 832.328 288.454C832.54 288.575 832.725 288.738 832.871 288.933C833.017 289.128 833.122 289.351 833.179 289.588C833.236 289.825 833.244 290.071 833.203 290.311V290.311Z" fill="#E5E5E5"/>
<path d="M866.022 254.414C865.893 254.385 865.76 254.385 865.631 254.414H865.11L863.287 254.739V287.805L865.11 288.13H865.631H866.022H866.412C866.87 288.187 867.288 288.419 867.579 288.776C867.87 289.134 868.012 289.59 867.975 290.05V293.76H850.036V290.31C849.999 289.851 850.141 289.395 850.432 289.037C850.723 288.679 851.141 288.448 851.599 288.39H851.99L852.934 288.195L854.822 287.87V254.902L852.934 254.577H852.413C852.273 254.548 852.129 254.548 851.99 254.577H851.599C851.142 254.505 850.728 254.264 850.439 253.903C850.15 253.542 850.006 253.086 850.036 252.624V248.686H867.975V252.396C868.005 252.858 867.861 253.314 867.572 253.675C867.283 254.036 866.869 254.277 866.412 254.349L866.022 254.414Z" fill="#E5E5E5"/>
<path d="M906.816 263.103C906.847 265.184 906.471 267.252 905.709 269.188C904.988 270.984 903.875 272.596 902.453 273.907C900.831 275.286 898.949 276.326 896.918 276.967C894.422 277.743 891.816 278.106 889.202 278.041H883.635V287.804L885.491 288.129H886.044H886.435H886.825C887.283 288.187 887.701 288.418 887.992 288.776C888.283 289.134 888.425 289.59 888.388 290.05V293.76H870.449V290.31C870.412 289.85 870.554 289.394 870.845 289.036C871.136 288.679 871.554 288.447 872.012 288.39H872.403L873.347 288.194L875.235 287.869V254.901L873.347 254.576H872.793C872.665 254.544 872.531 254.544 872.403 254.576H872.012C871.555 254.504 871.141 254.264 870.852 253.902C870.563 253.541 870.419 253.085 870.449 252.623V248.685H889.202C891.879 248.638 894.546 249.001 897.113 249.759C899.117 250.378 900.969 251.409 902.551 252.786C903.981 254 905.097 255.541 905.806 257.277C906.496 259.141 906.838 261.115 906.816 263.103V263.103ZM898.351 263.103C898.371 261.993 898.183 260.889 897.797 259.848C897.415 258.903 896.838 258.049 896.104 257.342C895.279 256.631 894.314 256.099 893.272 255.78C891.955 255.372 890.58 255.185 889.202 255.227H883.635V271.499H889.202C890.582 271.532 891.957 271.334 893.272 270.913C894.319 270.574 895.284 270.02 896.104 269.286C896.89 268.571 897.474 267.662 897.797 266.65C898.2 265.512 898.387 264.309 898.351 263.103V263.103Z" fill="#E5E5E5"/>
<path d="M952.295 252.396C952.325 252.858 952.182 253.314 951.893 253.675C951.604 254.036 951.19 254.277 950.733 254.349H950.342C950.202 254.32 950.058 254.32 949.919 254.349H949.398L947.575 254.674L934.78 276.186V287.577L936.603 287.902H937.156H937.547H937.938C938.396 287.959 938.814 288.191 939.105 288.549C939.396 288.906 939.538 289.363 939.501 289.822V293.532H921.562V290.31C921.524 289.851 921.666 289.395 921.957 289.037C922.248 288.679 922.667 288.448 923.124 288.39H923.58L924.492 288.195L926.315 287.87V276.479L913.52 254.967L911.664 254.642H911.111C910.982 254.61 910.848 254.61 910.72 254.642H910.329C909.872 254.57 909.458 254.329 909.169 253.968C908.88 253.607 908.737 253.151 908.767 252.689V248.686H925.696V252.396C925.726 252.858 925.583 253.314 925.294 253.675C925.004 254.036 924.591 254.277 924.134 254.349H923.873H923.254L922.375 254.544L928.399 265.512C928.724 266.097 929.147 266.943 929.636 268.017C929.864 268.473 930.026 268.929 930.189 269.352C930.298 269.717 930.429 270.076 930.58 270.426C930.854 269.608 931.169 268.804 931.524 268.017C932.045 266.943 932.436 266.097 932.794 265.512L938.752 254.544L937.807 254.349H937.482C937.398 254.316 937.305 254.316 937.221 254.349C937.221 254.349 937.059 254.349 936.928 254.349C936.471 254.277 936.058 254.036 935.768 253.675C935.479 253.314 935.336 252.858 935.366 252.396V248.686H952.295V252.396Z" fill="#E5E5E5"/>
<path d="M984.074 279.897C984.063 281.842 983.71 283.77 983.032 285.593C982.354 287.361 981.299 288.96 979.939 290.279C978.54 291.703 976.853 292.813 974.99 293.533C972.905 294.296 970.699 294.671 968.479 294.64H967.535C963.093 294.567 958.693 293.765 954.512 292.264V280.483H958.093C958.434 280.446 958.775 280.545 959.043 280.759C959.311 280.972 959.485 281.282 959.526 281.622C959.526 282.143 959.851 283.9 960.112 286.797C962.926 287.46 965.818 287.734 968.707 287.61C970.706 287.736 972.683 287.135 974.274 285.918C974.946 285.304 975.47 284.545 975.809 283.7C976.147 282.855 976.29 281.945 976.227 281.036C976.265 279.99 975.956 278.96 975.348 278.107C974.721 277.281 973.891 276.631 972.939 276.22C971.898 275.673 970.808 275.227 969.683 274.885L968.316 274.527L965.874 273.779C964.569 273.345 963.287 272.846 962.032 272.282C960.839 271.664 959.742 270.874 958.777 269.939C957.749 268.958 956.958 267.756 956.465 266.424C955.819 264.776 955.498 263.019 955.521 261.249C955.522 259.581 955.866 257.931 956.53 256.4C957.168 254.801 958.159 253.366 959.428 252.202C960.789 250.983 962.354 250.014 964.051 249.338C966.125 248.533 968.338 248.146 970.562 248.199C975.03 248.197 979.454 249.071 983.585 250.77V262.356H980.036C979.692 262.369 979.355 262.258 979.085 262.043C978.816 261.828 978.634 261.523 978.571 261.184C978.571 260.598 978.278 258.906 978.018 256.107C975.666 255.296 973.177 254.953 970.693 255.098C969.672 255.089 968.655 255.21 967.665 255.456C966.869 255.719 966.129 256.127 965.483 256.661C964.888 257.158 964.41 257.78 964.084 258.483C963.776 259.213 963.631 260.002 963.66 260.794C963.65 261.757 963.985 262.692 964.604 263.43C965.239 264.192 966.026 264.813 966.916 265.252C967.967 265.785 969.055 266.242 970.172 266.619L974.013 267.888C974.882 268.192 976.151 268.713 977.823 269.451C979.026 270.011 980.127 270.77 981.078 271.696C982.094 272.599 982.905 273.708 983.455 274.951C984.026 276.533 984.238 278.223 984.074 279.897V279.897Z" fill="#E5E5E5"/>
<defs>
<radialGradient id="paint0_radial_360_227" cx="0" cy="0" r="1" gradientUnits="userSpaceOnUse" gradientTransform="translate(113.919 94.262) scale(100.439 100.4)">
<stop stop-color="#FFFFFE"/>
<stop offset="0.97" stop-color="#C4C4C4"/>
</radialGradient>
</defs>
</svg>
