<svg width="43" height="43" viewBox="0 0 43 43" fill="none" xmlns="http://www.w3.org/2000/svg">
<path opacity="0.8" d="M32.6771 31.061L28.4131 26.8283C30.0682 24.763 30.8698 22.1416 30.6529 19.5031C30.436 16.8646 29.2172 14.4095 27.2471 12.6426C25.277 10.8758 22.7054 9.93146 20.0609 10.0039C17.4165 10.0763 14.9003 11.1599 13.0296 13.0319C11.159 14.904 10.0762 17.4221 10.0039 20.0686C9.93151 22.715 10.8751 25.2886 12.6406 27.2602C14.4061 29.2318 16.8594 30.4515 19.4959 30.6686C22.1324 30.8856 24.7518 30.0835 26.8155 28.4271L31.045 32.6598C31.1519 32.7676 31.279 32.8531 31.419 32.9115C31.5591 32.9699 31.7093 33 31.861 33C32.0128 33 32.163 32.9699 32.303 32.9115C32.4431 32.8531 32.5702 32.7676 32.6771 32.6598C32.8842 32.4453 33 32.1587 33 31.8604C33 31.5621 32.8842 31.2755 32.6771 31.061ZM20.3679 28.4271C18.7767 28.4271 17.2212 27.9549 15.8982 27.0702C14.5752 26.1855 13.544 24.928 12.9351 23.4569C12.3261 21.9857 12.1668 20.3668 12.4772 18.805C12.7877 17.2432 13.5539 15.8086 14.679 14.6826C15.8042 13.5566 17.2377 12.7898 18.7983 12.4791C20.3589 12.1685 21.9766 12.3279 23.4466 12.9373C24.9167 13.5467 26.1732 14.5786 27.0572 15.9027C27.9412 17.2267 28.4131 18.7833 28.4131 20.3757C28.4131 22.5111 27.5655 24.559 26.0567 26.0689C24.5479 27.5788 22.5016 28.4271 20.3679 28.4271Z" fill="#333333" fill-opacity="0.5"/>
</svg>
